M48
METRIC,LZ,000.000
;FILE_FORMAT=3:3
;TYPE=PLATED
;Layer: PTH_Through_Via
;EasyEDA v6.5.54, 2026-02-14 17:41:48
;915fe7b8967649e7a1646cd930db55b3,2a1063a80a8d4ca1b7931a6248fd9ac1,10
;Gerber Generator version 0.2
;Holesize 1 = 0.306 mm
T01C0.306
%
G05
G90
T01
X032889Y005472
X029679Y010393
X002011Y008606
X029135Y001776
X046253Y012899
X051893Y018926
X032832Y003014
X036254Y019635
X026854Y018743
X033980Y007540
X034973Y000867
X033393Y021641
X042794Y014501
X039588Y018493
X027203Y004204
X025206Y004450
X019487Y005515
X009468Y009445
X040681Y024257
X053465Y010534
X048368Y004838
X008631Y010247
X020899Y005900
X052886Y012315
X020055Y009245
X029665Y003787
X034601Y003787
X017416Y012423
X032523Y001508
X020016Y014224
X021162Y015260
X020615Y016874
X016779Y021606
X002883Y023637
M30
