M48
METRIC,LZ,000.000
;FILE_FORMAT=3:3
;TYPE=PLATED
;Layer: PTH_Through
;EasyEDA v6.5.54, 2026-02-14 17:41:48
;915fe7b8967649e7a1646cd930db55b3,2a1063a80a8d4ca1b7931a6248fd9ac1,10
;Gerber Generator version 0.2
;Holesize 1 = 0.306 mm
T01C0.306
;Holesize 2 = 0.800 mm
T02C0.800
;Holesize 3 = 0.901 mm
T03C0.901
;Holesize 4 = 1.000 mm
T04C1.000
;Holesize 5 = 1.016 mm
T05C1.016
;Holesize 6 = 1.200 mm
T06C1.200
%
G05
G90
T01
X032889Y005472
X029679Y010393
X002011Y008606
X029135Y001776
X046253Y012899
X051893Y018926
X032832Y003014
X036254Y019635
X026854Y018743
X033980Y007540
X034973Y000867
X033393Y021641
X042794Y014501
X039588Y018493
X027203Y004204
X025206Y004450
X019487Y005515
X009468Y009445
X040681Y024257
X053465Y010534
X048368Y004838
X008631Y010247
X020899Y005900
X052886Y012315
X020055Y009245
X029665Y003787
X034601Y003787
X017416Y012423
X032523Y001508
X020016Y014224
X021162Y015260
X020615Y016874
X016779Y021606
X002883Y023637
T02
X057003Y016390G85X056403Y016390
X052923Y016390G85X052123Y016390
X052923Y007740G85X052123Y007740
X057003Y007740G85X056403Y007740
T03
X024257Y008315
X024257Y010815
X024257Y013315
X024257Y015815
T04
X-005083Y002413G85X-005077Y002413
X-005083Y004953G85X-005077Y004953
X-005083Y-000127G85X-005077Y-000127
X-002289Y002413G85X-002283Y002413
X-002289Y004953G85X-002283Y004953
X-002289Y-000127G85X-002283Y-000127
X000505Y002413G85X000511Y002413
X000505Y004953G85X000511Y004953
X000505Y-000127G85X000511Y-000127
X003299Y002413G85X003305Y002413
X003299Y004953G85X003305Y004953
X003299Y-000127G85X003305Y-000127
X006093Y002413G85X006099Y002413
X006093Y004953G85X006099Y004953
X006093Y-000127G85X006099Y-000127
X008887Y002413G85X008893Y002413
X008887Y004953G85X008893Y004953
X008887Y-000127G85X008893Y-000127
X011681Y002413G85X011687Y002413
X011681Y004953G85X011687Y004953
X011681Y-000127G85X011687Y-000127
X014475Y002413G85X014481Y002413
X014475Y004953G85X014481Y004953
X014475Y-000127G85X014481Y-000127
T05
X053721Y003048
X057226Y003048
T06
X026035Y-000508
X028575Y-000508
X031115Y-000508
X033655Y-000508
X036195Y-000508
X038735Y-000508
X041275Y-000508
X043815Y-000508
X046355Y-000508
X048895Y-000508
M30
