G04 Layer: TopSolderMaskLayer*
G04 EasyEDA v6.5.54, 2026-02-14 17:41:48*
G04 915fe7b8967649e7a1646cd930db55b3,2a1063a80a8d4ca1b7931a6248fd9ac1,10*
G04 Gerber Generator version 0.2*
G04 Scale: 100 percent, Rotated: No, Reflected: No *
G04 Dimensions in millimeters *
G04 leading zeros omitted , absolute positions ,4 integer and 5 decimal *
%FSLAX45Y45*%
%MOMM*%

%AMMACRO1*4,1,8,-0.4211,-0.5008,-0.4508,-0.471,-0.4508,0.4711,-0.4211,0.5008,0.421,0.5008,0.4508,0.4711,0.4508,-0.471,0.421,-0.5008,-0.4211,-0.5008,0*%
%AMMACRO2*4,1,8,-0.4711,-0.4508,-0.5008,-0.421,-0.5008,0.4211,-0.4711,0.4508,0.471,0.4508,0.5008,0.4211,0.5008,-0.421,0.471,-0.4508,-0.4711,-0.4508,0*%
%AMMACRO3*4,1,8,-1.2331,-1.7608,-1.2628,-1.731,-1.2628,1.7311,-1.2331,1.7608,1.233,1.7608,1.2628,1.7311,1.2628,-1.731,1.233,-1.7608,-1.2331,-1.7608,0*%
%AMMACRO4*4,1,8,-0.4211,-0.4508,-0.4508,-0.421,-0.4508,0.4211,-0.4211,0.4508,0.421,0.4508,0.4508,0.4211,0.4508,-0.421,0.421,-0.4508,-0.4211,-0.4508,0*%
%AMMACRO5*4,1,8,-0.4531,-0.454,-0.4828,-0.4243,-0.4828,0.4243,-0.4531,0.454,0.453,0.454,0.4828,0.4243,0.4828,-0.4243,0.453,-0.454,-0.4531,-0.454,0*%
%AMMACRO6*4,1,8,-0.4243,-0.4828,-0.454,-0.453,-0.454,0.4531,-0.4243,0.4828,0.4243,0.4828,0.454,0.4531,0.454,-0.453,0.4243,-0.4828,-0.4243,-0.4828,0*%
%AMMACRO7*4,1,8,-0.9736,-1.0033,-1.0033,-0.9735,-1.0033,0.9736,-0.9736,1.0033,0.9735,1.0033,1.0033,0.9736,1.0033,-0.9735,0.9735,-1.0033,-0.9736,-1.0033,0*%
%AMMACRO8*4,1,8,-1.0421,-1.1016,-1.1016,-1.0421,-1.1016,1.0421,-1.0421,1.1016,1.0421,1.1016,1.1016,1.0421,1.1016,-1.0421,1.0421,-1.1016,-1.0421,-1.1016,0*%
%AMMACRO9*4,1,8,-0.6707,-0.9,-0.7,-0.8707,-0.7,0.8707,-0.6707,0.9,0.6707,0.9,0.7,0.8707,0.7,-0.8707,0.6707,-0.9,-0.6707,-0.9,0*%
%AMMACRO10*4,1,8,-0.7261,-0.7258,-0.7558,-0.696,-0.7558,0.6961,-0.7261,0.7258,0.726,0.7258,0.7558,0.6961,0.7558,-0.696,0.726,-0.7258,-0.7261,-0.7258,0*%
%AMMACRO11*4,1,8,-2.2711,-0.8758,-2.3008,-0.846,-2.3008,0.846,-2.2711,0.8758,2.271,0.8758,2.3008,0.846,2.3008,-0.846,2.271,-0.8758,-2.2711,-0.8758,0*%
%AMMACRO12*4,1,8,-1.0211,-1.0508,-1.0508,-1.021,-1.0508,1.0211,-1.0211,1.0508,1.021,1.0508,1.0508,1.0211,1.0508,-1.021,1.021,-1.0508,-1.0211,-1.0508,0*%
%AMMACRO13*4,1,8,-0.8711,-0.9008,-0.9008,-0.871,-0.9008,0.8711,-0.8711,0.9008,0.871,0.9008,0.9008,0.8711,0.9008,-0.871,0.871,-0.9008,-0.8711,-0.9008,0*%
%AMMACRO14*4,1,8,-0.4707,-0.8,-0.5,-0.7707,-0.5,0.7707,-0.4707,0.8,0.4707,0.8,0.5,0.7707,0.5,-0.7707,0.4707,-0.8,-0.4707,-0.8,0*%
%AMMACRO15*4,1,8,-0.7707,-0.5,-0.8,-0.4707,-0.8,0.4707,-0.7707,0.5,0.7707,0.5,0.8,0.4707,0.8,-0.4707,0.7707,-0.5,-0.7707,-0.5,0*%
%AMMACRO16*4,1,8,-0.4711,-0.5008,-0.5008,-0.4711,-0.5008,0.4711,-0.4711,0.5008,0.471,0.5008,0.5008,0.4711,0.5008,-0.4711,0.471,-0.5008,-0.4711,-0.5008,0*%
%AMMACRO17*4,1,8,-0.4711,-0.5008,-0.5008,-0.471,-0.5008,0.4711,-0.4711,0.5008,0.471,0.5008,0.5008,0.4711,0.5008,-0.471,0.471,-0.5008,-0.4711,-0.5008,0*%
%AMMACRO18*4,1,8,-0.4711,-0.5008,-0.5008,-0.4711,-0.5008,0.4711,-0.4711,0.5008,0.4711,0.5008,0.5008,0.4711,0.5008,-0.4711,0.4711,-0.5008,-0.4711,-0.5008,0*%
%AMMACRO19*4,1,8,-0.4711,-0.5008,-0.5008,-0.471,-0.5008,0.4711,-0.4711,0.5008,0.4711,0.5008,0.5008,0.4711,0.5008,-0.471,0.4711,-0.5008,-0.4711,-0.5008,0*%
%AMMACRO20*4,1,8,-0.5711,-1.3008,-0.6008,-1.271,-0.6008,1.2711,-0.5711,1.3008,0.571,1.3008,0.6008,1.2711,0.6008,-1.271,0.571,-1.3008,-0.5711,-1.3008,0*%
%AMMACRO21*4,1,8,-1.8211,-1.2208,-1.8508,-1.191,-1.8508,1.1911,-1.8211,1.2208,1.821,1.2208,1.8508,1.1911,1.8508,-1.191,1.821,-1.2208,-1.8211,-1.2208,0*%
%AMMACRO22*4,1,8,-0.5711,-0.351,-0.601,-0.3211,-0.601,0.3211,-0.5711,0.351,0.5711,0.351,0.601,0.3211,0.601,-0.3211,0.5711,-0.351,-0.5711,-0.351,0*%
%AMMACRO23*4,1,8,-1.4211,-0.6008,-1.4508,-0.571,-1.4508,0.5711,-1.4211,0.6008,1.421,0.6008,1.4508,0.5711,1.4508,-0.571,1.421,-0.6008,-1.4211,-0.6008,0*%
%AMMACRO24*4,1,8,-1.0211,-0.9508,-1.0508,-0.921,-1.0508,0.9211,-1.0211,0.9508,1.021,0.9508,1.0508,0.9211,1.0508,-0.921,1.021,-0.9508,-1.0211,-0.9508,0*%
%AMMACRO25*4,1,8,-0.6711,-0.2008,-0.7008,-0.171,-0.7008,0.1711,-0.6711,0.2008,0.671,0.2008,0.7008,0.1711,0.7008,-0.171,0.671,-0.2008,-0.6711,-0.2008,0*%
%ADD10MACRO1*%
%ADD11MACRO2*%
%ADD12MACRO3*%
%ADD13MACRO4*%
%ADD14MACRO5*%
%ADD15MACRO6*%
%ADD16MACRO7*%
%ADD17C,2.0066*%
%ADD18C,0.0187*%
%ADD19C,2.2032*%
%ADD20MACRO8*%
%ADD21MACRO9*%
%ADD22O,6.1976X3.1496*%
%ADD23MACRO10*%
%ADD24MACRO11*%
%ADD25MACRO12*%
%ADD26C,1.8016*%
%ADD27MACRO13*%
%ADD28MACRO14*%
%ADD29MACRO15*%
%ADD30MACRO16*%
%ADD31MACRO17*%
%ADD32MACRO18*%
%ADD33MACRO19*%
%ADD34MACRO20*%
%ADD35MACRO21*%
%ADD36MACRO22*%
%ADD37MACRO23*%
%ADD38MACRO24*%
%ADD39C,2.1016*%
%ADD40MACRO25*%
%ADD41O,1.901596X1.301598*%
%ADD42O,2.101596X1.301598*%

%LPD*%
D10*
G01*
X4857899Y1765300D03*
G01*
X4717900Y1765300D03*
G01*
X4857899Y1257300D03*
G01*
X4717900Y1257300D03*
D11*
G01*
X5054600Y400199D03*
G01*
X5054600Y260200D03*
D10*
G01*
X3397100Y1943100D03*
G01*
X3537099Y1943100D03*
D11*
G01*
X5041900Y1809899D03*
G01*
X5041900Y1669900D03*
G01*
X4203700Y1111399D03*
G01*
X4203700Y971400D03*
D10*
G01*
X4857899Y1422400D03*
G01*
X4717900Y1422400D03*
D12*
G01*
X4620400Y2197100D03*
G01*
X3964799Y2197100D03*
D13*
G01*
X5221000Y1803389D03*
G01*
X5370809Y1803405D03*
D14*
G01*
X5054600Y697624D03*
G01*
X5054600Y546975D03*
D15*
G01*
X3326524Y1574800D03*
G01*
X3175875Y1574800D03*
G01*
X3391775Y1778000D03*
G01*
X3542424Y1778000D03*
G01*
X2196224Y2463800D03*
G01*
X2045575Y2463800D03*
G01*
X4863224Y1587500D03*
G01*
X4712575Y1587500D03*
G01*
X2945524Y279400D03*
G01*
X2794875Y279400D03*
G01*
X2996324Y1574800D03*
G01*
X2845675Y1574800D03*
D16*
G01*
X5372100Y304800D03*
D17*
G01*
X5722620Y304800D03*
D19*
G01*
X2425700Y831494D03*
G01*
X2425700Y1081506D03*
G01*
X2425700Y1331493D03*
D20*
G01*
X2425700Y1581505D03*
D21*
G01*
X1765297Y393700D03*
G01*
X2197097Y393700D03*
D22*
G01*
X2882900Y2425700D03*
G01*
X3530600Y2425700D03*
D21*
G01*
X2070097Y2197100D03*
G01*
X2501897Y2197100D03*
D23*
G01*
X2401897Y292100D03*
G01*
X2601902Y292100D03*
D24*
G01*
X4005997Y749300D03*
G01*
X3106002Y749300D03*
D25*
G01*
X4445000Y1731299D03*
G01*
X4445000Y1291300D03*
G01*
X2239299Y25400D03*
G01*
X1799300Y25400D03*
D26*
G01*
X-508000Y241300D03*
D27*
G01*
X-507998Y495298D03*
D26*
G01*
X-508000Y-12700D03*
G01*
X-228600Y241300D03*
D27*
G01*
X-228598Y495298D03*
D26*
G01*
X-228600Y-12700D03*
G01*
X50800Y241300D03*
D27*
G01*
X50801Y495298D03*
D26*
G01*
X50800Y-12700D03*
G01*
X330200Y241300D03*
D27*
G01*
X330201Y495298D03*
D26*
G01*
X330200Y-12700D03*
G01*
X609600Y241300D03*
D27*
G01*
X609601Y495298D03*
D26*
G01*
X609600Y-12700D03*
G01*
X889000Y241300D03*
D27*
G01*
X889001Y495298D03*
D26*
G01*
X889000Y-12700D03*
G01*
X1168400Y241300D03*
D27*
G01*
X1168401Y495298D03*
D26*
G01*
X1168400Y-12700D03*
G01*
X1447800Y241300D03*
D27*
G01*
X1447801Y495298D03*
D26*
G01*
X1447800Y-12700D03*
D28*
G01*
X101104Y737899D03*
G01*
X228104Y737900D03*
G01*
X355104Y737900D03*
G01*
X482104Y737900D03*
G01*
X609104Y737900D03*
G01*
X736104Y737900D03*
G01*
X863104Y737900D03*
G01*
X990104Y737900D03*
G01*
X1117104Y737900D03*
G01*
X1244104Y737900D03*
G01*
X1371104Y737900D03*
G01*
X1498104Y737900D03*
G01*
X1625104Y737900D03*
G01*
X1752104Y737900D03*
D29*
G01*
X1880105Y914400D03*
G01*
X1880105Y1041400D03*
G01*
X1880105Y1168400D03*
G01*
X1880105Y1295400D03*
G01*
X1880105Y1422400D03*
G01*
X1880105Y1549400D03*
G01*
X1880105Y1676400D03*
G01*
X1880105Y1803400D03*
G01*
X1880105Y1930400D03*
G01*
X1880105Y2057400D03*
G01*
X1880105Y2184400D03*
G01*
X1877100Y2311400D03*
D28*
G01*
X1752104Y2487899D03*
G01*
X1625104Y2487899D03*
G01*
X1498104Y2487899D03*
G01*
X1371104Y2487899D03*
G01*
X1244104Y2487899D03*
G01*
X1117104Y2487899D03*
G01*
X990104Y2487899D03*
G01*
X863104Y2487899D03*
G01*
X736104Y2487899D03*
G01*
X609104Y2487899D03*
G01*
X482104Y2487899D03*
G01*
X355104Y2487899D03*
G01*
X228104Y2487899D03*
G01*
X101104Y2487899D03*
D30*
G01*
X1013114Y1602889D03*
D31*
G01*
X1013124Y1462890D03*
G01*
X1013114Y1322892D03*
G01*
X733115Y1322892D03*
G01*
X733115Y1462890D03*
D30*
G01*
X733115Y1602889D03*
D32*
G01*
X873114Y1602889D03*
D33*
G01*
X873114Y1322891D03*
G01*
X873114Y1462890D03*
D34*
G01*
X4840096Y931993D03*
G01*
X4610100Y931993D03*
G01*
X4380103Y931993D03*
D35*
G01*
X4610100Y337997D03*
D36*
G01*
X3221107Y1949196D03*
G01*
X3221107Y1854200D03*
G01*
X3221107Y1759203D03*
G01*
X2951096Y1759203D03*
G01*
X2951096Y1854200D03*
G01*
X2951096Y1949196D03*
D37*
G01*
X4090352Y1523998D03*
G01*
X3758247Y1523998D03*
D38*
G01*
X2603500Y-50800D03*
D39*
G01*
X2857500Y-50800D03*
G01*
X3111500Y-50800D03*
G01*
X3365500Y-50800D03*
G01*
X3619500Y-50800D03*
G01*
X3873500Y-50800D03*
G01*
X4127500Y-50800D03*
G01*
X4381500Y-50800D03*
G01*
X4635500Y-50800D03*
G01*
X4889500Y-50800D03*
D40*
G01*
X5175486Y1031495D03*
G01*
X5175486Y1081507D03*
G01*
X5175483Y1131495D03*
G01*
X5175486Y1181507D03*
G01*
X5175483Y1231494D03*
G01*
X5175486Y1281507D03*
G01*
X5175486Y1331469D03*
G01*
X5175486Y1381507D03*
G36*
X5110497Y851405D02*
G01*
X5109997Y851430D01*
X5109502Y851504D01*
X5109016Y851623D01*
X5108547Y851794D01*
X5108092Y852007D01*
X5107663Y852263D01*
X5107261Y852563D01*
X5106890Y852898D01*
X5106555Y853269D01*
X5106255Y853671D01*
X5105999Y854100D01*
X5105786Y854555D01*
X5105615Y855024D01*
X5105496Y855510D01*
X5105422Y856005D01*
X5105397Y856505D01*
X5105397Y886203D01*
X5105382Y886503D01*
X5105382Y916503D01*
X5105407Y917003D01*
X5105481Y917498D01*
X5105600Y917983D01*
X5105770Y918453D01*
X5105984Y918908D01*
X5106240Y919337D01*
X5106540Y919739D01*
X5106875Y920109D01*
X5107246Y920445D01*
X5107647Y920744D01*
X5108077Y921001D01*
X5108531Y921214D01*
X5109001Y921385D01*
X5109486Y921504D01*
X5109982Y921578D01*
X5110482Y921603D01*
X5240484Y921603D01*
X5240985Y921578D01*
X5241480Y921504D01*
X5241965Y921385D01*
X5242435Y921214D01*
X5242890Y921001D01*
X5243319Y920744D01*
X5243720Y920445D01*
X5244091Y920109D01*
X5244426Y919739D01*
X5244726Y919337D01*
X5244983Y918908D01*
X5245196Y918453D01*
X5245366Y917983D01*
X5245486Y917498D01*
X5245559Y917003D01*
X5245585Y916503D01*
X5245585Y886805D01*
X5245600Y886505D01*
X5245600Y856505D01*
X5245574Y856005D01*
X5245501Y855510D01*
X5245381Y855024D01*
X5245211Y854555D01*
X5244998Y854100D01*
X5244741Y853671D01*
X5244442Y853269D01*
X5244106Y852898D01*
X5243736Y852563D01*
X5243334Y852263D01*
X5242905Y852007D01*
X5242450Y851794D01*
X5241980Y851623D01*
X5241495Y851504D01*
X5241000Y851430D01*
X5240500Y851405D01*
G37*
G36*
X5110482Y1491399D02*
G01*
X5109982Y1491424D01*
X5109486Y1491498D01*
X5109001Y1491617D01*
X5108531Y1491787D01*
X5108077Y1492001D01*
X5107647Y1492257D01*
X5107246Y1492557D01*
X5106875Y1492892D01*
X5106540Y1493263D01*
X5106240Y1493664D01*
X5105984Y1494094D01*
X5105770Y1494548D01*
X5105600Y1495018D01*
X5105481Y1495503D01*
X5105407Y1495999D01*
X5105382Y1496499D01*
X5105382Y1556501D01*
X5105407Y1557002D01*
X5105481Y1557497D01*
X5105600Y1557982D01*
X5105770Y1558452D01*
X5105984Y1558907D01*
X5106240Y1559336D01*
X5106540Y1559737D01*
X5106875Y1560108D01*
X5107246Y1560443D01*
X5107647Y1560743D01*
X5108077Y1561000D01*
X5108531Y1561213D01*
X5109001Y1561383D01*
X5109486Y1561503D01*
X5109982Y1561576D01*
X5110482Y1561602D01*
X5240479Y1561602D01*
X5240980Y1561576D01*
X5241475Y1561503D01*
X5241960Y1561383D01*
X5242430Y1561213D01*
X5242885Y1561000D01*
X5243314Y1560743D01*
X5243715Y1560443D01*
X5244086Y1560108D01*
X5244421Y1559737D01*
X5244721Y1559336D01*
X5244978Y1558907D01*
X5245191Y1558452D01*
X5245361Y1557982D01*
X5245481Y1557497D01*
X5245554Y1557002D01*
X5245580Y1556501D01*
X5245580Y1496499D01*
X5245554Y1495999D01*
X5245481Y1495503D01*
X5245361Y1495018D01*
X5245191Y1494548D01*
X5244978Y1494094D01*
X5244721Y1493664D01*
X5244421Y1493263D01*
X5244086Y1492892D01*
X5243715Y1492557D01*
X5243314Y1492257D01*
X5242885Y1492001D01*
X5242430Y1491787D01*
X5241960Y1491617D01*
X5241475Y1491498D01*
X5240980Y1491424D01*
X5240479Y1491399D01*
G37*
G36*
X5110482Y1411414D02*
G01*
X5109982Y1411439D01*
X5109486Y1411513D01*
X5109001Y1411632D01*
X5108531Y1411803D01*
X5108077Y1412016D01*
X5107647Y1412273D01*
X5107246Y1412572D01*
X5106875Y1412908D01*
X5106540Y1413278D01*
X5106240Y1413680D01*
X5105984Y1414109D01*
X5105770Y1414564D01*
X5105600Y1415034D01*
X5105481Y1415519D01*
X5105407Y1416014D01*
X5105382Y1416514D01*
X5105382Y1476517D01*
X5105407Y1477017D01*
X5105481Y1477512D01*
X5105600Y1477998D01*
X5105770Y1478467D01*
X5105984Y1478922D01*
X5106240Y1479351D01*
X5106540Y1479753D01*
X5106875Y1480124D01*
X5107246Y1480459D01*
X5107647Y1480759D01*
X5108077Y1481015D01*
X5108531Y1481228D01*
X5109001Y1481399D01*
X5109486Y1481518D01*
X5109982Y1481592D01*
X5110482Y1481617D01*
X5240479Y1481617D01*
X5240980Y1481592D01*
X5241475Y1481518D01*
X5241960Y1481399D01*
X5242430Y1481228D01*
X5242885Y1481015D01*
X5243314Y1480759D01*
X5243715Y1480459D01*
X5244086Y1480124D01*
X5244421Y1479753D01*
X5244721Y1479351D01*
X5244978Y1478922D01*
X5245191Y1478467D01*
X5245361Y1477998D01*
X5245481Y1477512D01*
X5245554Y1477017D01*
X5245580Y1476517D01*
X5245580Y1416514D01*
X5245554Y1416014D01*
X5245481Y1415519D01*
X5245361Y1415034D01*
X5245191Y1414564D01*
X5244978Y1414109D01*
X5244721Y1413680D01*
X5244421Y1413278D01*
X5244086Y1412908D01*
X5243715Y1412572D01*
X5243314Y1412273D01*
X5242885Y1412016D01*
X5242430Y1411803D01*
X5241960Y1411632D01*
X5241475Y1411513D01*
X5240980Y1411439D01*
X5240479Y1411414D01*
G37*
G36*
X5110500Y931405D02*
G01*
X5109999Y931430D01*
X5109504Y931504D01*
X5109019Y931623D01*
X5108549Y931793D01*
X5108094Y932007D01*
X5107665Y932263D01*
X5107264Y932563D01*
X5106893Y932898D01*
X5106558Y933269D01*
X5106258Y933670D01*
X5106001Y934100D01*
X5105788Y934554D01*
X5105618Y935024D01*
X5105499Y935509D01*
X5105425Y936005D01*
X5105400Y936505D01*
X5105400Y966449D01*
X5105397Y966500D01*
X5105397Y996502D01*
X5105422Y997003D01*
X5105496Y997498D01*
X5105615Y997983D01*
X5105786Y998453D01*
X5105999Y998908D01*
X5106255Y999337D01*
X5106555Y999738D01*
X5106890Y1000109D01*
X5107261Y1000445D01*
X5107663Y1000744D01*
X5108092Y1001001D01*
X5108547Y1001214D01*
X5109016Y1001384D01*
X5109502Y1001504D01*
X5109997Y1001577D01*
X5110497Y1001603D01*
X5240494Y1001603D01*
X5240995Y1001577D01*
X5241490Y1001504D01*
X5241975Y1001384D01*
X5242445Y1001214D01*
X5242900Y1001001D01*
X5243329Y1000744D01*
X5243730Y1000445D01*
X5244101Y1000109D01*
X5244437Y999738D01*
X5244736Y999337D01*
X5244993Y998908D01*
X5245206Y998453D01*
X5245376Y997983D01*
X5245496Y997498D01*
X5245569Y997003D01*
X5245595Y996502D01*
X5245595Y966558D01*
X5245597Y966508D01*
X5245597Y936505D01*
X5245572Y936005D01*
X5245498Y935509D01*
X5245379Y935024D01*
X5245209Y934554D01*
X5244995Y934100D01*
X5244739Y933670D01*
X5244439Y933269D01*
X5244104Y932898D01*
X5243733Y932563D01*
X5243332Y932263D01*
X5242902Y932007D01*
X5242448Y931793D01*
X5241978Y931623D01*
X5241493Y931504D01*
X5240997Y931430D01*
X5240497Y931405D01*
G37*
D41*
G01*
X5670321Y1639011D03*
D42*
G01*
X5252338Y1639011D03*
G01*
X5252338Y773988D03*
D41*
G01*
X5670321Y773988D03*
M02*
