G04 Layer: TopSilkscreenLayer*
G04 EasyEDA v6.5.54, 2026-02-14 17:41:48*
G04 915fe7b8967649e7a1646cd930db55b3,2a1063a80a8d4ca1b7931a6248fd9ac1,10*
G04 Gerber Generator version 0.2*
G04 Scale: 100 percent, Rotated: No, Reflected: No *
G04 Dimensions in millimeters *
G04 leading zeros omitted , absolute positions ,4 integer and 5 decimal *
%FSLAX45Y45*%
%MOMM*%

%ADD10C,0.2032*%
%ADD11C,0.1524*%
%ADD12C,0.2540*%
%ADD13C,0.1500*%
%ADD14C,0.1520*%
%ADD15C,0.0174*%
%ADD16C,0.1200*%

%LPD*%
G36*
X5618988Y2347518D02*
G01*
X5611926Y2347417D01*
X5603138Y2346858D01*
X5600090Y2344826D01*
X5598058Y2341524D01*
X5598617Y2339035D01*
X5600649Y2334056D01*
X5605018Y2328672D01*
X5607202Y2323388D01*
X5607862Y2319477D01*
X5609539Y2315210D01*
X5612841Y2311196D01*
X5614822Y2306675D01*
X5616143Y2297684D01*
X5617870Y2293874D01*
X5620410Y2291791D01*
X5621782Y2288235D01*
X5623102Y2278481D01*
X5623661Y2269845D01*
X5625338Y2262327D01*
X5628386Y2257450D01*
X5629656Y2253488D01*
X5630621Y2241651D01*
X5630621Y2203399D01*
X5629656Y2191613D01*
X5628386Y2187651D01*
X5625388Y2182723D01*
X5623610Y2172970D01*
X5622696Y2161743D01*
X5622696Y2156815D01*
X5620867Y2153005D01*
X5616194Y2148078D01*
X5615228Y2140712D01*
X5612993Y2130501D01*
X5608421Y2125573D01*
X5607202Y2121204D01*
X5605119Y2116531D01*
X5600649Y2111044D01*
X5598617Y2106066D01*
X5598058Y2103577D01*
X5600090Y2100224D01*
X5603443Y2098141D01*
X5618073Y2097532D01*
X5629656Y2098294D01*
X5632805Y2100681D01*
X5634685Y2104847D01*
X5636818Y2106523D01*
X5639460Y2109012D01*
X5642254Y2115312D01*
X5646521Y2118868D01*
X5648096Y2121611D01*
X5650026Y2130450D01*
X5651398Y2132888D01*
X5654344Y2135682D01*
X5656072Y2139391D01*
X5657088Y2148535D01*
X5659120Y2154631D01*
X5662218Y2159152D01*
X5663996Y2164384D01*
X5665825Y2191969D01*
X5667400Y2196541D01*
X5669686Y2199944D01*
X5669686Y2244852D01*
X5667146Y2247544D01*
X5665165Y2252573D01*
X5664504Y2273604D01*
X5663641Y2280462D01*
X5661660Y2284831D01*
X5658866Y2288336D01*
X5656986Y2297023D01*
X5655564Y2306320D01*
X5650433Y2311857D01*
X5649163Y2314600D01*
X5648147Y2321458D01*
X5647283Y2324455D01*
X5642152Y2329789D01*
X5639460Y2336190D01*
X5634685Y2340203D01*
X5632805Y2344420D01*
X5629605Y2346807D01*
G37*
G36*
X4821326Y2347468D02*
G01*
X4811217Y2346807D01*
X4808118Y2345029D01*
X4803038Y2339543D01*
X4801412Y2336088D01*
X4800396Y2331923D01*
X4797755Y2328570D01*
X4794910Y2326640D01*
X4793081Y2322931D01*
X4791506Y2314143D01*
X4786934Y2309215D01*
X4785563Y2306777D01*
X4784496Y2297023D01*
X4782464Y2292451D01*
X4779772Y2290368D01*
X4778552Y2287676D01*
X4777181Y2278938D01*
X4776622Y2262327D01*
X4774844Y2257094D01*
X4771999Y2253538D01*
X4771593Y2243785D01*
X4769713Y2234488D01*
X4769713Y2208530D01*
X4771644Y2200808D01*
X4771948Y2191054D01*
X4774234Y2187752D01*
X4775758Y2183231D01*
X4776673Y2173935D01*
X4777232Y2164181D01*
X4778502Y2157526D01*
X4779772Y2154732D01*
X4782464Y2152599D01*
X4784547Y2148078D01*
X4785156Y2139238D01*
X4786884Y2134158D01*
X4790287Y2130907D01*
X4793996Y2119223D01*
X4799025Y2113838D01*
X4801819Y2107031D01*
X4807712Y2100376D01*
X4811217Y2098344D01*
X4823510Y2097481D01*
X4837125Y2098090D01*
X4840020Y2099614D01*
X4842154Y2102713D01*
X4842154Y2105355D01*
X4840427Y2109114D01*
X4836668Y2112568D01*
X4833721Y2122678D01*
X4831638Y2126284D01*
X4829149Y2127707D01*
X4827676Y2130958D01*
X4825847Y2141524D01*
X4824526Y2145030D01*
X4821123Y2149551D01*
X4818989Y2155850D01*
X4818380Y2164638D01*
X4817110Y2173122D01*
X4815789Y2177338D01*
X4813147Y2181860D01*
X4811014Y2192528D01*
X4811014Y2252573D01*
X4813147Y2263190D01*
X4815789Y2267762D01*
X4817211Y2272131D01*
X4818380Y2278481D01*
X4818989Y2288743D01*
X4821174Y2294229D01*
X4824222Y2297480D01*
X4828743Y2315057D01*
X4830876Y2317038D01*
X4832959Y2319477D01*
X4836922Y2330805D01*
X4840071Y2334158D01*
X4841646Y2337562D01*
X4842560Y2341372D01*
X4841646Y2343454D01*
X4839766Y2345740D01*
X4837582Y2346960D01*
G37*
G36*
X5011724Y2321712D02*
G01*
X5010607Y2321661D01*
X5008372Y2320137D01*
X5006289Y2316683D01*
X5005578Y2303881D01*
X5006086Y2288743D01*
X5007457Y2285492D01*
X5010200Y2283256D01*
X5017109Y2280513D01*
X5021834Y2276246D01*
X5025136Y2274874D01*
X5035092Y2271674D01*
X5039055Y2267051D01*
X5042255Y2265629D01*
X5051450Y2263851D01*
X5055870Y2258822D01*
X5058054Y2257247D01*
X5066842Y2255164D01*
X5069027Y2253640D01*
X5071567Y2250338D01*
X5074869Y2248458D01*
X5082794Y2247341D01*
X5085283Y2244445D01*
X5082540Y2241702D01*
X5074767Y2240991D01*
X5070144Y2239111D01*
X5067147Y2235149D01*
X5059832Y2232761D01*
X5054295Y2231796D01*
X5049469Y2229815D01*
X5047132Y2226360D01*
X5043119Y2224125D01*
X5034432Y2223008D01*
X5030825Y2221179D01*
X5027320Y2217369D01*
X5011521Y2212340D01*
X5008321Y2208631D01*
X5006543Y2204720D01*
X5005578Y2199538D01*
X5005578Y2184196D01*
X5006746Y2174341D01*
X5008422Y2171192D01*
X5011267Y2169210D01*
X5013147Y2169871D01*
X5018633Y2175967D01*
X5027777Y2177694D01*
X5031282Y2179421D01*
X5034838Y2183739D01*
X5050028Y2188413D01*
X5053685Y2192121D01*
X5058054Y2194560D01*
X5066842Y2196287D01*
X5071821Y2201976D01*
X5074310Y2203348D01*
X5083048Y2204516D01*
X5085943Y2206498D01*
X5088585Y2210206D01*
X5091023Y2211273D01*
X5100015Y2213254D01*
X5102504Y2214676D01*
X5105298Y2217826D01*
X5105298Y2218588D01*
X5111191Y2220569D01*
X5118963Y2222550D01*
X5121757Y2224125D01*
X5125516Y2227935D01*
X5132882Y2231847D01*
X5134457Y2234488D01*
X5135067Y2243277D01*
X5134203Y2253081D01*
X5132120Y2256637D01*
X5128361Y2258618D01*
X5121300Y2260396D01*
X5116322Y2266035D01*
X5113426Y2267356D01*
X5105552Y2269134D01*
X5100523Y2274824D01*
X5097576Y2276144D01*
X5089702Y2277922D01*
X5084673Y2283612D01*
X5081778Y2284933D01*
X5073904Y2286711D01*
X5068874Y2292400D01*
X5065979Y2293721D01*
X5058105Y2295499D01*
X5053076Y2301189D01*
X5050129Y2302510D01*
X5042306Y2304288D01*
X5037226Y2309977D01*
X5034330Y2311298D01*
X5026456Y2313127D01*
X5022037Y2318156D01*
X5019852Y2319680D01*
G37*
G36*
X5431129Y2321204D02*
G01*
X5427472Y2321102D01*
X5420817Y2319883D01*
X5418175Y2318359D01*
X5415381Y2315159D01*
X5415381Y2314397D01*
X5406390Y2311400D01*
X5402884Y2309977D01*
X5400497Y2307539D01*
X5399227Y2305456D01*
X5388051Y2301697D01*
X5385206Y2299563D01*
X5383530Y2296769D01*
X5374741Y2293823D01*
X5371236Y2292400D01*
X5368899Y2289962D01*
X5367578Y2287879D01*
X5356402Y2284120D01*
X5353558Y2281986D01*
X5351932Y2279192D01*
X5343144Y2276246D01*
X5339638Y2274824D01*
X5337251Y2272385D01*
X5335981Y2270302D01*
X5324805Y2266543D01*
X5321960Y2264359D01*
X5320284Y2261616D01*
X5310530Y2258212D01*
X5308193Y2256180D01*
X5306872Y2253335D01*
X5306212Y2244293D01*
X5306669Y2234336D01*
X5308498Y2231593D01*
X5315204Y2227681D01*
X5318404Y2223516D01*
X5320080Y2222500D01*
X5328767Y2220671D01*
X5333034Y2218232D01*
X5335219Y2215591D01*
X5338470Y2213762D01*
X5347512Y2211374D01*
X5351576Y2209952D01*
X5354980Y2205786D01*
X5358485Y2204110D01*
X5367731Y2202332D01*
X5372100Y2197252D01*
X5374335Y2195728D01*
X5383123Y2194560D01*
X5385562Y2193188D01*
X5390591Y2187498D01*
X5399328Y2185771D01*
X5403748Y2183333D01*
X5407406Y2179624D01*
X5422646Y2174951D01*
X5425694Y2171852D01*
X5429402Y2169769D01*
X5430774Y2169769D01*
X5432958Y2171344D01*
X5434634Y2174443D01*
X5435650Y2185670D01*
X5435346Y2201773D01*
X5433415Y2205837D01*
X5430672Y2208123D01*
X5426659Y2212746D01*
X5422036Y2214676D01*
X5414264Y2216302D01*
X5411673Y2217775D01*
X5409590Y2220620D01*
X5406339Y2222449D01*
X5397144Y2224430D01*
X5392318Y2226513D01*
X5388305Y2230272D01*
X5385104Y2231745D01*
X5375656Y2233828D01*
X5372557Y2235352D01*
X5370068Y2238705D01*
X5366766Y2240534D01*
X5358942Y2241702D01*
X5356098Y2244090D01*
X5356098Y2245258D01*
X5359755Y2247950D01*
X5361482Y2247950D01*
X5367274Y2249017D01*
X5372252Y2254707D01*
X5374741Y2256129D01*
X5381345Y2257348D01*
X5384088Y2258568D01*
X5387390Y2262987D01*
X5390591Y2264918D01*
X5399328Y2266035D01*
X5401564Y2267610D01*
X5405932Y2272639D01*
X5413857Y2274468D01*
X5418378Y2276297D01*
X5421731Y2280158D01*
X5427472Y2282240D01*
X5432907Y2285085D01*
X5434736Y2288387D01*
X5435549Y2298496D01*
X5435549Y2314600D01*
X5433974Y2318562D01*
G37*
G36*
X5169611Y2321052D02*
G01*
X5160772Y2320493D01*
X5157673Y2317851D01*
X5156250Y2314448D01*
X5156250Y2236114D01*
X5157673Y2232761D01*
X5160721Y2230170D01*
X5174030Y2229256D01*
X5184140Y2230424D01*
X5187848Y2232355D01*
X5189626Y2235606D01*
X5189626Y2288387D01*
X5192318Y2290927D01*
X5249214Y2290927D01*
X5251246Y2288489D01*
X5250738Y2243277D01*
X5248910Y2237486D01*
X5247640Y2235962D01*
X5245455Y2230577D01*
X5244033Y2222957D01*
X5243169Y2209596D01*
X5241391Y2205634D01*
X5237480Y2201976D01*
X5236260Y2199335D01*
X5234279Y2191359D01*
X5228742Y2185822D01*
X5227777Y2182571D01*
X5224475Y2179320D01*
X5221630Y2177643D01*
X5220157Y2174443D01*
X5217312Y2171344D01*
X5212892Y2169718D01*
X5208727Y2164486D01*
X5198313Y2161082D01*
X5195468Y2158898D01*
X5193792Y2156155D01*
X5185867Y2153107D01*
X5182311Y2150821D01*
X5180685Y2147468D01*
X5182616Y2143963D01*
X5185918Y2141067D01*
X5189016Y2133396D01*
X5194909Y2127046D01*
X5196840Y2125827D01*
X5201158Y2124405D01*
X5209489Y2125370D01*
X5212435Y2127351D01*
X5215026Y2131009D01*
X5217058Y2132076D01*
X5224983Y2134717D01*
X5230418Y2140864D01*
X5236057Y2143810D01*
X5240070Y2149602D01*
X5245150Y2151684D01*
X5252567Y2159762D01*
X5254599Y2164638D01*
X5254599Y2165807D01*
X5259933Y2170430D01*
X5262676Y2176830D01*
X5267401Y2181758D01*
X5268264Y2183485D01*
X5269941Y2193137D01*
X5272125Y2197862D01*
X5274868Y2200757D01*
X5276900Y2208123D01*
X5277510Y2218385D01*
X5279796Y2228646D01*
X5283149Y2237486D01*
X5284419Y2243785D01*
X5285079Y2270150D01*
X5285130Y2315667D01*
X5282793Y2319121D01*
X5279440Y2320950D01*
G37*
G36*
X4948275Y2180590D02*
G01*
X4944567Y2178659D01*
X4943195Y2176272D01*
X4940554Y2166975D01*
X4939233Y2165756D01*
X4937150Y2158288D01*
X4935778Y2149043D01*
X4934864Y2137308D01*
X4934864Y2130399D01*
X4932680Y2123236D01*
X4931410Y2121662D01*
X4929124Y2116226D01*
X4928616Y2111908D01*
X4931714Y2108606D01*
X4937709Y2106676D01*
X4954320Y2106168D01*
X4958842Y2107285D01*
X4962093Y2110282D01*
X4963515Y2113381D01*
X4966868Y2116582D01*
X4968595Y2121662D01*
X4969205Y2129993D01*
X4970932Y2133803D01*
X4975606Y2138781D01*
X4977942Y2156358D01*
X4979314Y2159914D01*
X4981854Y2161997D01*
X4983530Y2165654D01*
X4984343Y2174341D01*
X4982514Y2177288D01*
X4980127Y2179218D01*
X4975910Y2180082D01*
G37*
G36*
X5541213Y2180590D02*
G01*
X5537555Y2178659D01*
X5536133Y2176272D01*
X5533542Y2166975D01*
X5532221Y2165756D01*
X5530138Y2158288D01*
X5528716Y2149043D01*
X5527852Y2137308D01*
X5527852Y2130399D01*
X5525617Y2123236D01*
X5524347Y2121662D01*
X5522112Y2116226D01*
X5521604Y2111908D01*
X5524703Y2108606D01*
X5530697Y2106676D01*
X5547309Y2106168D01*
X5551830Y2107285D01*
X5555081Y2110282D01*
X5556504Y2113381D01*
X5559856Y2116582D01*
X5561533Y2121662D01*
X5562142Y2129993D01*
X5563920Y2133803D01*
X5568543Y2138781D01*
X5570931Y2156358D01*
X5572302Y2159914D01*
X5574842Y2161997D01*
X5576519Y2165654D01*
X5577281Y2174341D01*
X5575503Y2177288D01*
X5573115Y2179218D01*
X5568899Y2180082D01*
G37*
G36*
X4877104Y2180488D02*
G01*
X4872685Y2179269D01*
X4869180Y2177186D01*
X4866386Y2173935D01*
X4864608Y2164181D01*
X4863642Y2139746D01*
X4861864Y2132888D01*
X4858867Y2128012D01*
X4857089Y2122881D01*
X4856175Y2113483D01*
X4856632Y2111349D01*
X4858512Y2108708D01*
X4861052Y2107234D01*
X4872685Y2106218D01*
X4885944Y2107082D01*
X4888585Y2109165D01*
X4892192Y2117394D01*
X4894986Y2119630D01*
X4896561Y2123643D01*
X4897932Y2131466D01*
X4900066Y2139645D01*
X4902758Y2142693D01*
X4904943Y2148078D01*
X4905908Y2157526D01*
X4908092Y2166467D01*
X4911090Y2172004D01*
X4911648Y2174697D01*
X4908448Y2178050D01*
X4902555Y2180234D01*
G37*
G36*
X5470093Y2180488D02*
G01*
X5465673Y2179269D01*
X5462168Y2177186D01*
X5459374Y2173935D01*
X5457596Y2164181D01*
X5456580Y2139746D01*
X5454853Y2132888D01*
X5451856Y2128012D01*
X5450078Y2122881D01*
X5449163Y2113483D01*
X5449620Y2111349D01*
X5451500Y2108708D01*
X5454040Y2107234D01*
X5465673Y2106218D01*
X5478881Y2107082D01*
X5481574Y2109165D01*
X5485130Y2117394D01*
X5487974Y2119630D01*
X5489549Y2123643D01*
X5490870Y2131466D01*
X5493054Y2139645D01*
X5495696Y2142693D01*
X5497880Y2148078D01*
X5498896Y2157526D01*
X5501030Y2166467D01*
X5504078Y2172004D01*
X5504637Y2174697D01*
X5501436Y2178050D01*
X5495544Y2180234D01*
G37*
D10*
X-523747Y-175768D02*
G01*
X-530605Y-168910D01*
X-540765Y-165607D01*
X-554481Y-165607D01*
X-564642Y-168910D01*
X-571500Y-175768D01*
X-571500Y-182626D01*
X-568197Y-189484D01*
X-564642Y-192786D01*
X-557784Y-196342D01*
X-537463Y-203200D01*
X-530605Y-206502D01*
X-527304Y-210057D01*
X-523747Y-216662D01*
X-523747Y-227076D01*
X-530605Y-233679D01*
X-540765Y-237236D01*
X-554481Y-237236D01*
X-564642Y-233679D01*
X-571500Y-227076D01*
X-480821Y-165607D02*
G01*
X-490981Y-168910D01*
X-497839Y-179323D01*
X-501395Y-196342D01*
X-501395Y-206502D01*
X-497839Y-223520D01*
X-490981Y-233679D01*
X-480821Y-237236D01*
X-473963Y-237236D01*
X-463804Y-233679D01*
X-456945Y-223520D01*
X-453644Y-206502D01*
X-453644Y-196342D01*
X-456945Y-179323D01*
X-463804Y-168910D01*
X-473963Y-165607D01*
X-480821Y-165607D01*
X-218947Y-175768D02*
G01*
X-225805Y-168910D01*
X-235965Y-165607D01*
X-249681Y-165607D01*
X-259842Y-168910D01*
X-266700Y-175768D01*
X-266700Y-182626D01*
X-263397Y-189484D01*
X-259842Y-192786D01*
X-252984Y-196342D01*
X-232663Y-203200D01*
X-225805Y-206502D01*
X-222504Y-210057D01*
X-218947Y-216662D01*
X-218947Y-227076D01*
X-225805Y-233679D01*
X-235965Y-237236D01*
X-249681Y-237236D01*
X-259842Y-233679D01*
X-266700Y-227076D01*
X-196595Y-179323D02*
G01*
X-189737Y-175768D01*
X-179323Y-165607D01*
X-179323Y-237236D01*
X35052Y-175768D02*
G01*
X28194Y-168910D01*
X18034Y-165607D01*
X4318Y-165607D01*
X-5842Y-168910D01*
X-12700Y-175768D01*
X-12700Y-182626D01*
X-9397Y-189484D01*
X-5842Y-192786D01*
X1015Y-196342D01*
X21336Y-203200D01*
X28194Y-206502D01*
X31495Y-210057D01*
X35052Y-216662D01*
X35052Y-227076D01*
X28194Y-233679D01*
X18034Y-237236D01*
X4318Y-237236D01*
X-5842Y-233679D01*
X-12700Y-227076D01*
X60960Y-182626D02*
G01*
X60960Y-179323D01*
X64262Y-172465D01*
X67818Y-168910D01*
X74676Y-165607D01*
X88137Y-165607D01*
X94995Y-168910D01*
X98552Y-172465D01*
X101854Y-179323D01*
X101854Y-186181D01*
X98552Y-192786D01*
X91694Y-203200D01*
X57404Y-237236D01*
X105155Y-237236D01*
X314452Y-175768D02*
G01*
X307594Y-168910D01*
X297434Y-165607D01*
X283718Y-165607D01*
X273557Y-168910D01*
X266700Y-175768D01*
X266700Y-182626D01*
X270002Y-189484D01*
X273557Y-192786D01*
X280415Y-196342D01*
X300736Y-203200D01*
X307594Y-206502D01*
X310895Y-210057D01*
X314452Y-216662D01*
X314452Y-227076D01*
X307594Y-233679D01*
X297434Y-237236D01*
X283718Y-237236D01*
X273557Y-233679D01*
X266700Y-227076D01*
X343662Y-165607D02*
G01*
X381254Y-165607D01*
X360679Y-192786D01*
X371094Y-192786D01*
X377952Y-196342D01*
X381254Y-199644D01*
X384555Y-210057D01*
X384555Y-216662D01*
X381254Y-227076D01*
X374395Y-233679D01*
X364236Y-237236D01*
X354076Y-237236D01*
X343662Y-233679D01*
X340360Y-230378D01*
X336804Y-223520D01*
X593852Y-175768D02*
G01*
X586994Y-168910D01*
X576834Y-165607D01*
X563118Y-165607D01*
X552957Y-168910D01*
X546100Y-175768D01*
X546100Y-182626D01*
X549402Y-189484D01*
X552957Y-192786D01*
X559815Y-196342D01*
X580136Y-203200D01*
X586994Y-206502D01*
X590295Y-210057D01*
X593852Y-216662D01*
X593852Y-227076D01*
X586994Y-233679D01*
X576834Y-237236D01*
X563118Y-237236D01*
X552957Y-233679D01*
X546100Y-227076D01*
X650494Y-165607D02*
G01*
X616204Y-213360D01*
X667512Y-213360D01*
X650494Y-165607D02*
G01*
X650494Y-237236D01*
X873252Y-175768D02*
G01*
X866394Y-168910D01*
X856234Y-165607D01*
X842518Y-165607D01*
X832357Y-168910D01*
X825500Y-175768D01*
X825500Y-182626D01*
X828802Y-189484D01*
X832357Y-192786D01*
X839215Y-196342D01*
X859536Y-203200D01*
X866394Y-206502D01*
X869695Y-210057D01*
X873252Y-216662D01*
X873252Y-227076D01*
X866394Y-233679D01*
X856234Y-237236D01*
X842518Y-237236D01*
X832357Y-233679D01*
X825500Y-227076D01*
X936752Y-165607D02*
G01*
X902462Y-165607D01*
X899160Y-196342D01*
X902462Y-192786D01*
X912876Y-189484D01*
X923036Y-189484D01*
X933195Y-192786D01*
X940054Y-199644D01*
X943355Y-210057D01*
X943355Y-216662D01*
X940054Y-227076D01*
X933195Y-233679D01*
X923036Y-237236D01*
X912876Y-237236D01*
X902462Y-233679D01*
X899160Y-230378D01*
X895604Y-223520D01*
X1152652Y-175768D02*
G01*
X1145794Y-168910D01*
X1135634Y-165607D01*
X1121918Y-165607D01*
X1111757Y-168910D01*
X1104900Y-175768D01*
X1104900Y-182626D01*
X1108202Y-189484D01*
X1111757Y-192786D01*
X1118615Y-196342D01*
X1138936Y-203200D01*
X1145794Y-206502D01*
X1149095Y-210057D01*
X1152652Y-216662D01*
X1152652Y-227076D01*
X1145794Y-233679D01*
X1135634Y-237236D01*
X1121918Y-237236D01*
X1111757Y-233679D01*
X1104900Y-227076D01*
X1216152Y-175768D02*
G01*
X1212595Y-168910D01*
X1202436Y-165607D01*
X1195578Y-165607D01*
X1185418Y-168910D01*
X1178560Y-179323D01*
X1175004Y-196342D01*
X1175004Y-213360D01*
X1178560Y-227076D01*
X1185418Y-233679D01*
X1195578Y-237236D01*
X1198879Y-237236D01*
X1209294Y-233679D01*
X1216152Y-227076D01*
X1219454Y-216662D01*
X1219454Y-213360D01*
X1216152Y-203200D01*
X1209294Y-196342D01*
X1198879Y-192786D01*
X1195578Y-192786D01*
X1185418Y-196342D01*
X1178560Y-203200D01*
X1175004Y-213360D01*
X1432052Y-175768D02*
G01*
X1425194Y-168910D01*
X1415034Y-165607D01*
X1401318Y-165607D01*
X1391157Y-168910D01*
X1384300Y-175768D01*
X1384300Y-182626D01*
X1387602Y-189484D01*
X1391157Y-192786D01*
X1398015Y-196342D01*
X1418336Y-203200D01*
X1425194Y-206502D01*
X1428495Y-210057D01*
X1432052Y-216662D01*
X1432052Y-227076D01*
X1425194Y-233679D01*
X1415034Y-237236D01*
X1401318Y-237236D01*
X1391157Y-233679D01*
X1384300Y-227076D01*
X1502155Y-165607D02*
G01*
X1468120Y-237236D01*
X1454404Y-165607D02*
G01*
X1502155Y-165607D01*
X1605026Y444754D02*
G01*
X1598168Y441452D01*
X1591310Y434594D01*
X1588007Y427736D01*
X1588007Y414273D01*
X1591310Y407415D01*
X1598168Y400557D01*
X1605026Y397002D01*
X1615186Y393700D01*
X1632457Y393700D01*
X1642618Y397002D01*
X1649476Y400557D01*
X1656079Y407415D01*
X1659636Y414273D01*
X1659636Y427736D01*
X1656079Y434594D01*
X1649476Y441452D01*
X1642618Y444754D01*
X1632457Y444754D01*
X1632457Y427736D02*
G01*
X1632457Y444754D01*
X1588007Y467360D02*
G01*
X1659636Y467360D01*
X1588007Y467360D02*
G01*
X1659636Y515112D01*
X1588007Y515112D02*
G01*
X1659636Y515112D01*
X1588007Y537463D02*
G01*
X1659636Y537463D01*
X1588007Y537463D02*
G01*
X1588007Y561339D01*
X1591310Y571754D01*
X1598168Y578357D01*
X1605026Y581913D01*
X1615186Y585215D01*
X1632457Y585215D01*
X1642618Y581913D01*
X1649476Y578357D01*
X1656079Y571754D01*
X1659636Y561339D01*
X1659636Y537463D01*
X1588007Y231394D02*
G01*
X1588007Y197357D01*
X1618742Y193802D01*
X1615186Y197357D01*
X1611884Y207518D01*
X1611884Y217678D01*
X1615186Y228092D01*
X1622044Y234695D01*
X1632457Y238252D01*
X1639062Y238252D01*
X1649476Y234695D01*
X1656079Y228092D01*
X1659636Y217678D01*
X1659636Y207518D01*
X1656079Y197357D01*
X1652778Y193802D01*
X1645920Y190500D01*
X1588007Y260604D02*
G01*
X1659636Y288036D01*
X1588007Y315213D02*
G01*
X1659636Y288036D01*
X1588007Y-88900D02*
G01*
X1659636Y-88900D01*
X1588007Y-88900D02*
G01*
X1588007Y-65023D01*
X1591310Y-54863D01*
X1598168Y-48005D01*
X1605026Y-44704D01*
X1615186Y-41147D01*
X1632457Y-41147D01*
X1642618Y-44704D01*
X1649476Y-48005D01*
X1656079Y-54863D01*
X1659636Y-65023D01*
X1659636Y-88900D01*
X1588007Y5079D02*
G01*
X1659636Y5079D01*
X1588007Y-18795D02*
G01*
X1588007Y28955D01*
X1588007Y78739D02*
G01*
X1659636Y51562D01*
X1588007Y78739D02*
G01*
X1659636Y106171D01*
X1635760Y61721D02*
G01*
X1635760Y95757D01*
X4854359Y2437559D02*
G01*
X4849025Y2443147D01*
X4840897Y2445687D01*
X4829975Y2445687D01*
X4821593Y2443147D01*
X4816259Y2437559D01*
X4816259Y2432225D01*
X4819053Y2426637D01*
X4821593Y2423843D01*
X4827181Y2421303D01*
X4843437Y2415715D01*
X4849025Y2413175D01*
X4851819Y2410381D01*
X4854359Y2404793D01*
X4854359Y2396665D01*
X4849025Y2391331D01*
X4840897Y2388537D01*
X4829975Y2388537D01*
X4821593Y2391331D01*
X4816259Y2396665D01*
X4872393Y2445687D02*
G01*
X4872393Y2388537D01*
X4872393Y2445687D02*
G01*
X4907953Y2445687D01*
X4872393Y2418509D02*
G01*
X4894237Y2418509D01*
X4872393Y2388537D02*
G01*
X4907953Y2388537D01*
X4964087Y2437559D02*
G01*
X4958499Y2443147D01*
X4950371Y2445687D01*
X4939449Y2445687D01*
X4931321Y2443147D01*
X4925987Y2437559D01*
X4925987Y2432225D01*
X4928527Y2426637D01*
X4931321Y2423843D01*
X4936909Y2421303D01*
X4953165Y2415715D01*
X4958499Y2413175D01*
X4961293Y2410381D01*
X4964087Y2404793D01*
X4964087Y2396665D01*
X4958499Y2391331D01*
X4950371Y2388537D01*
X4939449Y2388537D01*
X4931321Y2391331D01*
X4925987Y2396665D01*
X5003965Y2445687D02*
G01*
X4982121Y2388537D01*
X5003965Y2445687D02*
G01*
X5025809Y2388537D01*
X4990249Y2407587D02*
G01*
X5017427Y2407587D01*
X5043589Y2445687D02*
G01*
X5043589Y2388537D01*
X5043589Y2445687D02*
G01*
X5065433Y2388537D01*
X5087277Y2445687D02*
G01*
X5065433Y2388537D01*
X5087277Y2445687D02*
G01*
X5087277Y2388537D01*
X5105311Y2445687D02*
G01*
X5105311Y2388537D01*
X5105311Y2445687D02*
G01*
X5140871Y2445687D01*
X5105311Y2418509D02*
G01*
X5127155Y2418509D01*
X5105311Y2388537D02*
G01*
X5140871Y2388537D01*
X5200815Y2445687D02*
G01*
X5200815Y2388537D01*
X5200815Y2445687D02*
G01*
X5219865Y2445687D01*
X5227993Y2443147D01*
X5233581Y2437559D01*
X5236375Y2432225D01*
X5238915Y2423843D01*
X5238915Y2410381D01*
X5236375Y2402253D01*
X5233581Y2396665D01*
X5227993Y2391331D01*
X5219865Y2388537D01*
X5200815Y2388537D01*
X5256949Y2445687D02*
G01*
X5256949Y2388537D01*
X5313083Y2437559D02*
G01*
X5307749Y2443147D01*
X5299621Y2445687D01*
X5288699Y2445687D01*
X5280317Y2443147D01*
X5274983Y2437559D01*
X5274983Y2432225D01*
X5277777Y2426637D01*
X5280317Y2423843D01*
X5285905Y2421303D01*
X5302161Y2415715D01*
X5307749Y2413175D01*
X5310543Y2410381D01*
X5313083Y2404793D01*
X5313083Y2396665D01*
X5307749Y2391331D01*
X5299621Y2388537D01*
X5288699Y2388537D01*
X5280317Y2391331D01*
X5274983Y2396665D01*
X5350167Y2445687D02*
G01*
X5350167Y2388537D01*
X5331117Y2445687D02*
G01*
X5369471Y2445687D01*
X5387251Y2445687D02*
G01*
X5387251Y2388537D01*
X5387251Y2445687D02*
G01*
X5411889Y2445687D01*
X5420017Y2443147D01*
X5422811Y2440353D01*
X5425605Y2434765D01*
X5425605Y2429431D01*
X5422811Y2423843D01*
X5420017Y2421303D01*
X5411889Y2418509D01*
X5387251Y2418509D01*
X5406555Y2418509D02*
G01*
X5425605Y2388537D01*
X5459895Y2445687D02*
G01*
X5454561Y2443147D01*
X5448973Y2437559D01*
X5446179Y2432225D01*
X5443639Y2423843D01*
X5443639Y2410381D01*
X5446179Y2402253D01*
X5448973Y2396665D01*
X5454561Y2391331D01*
X5459895Y2388537D01*
X5470817Y2388537D01*
X5476151Y2391331D01*
X5481739Y2396665D01*
X5484533Y2402253D01*
X5487073Y2410381D01*
X5487073Y2423843D01*
X5484533Y2432225D01*
X5481739Y2437559D01*
X5476151Y2443147D01*
X5470817Y2445687D01*
X5459895Y2445687D01*
X5505107Y2445687D02*
G01*
X5526951Y2388537D01*
X5548795Y2445687D02*
G01*
X5526951Y2388537D01*
X5569623Y2432225D02*
G01*
X5569623Y2434765D01*
X5572163Y2440353D01*
X5574957Y2443147D01*
X5580545Y2445687D01*
X5591467Y2445687D01*
X5596801Y2443147D01*
X5599595Y2440353D01*
X5602135Y2434765D01*
X5602135Y2429431D01*
X5599595Y2423843D01*
X5594007Y2415715D01*
X5566829Y2388537D01*
X5604929Y2388537D01*
X2521458Y139192D02*
G01*
X2558795Y139192D01*
X2538475Y112013D01*
X2548636Y112013D01*
X2555493Y108457D01*
X2558795Y105155D01*
X2562352Y94742D01*
X2562352Y88137D01*
X2558795Y77723D01*
X2552191Y71120D01*
X2541777Y67563D01*
X2531618Y67563D01*
X2521458Y71120D01*
X2517902Y74421D01*
X2514600Y81279D01*
X2584704Y139192D02*
G01*
X2612136Y67563D01*
X2639313Y139192D02*
G01*
X2612136Y67563D01*
X2668777Y139192D02*
G01*
X2706115Y139192D01*
X2685795Y112013D01*
X2695956Y112013D01*
X2702813Y108457D01*
X2706115Y105155D01*
X2709672Y94742D01*
X2709672Y88137D01*
X2706115Y77723D01*
X2699258Y71120D01*
X2689097Y67563D01*
X2678938Y67563D01*
X2668777Y71120D01*
X2665222Y74421D01*
X2661920Y81279D01*
X2819654Y122173D02*
G01*
X2816352Y129031D01*
X2809493Y135889D01*
X2802636Y139192D01*
X2789174Y139192D01*
X2782315Y135889D01*
X2775458Y129031D01*
X2771902Y122173D01*
X2768600Y112013D01*
X2768600Y94742D01*
X2771902Y84581D01*
X2775458Y77723D01*
X2782315Y71120D01*
X2789174Y67563D01*
X2802636Y67563D01*
X2809493Y71120D01*
X2816352Y77723D01*
X2819654Y84581D01*
X2819654Y94742D01*
X2802636Y94742D02*
G01*
X2819654Y94742D01*
X2842259Y139192D02*
G01*
X2842259Y67563D01*
X2842259Y139192D02*
G01*
X2890011Y67563D01*
X2890011Y139192D02*
G01*
X2890011Y67563D01*
X2912363Y139192D02*
G01*
X2912363Y67563D01*
X2912363Y139192D02*
G01*
X2936240Y139192D01*
X2946654Y135889D01*
X2953258Y129031D01*
X2956813Y122173D01*
X2960115Y112013D01*
X2960115Y94742D01*
X2956813Y84581D01*
X2953258Y77723D01*
X2946654Y71120D01*
X2936240Y67563D01*
X2912363Y67563D01*
X3088893Y139192D02*
G01*
X3054858Y139192D01*
X3051302Y108457D01*
X3054858Y112013D01*
X3065018Y115315D01*
X3075177Y115315D01*
X3085591Y112013D01*
X3092195Y105155D01*
X3095752Y94742D01*
X3095752Y88137D01*
X3092195Y77723D01*
X3085591Y71120D01*
X3075177Y67563D01*
X3065018Y67563D01*
X3054858Y71120D01*
X3051302Y74421D01*
X3048000Y81279D01*
X3118104Y139192D02*
G01*
X3145536Y67563D01*
X3172713Y139192D02*
G01*
X3145536Y67563D01*
X3314700Y139192D02*
G01*
X3314700Y67563D01*
X3357625Y139192D02*
G01*
X3350768Y135889D01*
X3343909Y129031D01*
X3340608Y122173D01*
X3337306Y112013D01*
X3337306Y94742D01*
X3340608Y84581D01*
X3343909Y77723D01*
X3350768Y71120D01*
X3357625Y67563D01*
X3371341Y67563D01*
X3378200Y71120D01*
X3384804Y77723D01*
X3388359Y84581D01*
X3391661Y94742D01*
X3391661Y112013D01*
X3388359Y122173D01*
X3384804Y129031D01*
X3378200Y135889D01*
X3371341Y139192D01*
X3357625Y139192D01*
X3414268Y125476D02*
G01*
X3421125Y129031D01*
X3431286Y139192D01*
X3431286Y67563D01*
X3556000Y139192D02*
G01*
X3556000Y67563D01*
X3598925Y139192D02*
G01*
X3592068Y135889D01*
X3585209Y129031D01*
X3581908Y122173D01*
X3578606Y112013D01*
X3578606Y94742D01*
X3581908Y84581D01*
X3585209Y77723D01*
X3592068Y71120D01*
X3598925Y67563D01*
X3612641Y67563D01*
X3619500Y71120D01*
X3626104Y77723D01*
X3629659Y84581D01*
X3632961Y94742D01*
X3632961Y112013D01*
X3629659Y122173D01*
X3626104Y129031D01*
X3619500Y135889D01*
X3612641Y139192D01*
X3598925Y139192D01*
X3658870Y122173D02*
G01*
X3658870Y125476D01*
X3662425Y132334D01*
X3665727Y135889D01*
X3672586Y139192D01*
X3686302Y139192D01*
X3693159Y135889D01*
X3696461Y132334D01*
X3699763Y125476D01*
X3699763Y118618D01*
X3696461Y112013D01*
X3689604Y101600D01*
X3655568Y67563D01*
X3703320Y67563D01*
X3784600Y139192D02*
G01*
X3784600Y67563D01*
X3827525Y139192D02*
G01*
X3820668Y135889D01*
X3813809Y129031D01*
X3810508Y122173D01*
X3807206Y112013D01*
X3807206Y94742D01*
X3810508Y84581D01*
X3813809Y77723D01*
X3820668Y71120D01*
X3827525Y67563D01*
X3841241Y67563D01*
X3848100Y71120D01*
X3854704Y77723D01*
X3858259Y84581D01*
X3861561Y94742D01*
X3861561Y112013D01*
X3858259Y122173D01*
X3854704Y129031D01*
X3848100Y135889D01*
X3841241Y139192D01*
X3827525Y139192D01*
X3891025Y139192D02*
G01*
X3928363Y139192D01*
X3908043Y112013D01*
X3918204Y112013D01*
X3925061Y108457D01*
X3928363Y105155D01*
X3931920Y94742D01*
X3931920Y88137D01*
X3928363Y77723D01*
X3921759Y71120D01*
X3911345Y67563D01*
X3901186Y67563D01*
X3891025Y71120D01*
X3887470Y74421D01*
X3884168Y81279D01*
X4038600Y139192D02*
G01*
X4038600Y67563D01*
X4081525Y139192D02*
G01*
X4074668Y135889D01*
X4067809Y129031D01*
X4064508Y122173D01*
X4061206Y112013D01*
X4061206Y94742D01*
X4064508Y84581D01*
X4067809Y77723D01*
X4074668Y71120D01*
X4081525Y67563D01*
X4095241Y67563D01*
X4102100Y71120D01*
X4108704Y77723D01*
X4112259Y84581D01*
X4115561Y94742D01*
X4115561Y112013D01*
X4112259Y122173D01*
X4108704Y129031D01*
X4102100Y135889D01*
X4095241Y139192D01*
X4081525Y139192D01*
X4138168Y125476D02*
G01*
X4145025Y129031D01*
X4155186Y139192D01*
X4155186Y67563D01*
X4198111Y139192D02*
G01*
X4187952Y135889D01*
X4181093Y125476D01*
X4177791Y108457D01*
X4177791Y98297D01*
X4181093Y81279D01*
X4187952Y71120D01*
X4198111Y67563D01*
X4204970Y67563D01*
X4215129Y71120D01*
X4221988Y81279D01*
X4225543Y98297D01*
X4225543Y108457D01*
X4221988Y125476D01*
X4215129Y135889D01*
X4204970Y139192D01*
X4198111Y139192D01*
X4305300Y139192D02*
G01*
X4305300Y67563D01*
X4348225Y139192D02*
G01*
X4341368Y135889D01*
X4334509Y129031D01*
X4331208Y122173D01*
X4327906Y112013D01*
X4327906Y94742D01*
X4331208Y84581D01*
X4334509Y77723D01*
X4341368Y71120D01*
X4348225Y67563D01*
X4361941Y67563D01*
X4368800Y71120D01*
X4375404Y77723D01*
X4378959Y84581D01*
X4382261Y94742D01*
X4382261Y112013D01*
X4378959Y122173D01*
X4375404Y129031D01*
X4368800Y135889D01*
X4361941Y139192D01*
X4348225Y139192D01*
X4404868Y125476D02*
G01*
X4411725Y129031D01*
X4421886Y139192D01*
X4421886Y67563D01*
X4444491Y125476D02*
G01*
X4451095Y129031D01*
X4461509Y139192D01*
X4461509Y67563D01*
X4546600Y139192D02*
G01*
X4546600Y67563D01*
X4589525Y139192D02*
G01*
X4582668Y135889D01*
X4575809Y129031D01*
X4572508Y122173D01*
X4569206Y112013D01*
X4569206Y94742D01*
X4572508Y84581D01*
X4575809Y77723D01*
X4582668Y71120D01*
X4589525Y67563D01*
X4603241Y67563D01*
X4610100Y71120D01*
X4616704Y77723D01*
X4620259Y84581D01*
X4623561Y94742D01*
X4623561Y112013D01*
X4620259Y122173D01*
X4616704Y129031D01*
X4610100Y135889D01*
X4603241Y139192D01*
X4589525Y139192D01*
X4646168Y125476D02*
G01*
X4653025Y129031D01*
X4663186Y139192D01*
X4663186Y67563D01*
X4689093Y122173D02*
G01*
X4689093Y125476D01*
X4692395Y132334D01*
X4695952Y135889D01*
X4702809Y139192D01*
X4716272Y139192D01*
X4723129Y135889D01*
X4726686Y132334D01*
X4729988Y125476D01*
X4729988Y118618D01*
X4726686Y112013D01*
X4719827Y101600D01*
X4685791Y67563D01*
X4733543Y67563D01*
X4787900Y139192D02*
G01*
X4787900Y67563D01*
X4830825Y139192D02*
G01*
X4823968Y135889D01*
X4817109Y129031D01*
X4813808Y122173D01*
X4810506Y112013D01*
X4810506Y94742D01*
X4813808Y84581D01*
X4817109Y77723D01*
X4823968Y71120D01*
X4830825Y67563D01*
X4844541Y67563D01*
X4851400Y71120D01*
X4858004Y77723D01*
X4861559Y84581D01*
X4864861Y94742D01*
X4864861Y112013D01*
X4861559Y122173D01*
X4858004Y129031D01*
X4851400Y135889D01*
X4844541Y139192D01*
X4830825Y139192D01*
X4887468Y125476D02*
G01*
X4894325Y129031D01*
X4904486Y139192D01*
X4904486Y67563D01*
X4933695Y139192D02*
G01*
X4971288Y139192D01*
X4950968Y112013D01*
X4961127Y112013D01*
X4967986Y108457D01*
X4971288Y105155D01*
X4974843Y94742D01*
X4974843Y88137D01*
X4971288Y77723D01*
X4964429Y71120D01*
X4954270Y67563D01*
X4944109Y67563D01*
X4933695Y71120D01*
X4930393Y74421D01*
X4927091Y81279D01*
X4803559Y2049447D02*
G01*
X4803559Y1982645D01*
X4803559Y2049447D02*
G01*
X4825911Y2049447D01*
X4835309Y2046399D01*
X4841659Y2040049D01*
X4844961Y2033445D01*
X4848009Y2024047D01*
X4848009Y2008045D01*
X4844961Y1998647D01*
X4841659Y1992297D01*
X4835309Y1985947D01*
X4825911Y1982645D01*
X4803559Y1982645D01*
X4888141Y2049447D02*
G01*
X4881791Y2046399D01*
X4875441Y2040049D01*
X4872393Y2033445D01*
X4869091Y2024047D01*
X4869091Y2008045D01*
X4872393Y1998647D01*
X4875441Y1992297D01*
X4881791Y1985947D01*
X4888141Y1982645D01*
X4900841Y1982645D01*
X4907191Y1985947D01*
X4913541Y1992297D01*
X4916843Y1998647D01*
X4919891Y2008045D01*
X4919891Y2024047D01*
X4916843Y2033445D01*
X4913541Y2040049D01*
X4907191Y2046399D01*
X4900841Y2049447D01*
X4888141Y2049447D01*
X4940973Y2049447D02*
G01*
X4940973Y1982645D01*
X4940973Y2049447D02*
G01*
X4969675Y2049447D01*
X4979073Y2046399D01*
X4982375Y2043097D01*
X4985677Y2036747D01*
X4985677Y2030397D01*
X4982375Y2024047D01*
X4979073Y2020745D01*
X4969675Y2017697D01*
X4940973Y2017697D01*
X4963325Y2017697D02*
G01*
X4985677Y1982645D01*
X5006505Y2049447D02*
G01*
X5006505Y1982645D01*
X5052987Y2049447D02*
G01*
X5027587Y1982645D01*
X5052987Y2049447D02*
G01*
X5078387Y1982645D01*
X5036985Y2004997D02*
G01*
X5068989Y2004997D01*
X5099469Y2049447D02*
G01*
X5099469Y1982645D01*
X5099469Y2049447D02*
G01*
X5143919Y1982645D01*
X5143919Y2049447D02*
G01*
X5143919Y1982645D01*
X5187353Y2049447D02*
G01*
X5187353Y1982645D01*
X5165001Y2049447D02*
G01*
X5209451Y2049447D01*
X5249583Y2049447D02*
G01*
X5243233Y2046399D01*
X5236883Y2040049D01*
X5233835Y2033445D01*
X5230533Y2024047D01*
X5230533Y2008045D01*
X5233835Y1998647D01*
X5236883Y1992297D01*
X5243233Y1985947D01*
X5249583Y1982645D01*
X5262283Y1982645D01*
X5268633Y1985947D01*
X5274983Y1992297D01*
X5278285Y1998647D01*
X5281587Y2008045D01*
X5281587Y2024047D01*
X5278285Y2033445D01*
X5274983Y2040049D01*
X5268633Y2046399D01*
X5262283Y2049447D01*
X5249583Y2049447D01*
X5302415Y2049447D02*
G01*
X5302415Y1982645D01*
X5302415Y2049447D02*
G01*
X5324767Y2049447D01*
X5334165Y2046399D01*
X5340769Y2040049D01*
X5343817Y2033445D01*
X5347119Y2024047D01*
X5347119Y2008045D01*
X5343817Y1998647D01*
X5340769Y1992297D01*
X5334165Y1985947D01*
X5324767Y1982645D01*
X5302415Y1982645D01*
X5367947Y2049447D02*
G01*
X5367947Y1982645D01*
X5367947Y2049447D02*
G01*
X5390299Y2049447D01*
X5399951Y2046399D01*
X5406301Y2040049D01*
X5409349Y2033445D01*
X5412651Y2024047D01*
X5412651Y2008045D01*
X5409349Y1998647D01*
X5406301Y1992297D01*
X5399951Y1985947D01*
X5390299Y1982645D01*
X5367947Y1982645D01*
X5436781Y1998647D02*
G01*
X5433479Y1995345D01*
X5436781Y1992297D01*
X5439829Y1995345D01*
X5436781Y1998647D01*
X5508663Y2033445D02*
G01*
X5505361Y2040049D01*
X5499011Y2046399D01*
X5492661Y2049447D01*
X5479961Y2049447D01*
X5473611Y2046399D01*
X5467261Y2040049D01*
X5464213Y2033445D01*
X5460911Y2024047D01*
X5460911Y2008045D01*
X5464213Y1998647D01*
X5467261Y1992297D01*
X5473611Y1985947D01*
X5479961Y1982645D01*
X5492661Y1982645D01*
X5499011Y1985947D01*
X5505361Y1992297D01*
X5508663Y1998647D01*
X5548795Y2049447D02*
G01*
X5542445Y2046399D01*
X5536095Y2040049D01*
X5532793Y2033445D01*
X5529745Y2024047D01*
X5529745Y2008045D01*
X5532793Y1998647D01*
X5536095Y1992297D01*
X5542445Y1985947D01*
X5548795Y1982645D01*
X5561495Y1982645D01*
X5567845Y1985947D01*
X5574195Y1992297D01*
X5577497Y1998647D01*
X5580545Y2008045D01*
X5580545Y2024047D01*
X5577497Y2033445D01*
X5574195Y2040049D01*
X5567845Y2046399D01*
X5561495Y2049447D01*
X5548795Y2049447D01*
X5601627Y2049447D02*
G01*
X5601627Y1982645D01*
X5601627Y2049447D02*
G01*
X5627027Y1982645D01*
X5652427Y2049447D02*
G01*
X5627027Y1982645D01*
X5652427Y2049447D02*
G01*
X5652427Y1982645D01*
X1991868Y758952D02*
G01*
X1985009Y752094D01*
X1981708Y741934D01*
X1981708Y728218D01*
X1985009Y718057D01*
X1991868Y711200D01*
X1998725Y711200D01*
X2005584Y714502D01*
X2008886Y718057D01*
X2012441Y724915D01*
X2019300Y745236D01*
X2022602Y752094D01*
X2026158Y755395D01*
X2032761Y758952D01*
X2043175Y758952D01*
X2049779Y752094D01*
X2053336Y741934D01*
X2053336Y728218D01*
X2049779Y718057D01*
X2043175Y711200D01*
X1981708Y781304D02*
G01*
X2053336Y781304D01*
X1981708Y781304D02*
G01*
X1981708Y805179D01*
X1985009Y815594D01*
X1991868Y822452D01*
X1998725Y825754D01*
X2008886Y829055D01*
X2026158Y829055D01*
X2036318Y825754D01*
X2043175Y822452D01*
X2049779Y815594D01*
X2053336Y805179D01*
X2053336Y781304D01*
X1981708Y878839D02*
G01*
X2053336Y851662D01*
X1981708Y878839D02*
G01*
X2053336Y906271D01*
X2029459Y861821D02*
G01*
X2029459Y895857D01*
X1991868Y1051052D02*
G01*
X1985009Y1044194D01*
X1981708Y1034034D01*
X1981708Y1020318D01*
X1985009Y1010157D01*
X1991868Y1003300D01*
X1998725Y1003300D01*
X2005584Y1006602D01*
X2008886Y1010157D01*
X2012441Y1017015D01*
X2019300Y1037336D01*
X2022602Y1044194D01*
X2026158Y1047495D01*
X2032761Y1051052D01*
X2043175Y1051052D01*
X2049779Y1044194D01*
X2053336Y1034034D01*
X2053336Y1020318D01*
X2049779Y1010157D01*
X2043175Y1003300D01*
X1998725Y1124712D02*
G01*
X1991868Y1121155D01*
X1985009Y1114552D01*
X1981708Y1107694D01*
X1981708Y1093978D01*
X1985009Y1087120D01*
X1991868Y1080262D01*
X1998725Y1076960D01*
X2008886Y1073404D01*
X2026158Y1073404D01*
X2036318Y1076960D01*
X2043175Y1080262D01*
X2049779Y1087120D01*
X2053336Y1093978D01*
X2053336Y1107694D01*
X2049779Y1114552D01*
X2043175Y1121155D01*
X2036318Y1124712D01*
X1981708Y1147063D02*
G01*
X2053336Y1147063D01*
X2053336Y1147063D02*
G01*
X2053336Y1187957D01*
X1981708Y1264157D02*
G01*
X1981708Y1301495D01*
X2008886Y1281176D01*
X2008886Y1291336D01*
X2012441Y1298194D01*
X2015743Y1301495D01*
X2026158Y1305052D01*
X2032761Y1305052D01*
X2043175Y1301495D01*
X2049779Y1294892D01*
X2053336Y1284478D01*
X2053336Y1274318D01*
X2049779Y1264157D01*
X2046477Y1260602D01*
X2039620Y1257300D01*
X1981708Y1327404D02*
G01*
X2053336Y1354836D01*
X1981708Y1382013D02*
G01*
X2053336Y1354836D01*
X1981708Y1411478D02*
G01*
X1981708Y1448815D01*
X2008886Y1428495D01*
X2008886Y1438655D01*
X2012441Y1445513D01*
X2015743Y1448815D01*
X2026158Y1452371D01*
X2032761Y1452371D01*
X2043175Y1448815D01*
X2049779Y1441957D01*
X2053336Y1431797D01*
X2053336Y1421637D01*
X2049779Y1411478D01*
X2046477Y1407921D01*
X2039620Y1404620D01*
X1998725Y1575054D02*
G01*
X1991868Y1571752D01*
X1985009Y1564894D01*
X1981708Y1558036D01*
X1981708Y1544573D01*
X1985009Y1537715D01*
X1991868Y1530857D01*
X1998725Y1527302D01*
X2008886Y1524000D01*
X2026158Y1524000D01*
X2036318Y1527302D01*
X2043175Y1530857D01*
X2049779Y1537715D01*
X2053336Y1544573D01*
X2053336Y1558036D01*
X2049779Y1564894D01*
X2043175Y1571752D01*
X2036318Y1575054D01*
X2026158Y1575054D01*
X2026158Y1558036D02*
G01*
X2026158Y1575054D01*
X1981708Y1597660D02*
G01*
X2053336Y1597660D01*
X1981708Y1597660D02*
G01*
X2053336Y1645412D01*
X1981708Y1645412D02*
G01*
X2053336Y1645412D01*
X1981708Y1667763D02*
G01*
X2053336Y1667763D01*
X1981708Y1667763D02*
G01*
X1981708Y1691639D01*
X1985009Y1702054D01*
X1991868Y1708657D01*
X1998725Y1712213D01*
X2008886Y1715515D01*
X2026158Y1715515D01*
X2036318Y1712213D01*
X2043175Y1708657D01*
X2049779Y1702054D01*
X2053336Y1691639D01*
X2053336Y1667763D01*
D11*
X5803900Y-117602D02*
G01*
X5865368Y-117602D01*
X5263134Y-99568D02*
G01*
X5263134Y-161036D01*
X5232400Y-130302D02*
G01*
X5293868Y-130302D01*
X2794000Y2247392D02*
G01*
X2794000Y2175763D01*
X2794000Y2247392D02*
G01*
X2824734Y2247392D01*
X2834893Y2244089D01*
X2838195Y2240534D01*
X2841752Y2233676D01*
X2841752Y2223515D01*
X2838195Y2216657D01*
X2834893Y2213355D01*
X2824734Y2209800D01*
X2794000Y2209800D01*
X2884677Y2247392D02*
G01*
X2877820Y2244089D01*
X2870961Y2237231D01*
X2867659Y2230373D01*
X2864104Y2220213D01*
X2864104Y2202942D01*
X2867659Y2192781D01*
X2870961Y2185923D01*
X2877820Y2179320D01*
X2884677Y2175763D01*
X2898393Y2175763D01*
X2905252Y2179320D01*
X2911856Y2185923D01*
X2915411Y2192781D01*
X2918713Y2202942D01*
X2918713Y2220213D01*
X2915411Y2230373D01*
X2911856Y2237231D01*
X2905252Y2244089D01*
X2898393Y2247392D01*
X2884677Y2247392D01*
X2941320Y2247392D02*
G01*
X2958338Y2175763D01*
X2975356Y2247392D02*
G01*
X2958338Y2175763D01*
X2975356Y2247392D02*
G01*
X2992374Y2175763D01*
X3009391Y2247392D02*
G01*
X2992374Y2175763D01*
X3031997Y2247392D02*
G01*
X3031997Y2175763D01*
X3031997Y2247392D02*
G01*
X3076193Y2247392D01*
X3031997Y2213355D02*
G01*
X3059175Y2213355D01*
X3031997Y2175763D02*
G01*
X3076193Y2175763D01*
X3098800Y2247392D02*
G01*
X3098800Y2175763D01*
X3098800Y2247392D02*
G01*
X3129534Y2247392D01*
X3139693Y2244089D01*
X3142995Y2240534D01*
X3146552Y2233676D01*
X3146552Y2226818D01*
X3142995Y2220213D01*
X3139693Y2216657D01*
X3129534Y2213355D01*
X3098800Y2213355D01*
X3122675Y2213355D02*
G01*
X3146552Y2175763D01*
X3269234Y2237231D02*
G01*
X3262375Y2244089D01*
X3252215Y2247392D01*
X3238500Y2247392D01*
X3228340Y2244089D01*
X3221481Y2237231D01*
X3221481Y2230373D01*
X3224784Y2223515D01*
X3228340Y2220213D01*
X3235197Y2216657D01*
X3255518Y2209800D01*
X3262375Y2206497D01*
X3265931Y2202942D01*
X3269234Y2196337D01*
X3269234Y2185923D01*
X3262375Y2179320D01*
X3252215Y2175763D01*
X3238500Y2175763D01*
X3228340Y2179320D01*
X3221481Y2185923D01*
X3291840Y2247392D02*
G01*
X3308858Y2175763D01*
X3325875Y2247392D02*
G01*
X3308858Y2175763D01*
X3325875Y2247392D02*
G01*
X3342893Y2175763D01*
X3359911Y2247392D02*
G01*
X3342893Y2175763D01*
X3382518Y2247392D02*
G01*
X3382518Y2175763D01*
X3428745Y2247392D02*
G01*
X3428745Y2175763D01*
X3404870Y2247392D02*
G01*
X3452622Y2247392D01*
X3526281Y2230373D02*
G01*
X3522979Y2237231D01*
X3516122Y2244089D01*
X3509263Y2247392D01*
X3495547Y2247392D01*
X3488690Y2244089D01*
X3481831Y2237231D01*
X3478529Y2230373D01*
X3475227Y2220213D01*
X3475227Y2202942D01*
X3478529Y2192781D01*
X3481831Y2185923D01*
X3488690Y2179320D01*
X3495547Y2175763D01*
X3509263Y2175763D01*
X3516122Y2179320D01*
X3522979Y2185923D01*
X3526281Y2192781D01*
X3548888Y2247392D02*
G01*
X3548888Y2175763D01*
X3596386Y2247392D02*
G01*
X3596386Y2175763D01*
X3548888Y2213355D02*
G01*
X3596386Y2213355D01*
X5438393Y-114807D02*
G01*
X5404358Y-114807D01*
X5400802Y-145542D01*
X5404358Y-141986D01*
X5414518Y-138684D01*
X5424677Y-138684D01*
X5435091Y-141986D01*
X5441695Y-148844D01*
X5445252Y-159257D01*
X5445252Y-165862D01*
X5441695Y-176276D01*
X5435091Y-182879D01*
X5424677Y-186436D01*
X5414518Y-186436D01*
X5404358Y-182879D01*
X5400802Y-179578D01*
X5397500Y-172720D01*
X5467604Y-155702D02*
G01*
X5529072Y-155702D01*
X5551677Y-128523D02*
G01*
X5558536Y-124968D01*
X5568695Y-114807D01*
X5568695Y-186436D01*
X5594604Y-131826D02*
G01*
X5594604Y-128523D01*
X5597906Y-121665D01*
X5601461Y-118110D01*
X5608065Y-114807D01*
X5621781Y-114807D01*
X5628640Y-118110D01*
X5631941Y-121665D01*
X5635497Y-128523D01*
X5635497Y-135381D01*
X5631941Y-141986D01*
X5625338Y-152400D01*
X5591047Y-186436D01*
X5638800Y-186436D01*
X5661406Y-114807D02*
G01*
X5688584Y-186436D01*
X5716015Y-114807D02*
G01*
X5688584Y-186436D01*
X2145284Y966470D02*
G01*
X2228341Y966470D01*
X2244090Y961136D01*
X2249170Y956055D01*
X2254250Y945642D01*
X2254250Y935228D01*
X2249170Y924813D01*
X2244090Y919479D01*
X2228341Y914400D01*
X2217927Y914400D01*
X2160777Y1073404D02*
G01*
X2150363Y1062989D01*
X2145284Y1047495D01*
X2145284Y1026668D01*
X2150363Y1010920D01*
X2160777Y1000760D01*
X2171191Y1000760D01*
X2181606Y1005839D01*
X2186940Y1010920D01*
X2192020Y1021334D01*
X2202434Y1052576D01*
X2207513Y1062989D01*
X2212847Y1068070D01*
X2223261Y1073404D01*
X2238756Y1073404D01*
X2249170Y1062989D01*
X2254250Y1047495D01*
X2254250Y1026668D01*
X2249170Y1010920D01*
X2238756Y1000760D01*
X2145284Y1144015D02*
G01*
X2254250Y1144015D01*
X2145284Y1107694D02*
G01*
X2145284Y1180337D01*
X2207513Y1214628D02*
G01*
X2207513Y1308100D01*
X2145284Y1342389D02*
G01*
X2254250Y1415287D01*
X2145284Y1415287D02*
G01*
X2254250Y1342389D01*
X2145284Y1449578D02*
G01*
X2254250Y1449578D01*
X2145284Y1522221D02*
G01*
X2254250Y1522221D01*
X2197100Y1449578D02*
G01*
X2197100Y1522221D01*
X2298700Y499871D02*
G01*
X2298700Y423418D01*
X2298700Y499871D02*
G01*
X2331465Y499871D01*
X2342388Y496315D01*
X2345943Y492505D01*
X2349500Y485394D01*
X2349500Y478028D01*
X2345943Y470662D01*
X2342388Y467105D01*
X2331465Y463550D01*
X2298700Y463550D01*
X2324100Y463550D02*
G01*
X2349500Y423418D01*
X2373629Y499871D02*
G01*
X2373629Y423418D01*
X2373629Y499871D02*
G01*
X2420874Y499871D01*
X2373629Y463550D02*
G01*
X2402586Y463550D01*
X2373629Y423418D02*
G01*
X2420874Y423418D01*
X2495804Y488950D02*
G01*
X2488438Y496315D01*
X2477515Y499871D01*
X2463038Y499871D01*
X2452115Y496315D01*
X2445004Y488950D01*
X2445004Y481584D01*
X2448559Y474471D01*
X2452115Y470662D01*
X2459481Y467105D01*
X2481325Y459739D01*
X2488438Y456184D01*
X2492247Y452628D01*
X2495804Y445262D01*
X2495804Y434339D01*
X2488438Y426973D01*
X2477515Y423418D01*
X2463038Y423418D01*
X2452115Y426973D01*
X2445004Y434339D01*
X2519679Y499871D02*
G01*
X2519679Y423418D01*
X2519679Y499871D02*
G01*
X2567177Y499871D01*
X2519679Y463550D02*
G01*
X2548890Y463550D01*
X2519679Y423418D02*
G01*
X2567177Y423418D01*
X2616454Y499871D02*
G01*
X2616454Y423418D01*
X2591054Y499871D02*
G01*
X2641854Y499871D01*
X2082800Y1994915D02*
G01*
X2082800Y1885950D01*
X2082800Y1994915D02*
G01*
X2129536Y1994915D01*
X2145029Y1989836D01*
X2150363Y1984502D01*
X2155443Y1974087D01*
X2155443Y1963673D01*
X2150363Y1953260D01*
X2145029Y1948179D01*
X2129536Y1943100D01*
X2082800Y1943100D02*
G01*
X2129536Y1943100D01*
X2145029Y1937765D01*
X2150363Y1932686D01*
X2155443Y1922271D01*
X2155443Y1906523D01*
X2150363Y1896110D01*
X2145029Y1891029D01*
X2129536Y1885950D01*
X2082800Y1885950D01*
X2220975Y1994915D02*
G01*
X2210561Y1989836D01*
X2200147Y1979421D01*
X2195068Y1969007D01*
X2189734Y1953260D01*
X2189734Y1927352D01*
X2195068Y1911857D01*
X2200147Y1901444D01*
X2210561Y1891029D01*
X2220975Y1885950D01*
X2241804Y1885950D01*
X2252218Y1891029D01*
X2262631Y1901444D01*
X2267711Y1911857D01*
X2273045Y1927352D01*
X2273045Y1953260D01*
X2267711Y1969007D01*
X2262631Y1979421D01*
X2252218Y1989836D01*
X2241804Y1994915D01*
X2220975Y1994915D01*
X2338324Y1994915D02*
G01*
X2327909Y1989836D01*
X2317750Y1979421D01*
X2312415Y1969007D01*
X2307336Y1953260D01*
X2307336Y1927352D01*
X2312415Y1911857D01*
X2317750Y1901444D01*
X2327909Y1891029D01*
X2338324Y1885950D01*
X2359152Y1885950D01*
X2369565Y1891029D01*
X2379979Y1901444D01*
X2385059Y1911857D01*
X2390393Y1927352D01*
X2390393Y1953260D01*
X2385059Y1969007D01*
X2379979Y1979421D01*
X2369565Y1989836D01*
X2359152Y1994915D01*
X2338324Y1994915D01*
X2461006Y1994915D02*
G01*
X2461006Y1885950D01*
X2424684Y1994915D02*
G01*
X2497327Y1994915D01*
G36*
X3118256Y615391D02*
G01*
X3118256Y409397D01*
X3149142Y409397D01*
X3149142Y615391D01*
G37*
G36*
X3071876Y527862D02*
G01*
X3071876Y496976D01*
X3195523Y496976D01*
X3195523Y527862D01*
G37*
G36*
X3916476Y527862D02*
G01*
X3916476Y496976D01*
X4040124Y496976D01*
X4040124Y527862D01*
G37*
G36*
X4294784Y1259281D02*
G01*
X4294784Y1213561D01*
X4334967Y1213205D01*
X4335424Y1259179D01*
G37*
G36*
X4554575Y1260144D02*
G01*
X4554575Y1214424D01*
X4594809Y1214018D01*
X4595266Y1259992D01*
G37*
G36*
X1721561Y175615D02*
G01*
X1721205Y135432D01*
X1767179Y134975D01*
X1767281Y175615D01*
G37*
G36*
X1722424Y-84175D02*
G01*
X1722018Y-124409D01*
X1767992Y-124866D01*
X1768144Y-84175D01*
G37*
G36*
X80619Y965758D02*
G01*
X73964Y965352D01*
X67462Y964082D01*
X61163Y962050D01*
X55117Y959205D01*
X49530Y955649D01*
X44399Y951433D01*
X39878Y946607D01*
X35966Y941222D01*
X32766Y935431D01*
X30327Y929233D01*
X28702Y922782D01*
X28143Y919530D01*
X27736Y912926D01*
X28143Y906271D01*
X29413Y899769D01*
X31445Y893419D01*
X34290Y887425D01*
X37846Y881837D01*
X42062Y876706D01*
X46888Y872185D01*
X52273Y868273D01*
X58115Y865073D01*
X64262Y862634D01*
X70713Y860958D01*
X77266Y860145D01*
X83921Y860145D01*
X90525Y860958D01*
X96926Y862634D01*
X103124Y865073D01*
X108915Y868273D01*
X114300Y872185D01*
X119126Y876706D01*
X123342Y881837D01*
X126898Y887425D01*
X129743Y893419D01*
X131775Y899769D01*
X133045Y906271D01*
X133451Y912876D01*
X133045Y919530D01*
X131775Y926033D01*
X129743Y932383D01*
X126898Y938377D01*
X123342Y943965D01*
X119126Y949096D01*
X114300Y953617D01*
X108915Y957529D01*
X103124Y960729D01*
X96926Y963168D01*
X90525Y964844D01*
X83921Y965657D01*
G37*
G36*
X3721252Y1629359D02*
G01*
X3721252Y1616456D01*
X3772865Y1616456D01*
X3772865Y1629359D01*
G37*
G36*
X4073855Y1629359D02*
G01*
X4073855Y1616456D01*
X4125468Y1616456D01*
X4125468Y1629359D01*
G37*
G36*
X4093210Y1665884D02*
G01*
X4093210Y1579880D01*
X4106113Y1579880D01*
X4106113Y1665884D01*
G37*
D12*
X4759881Y1694342D02*
G01*
X4679883Y1694342D01*
X4815926Y1694296D02*
G01*
X4895923Y1694296D01*
X4759881Y1836310D02*
G01*
X4679883Y1836310D01*
X4815926Y1836262D02*
G01*
X4895923Y1836262D01*
X4648908Y1725325D02*
G01*
X4648908Y1805330D01*
X4926901Y1805277D02*
G01*
X4926901Y1725274D01*
X4759881Y1186342D02*
G01*
X4679883Y1186342D01*
X4815926Y1186296D02*
G01*
X4895923Y1186296D01*
X4759881Y1328310D02*
G01*
X4679883Y1328310D01*
X4815926Y1328262D02*
G01*
X4895923Y1328262D01*
X4648908Y1217325D02*
G01*
X4648908Y1297330D01*
X4926901Y1297277D02*
G01*
X4926901Y1217274D01*
X5125557Y302181D02*
G01*
X5125557Y222183D01*
X5125603Y358226D02*
G01*
X5125603Y438223D01*
X4983589Y302181D02*
G01*
X4983589Y222183D01*
X4983637Y358226D02*
G01*
X4983637Y438223D01*
X5094574Y191208D02*
G01*
X5014569Y191208D01*
X5014622Y469201D02*
G01*
X5094625Y469201D01*
X3495118Y2014057D02*
G01*
X3575116Y2014057D01*
X3439073Y2014103D02*
G01*
X3359076Y2014103D01*
X3495118Y1872089D02*
G01*
X3575116Y1872089D01*
X3439073Y1872137D02*
G01*
X3359076Y1872137D01*
X3606091Y1983074D02*
G01*
X3606091Y1903069D01*
X3328098Y1903122D02*
G01*
X3328098Y1983125D01*
X5112857Y1711881D02*
G01*
X5112857Y1631883D01*
X5112903Y1767926D02*
G01*
X5112903Y1847923D01*
X4970889Y1711881D02*
G01*
X4970889Y1631883D01*
X4970937Y1767926D02*
G01*
X4970937Y1847923D01*
X5081874Y1600908D02*
G01*
X5001869Y1600908D01*
X5001922Y1878901D02*
G01*
X5081925Y1878901D01*
X4274657Y1013381D02*
G01*
X4274657Y933383D01*
X4274703Y1069426D02*
G01*
X4274703Y1149423D01*
X4132689Y1013381D02*
G01*
X4132689Y933383D01*
X4132737Y1069426D02*
G01*
X4132737Y1149423D01*
X4243674Y902408D02*
G01*
X4163669Y902408D01*
X4163722Y1180401D02*
G01*
X4243725Y1180401D01*
X4759881Y1351442D02*
G01*
X4679883Y1351442D01*
X4815926Y1351396D02*
G01*
X4895923Y1351396D01*
X4759881Y1493410D02*
G01*
X4679883Y1493410D01*
X4815926Y1493362D02*
G01*
X4895923Y1493362D01*
X4648908Y1382425D02*
G01*
X4648908Y1462430D01*
X4926901Y1462377D02*
G01*
X4926901Y1382374D01*
D11*
X3919979Y2383340D02*
G01*
X3919979Y2534719D01*
X4665220Y2534719D01*
X4665220Y2383340D01*
X3919979Y2010859D02*
G01*
X3919979Y1859480D01*
X4665220Y1859480D01*
X4665220Y2010859D01*
D13*
X5273857Y1835751D02*
G01*
X5274853Y1835751D01*
X5307858Y1802747D01*
X5273857Y1767748D02*
G01*
X5273857Y1768746D01*
X5307858Y1802747D01*
X5273857Y1767748D02*
G01*
X5273857Y1835751D01*
X5271853Y1727741D02*
G01*
X5156852Y1727741D01*
X5271853Y1877753D02*
G01*
X5156852Y1877753D01*
X5156852Y1727751D02*
G01*
X5156852Y1875744D01*
X5309854Y1877984D02*
G01*
X5414865Y1877984D01*
X5444860Y1837977D02*
G01*
X5444860Y1847979D01*
X5414865Y1877984D01*
X5444860Y1767982D02*
G01*
X5444860Y1837977D01*
X5444860Y1767982D02*
G01*
X5444860Y1757967D01*
X5414865Y1727972D01*
X5309854Y1727972D02*
G01*
X5414865Y1727972D01*
X5273857Y1802747D02*
G01*
X5307858Y1802747D01*
D11*
X5120660Y664921D02*
G01*
X5120660Y760808D01*
X4988539Y760808D01*
X4988539Y664921D01*
X5120660Y579678D02*
G01*
X5120660Y483791D01*
X4988539Y483791D01*
X4988539Y579678D01*
X3293821Y1508739D02*
G01*
X3389708Y1508739D01*
X3389708Y1640860D01*
X3293821Y1640860D01*
X3208578Y1508739D02*
G01*
X3112691Y1508739D01*
X3112691Y1640860D01*
X3208578Y1640860D01*
X3424478Y1844060D02*
G01*
X3328591Y1844060D01*
X3328591Y1711939D01*
X3424478Y1711939D01*
X3509721Y1844060D02*
G01*
X3605608Y1844060D01*
X3605608Y1711939D01*
X3509721Y1711939D01*
X2163521Y2397739D02*
G01*
X2259408Y2397739D01*
X2259408Y2529860D01*
X2163521Y2529860D01*
X2078278Y2397739D02*
G01*
X1982391Y2397739D01*
X1982391Y2529860D01*
X2078278Y2529860D01*
X4830521Y1521439D02*
G01*
X4926408Y1521439D01*
X4926408Y1653560D01*
X4830521Y1653560D01*
X4745278Y1521439D02*
G01*
X4649391Y1521439D01*
X4649391Y1653560D01*
X4745278Y1653560D01*
X2912821Y213339D02*
G01*
X3008708Y213339D01*
X3008708Y345460D01*
X2912821Y345460D01*
X2827578Y213339D02*
G01*
X2731691Y213339D01*
X2731691Y345460D01*
X2827578Y345460D01*
X2963621Y1508739D02*
G01*
X3059508Y1508739D01*
X3059508Y1640860D01*
X2963621Y1640860D01*
X2878378Y1508739D02*
G01*
X2782491Y1508739D01*
X2782491Y1640860D01*
X2878378Y1640860D01*
D12*
X5930900Y-55879D02*
G01*
X5168900Y-55879D01*
X5930900Y665479D02*
G01*
X5930900Y-55879D01*
X5168900Y665479D02*
G01*
X5930900Y665479D01*
X5168900Y-55879D02*
G01*
X5168900Y665479D01*
X2171700Y571500D02*
G01*
X2082800Y571500D01*
X2082800Y1841500D01*
X2527300Y1841500D01*
X2171700Y571500D02*
G01*
X2527300Y571500D01*
X2679700Y1460500D02*
G01*
X2679700Y952500D01*
X2679700Y1841500D02*
G01*
X2679700Y1651000D01*
X2679700Y571500D02*
G01*
X2679700Y762000D01*
X1778000Y501815D02*
G01*
X1778000Y546100D01*
X2184400Y285584D02*
G01*
X2184400Y241300D01*
X1778000Y241300D01*
X1778000Y285584D01*
X1778000Y546100D02*
G01*
X2184400Y546100D01*
X2184400Y501815D01*
X1860550Y495300D02*
G01*
X2101850Y495300D01*
X2101850Y292100D01*
X1860550Y292100D01*
X1860550Y495300D01*
X2082800Y2305215D02*
G01*
X2082800Y2349500D01*
X2489200Y2088984D02*
G01*
X2489200Y2044700D01*
X2082800Y2044700D01*
X2082800Y2088984D01*
X2082800Y2349500D02*
G01*
X2489200Y2349500D01*
X2489200Y2305215D01*
X2165350Y2298700D02*
G01*
X2406650Y2298700D01*
X2406650Y2095500D01*
X2165350Y2095500D01*
X2165350Y2298700D01*
D11*
X2320780Y201739D02*
G01*
X2461780Y201739D01*
X2461780Y382460D02*
G01*
X2320780Y382460D01*
X2305540Y367220D02*
G01*
X2305540Y216979D01*
X2683019Y201739D02*
G01*
X2542019Y201739D01*
X2542019Y382460D02*
G01*
X2683019Y382460D01*
X2698259Y367220D02*
G01*
X2698259Y216979D01*
D14*
X4078622Y849812D02*
G01*
X4078622Y1271922D01*
X4078622Y226677D02*
G01*
X4078622Y648787D01*
X3033377Y648787D02*
G01*
X3033377Y440301D01*
X3033377Y1058298D02*
G01*
X3033377Y849812D01*
D11*
X4078622Y1271922D02*
G01*
X3247001Y1271922D01*
X3033377Y1058298D01*
X4078622Y226677D02*
G01*
X3247001Y226677D01*
X3033377Y440301D01*
X4302379Y1422907D02*
G01*
X4587620Y1422907D01*
X4302379Y1251681D02*
G01*
X4302379Y1770918D01*
X4562561Y1770628D02*
G01*
X4586483Y1771296D01*
X4302379Y1770918D02*
G01*
X4326300Y1771586D01*
X4587620Y1251681D02*
G01*
X4587620Y1770918D01*
X1930908Y168020D02*
G01*
X1930908Y-117220D01*
X1759681Y168020D02*
G01*
X2278918Y168020D01*
X2278628Y-92161D02*
G01*
X2279296Y-116083D01*
X2278918Y168020D02*
G01*
X2279586Y144099D01*
X1759681Y-117220D02*
G01*
X2278918Y-117220D01*
D16*
X-635000Y-139700D02*
G01*
X-381000Y-139700D01*
X-381000Y622300D01*
X-635000Y622300D01*
X-635000Y-139700D01*
X-355600Y-139700D02*
G01*
X-101600Y-139700D01*
X-101600Y622300D01*
X-355600Y622300D01*
X-355600Y-139700D01*
X-76200Y-139700D02*
G01*
X177800Y-139700D01*
X177800Y622300D01*
X-76200Y622300D01*
X-76200Y-139700D01*
X203200Y-139700D02*
G01*
X457200Y-139700D01*
X457200Y622300D01*
X203200Y622300D01*
X203200Y-139700D01*
X482600Y-139700D02*
G01*
X736600Y-139700D01*
X736600Y622300D01*
X482600Y622300D01*
X482600Y-139700D01*
X762000Y-139700D02*
G01*
X1016000Y-139700D01*
X1016000Y622300D01*
X762000Y622300D01*
X762000Y-139700D01*
X1041400Y-139700D02*
G01*
X1295400Y-139700D01*
X1295400Y622300D01*
X1041400Y622300D01*
X1041400Y-139700D01*
X1320800Y-139700D02*
G01*
X1574800Y-139700D01*
X1574800Y622300D01*
X1320800Y622300D01*
X1320800Y-139700D01*
D12*
X-44935Y2342616D02*
G01*
X-533394Y2342616D01*
X-533394Y2119096D01*
X-44935Y2139416D02*
G01*
X-533394Y2139416D01*
X-533394Y1854200D01*
X-317494Y1854200D01*
X-317494Y1600200D01*
X-533394Y1600200D01*
X-533394Y1346200D01*
X-317494Y1346200D01*
X-317494Y1117600D01*
X-533394Y1117600D01*
X-533394Y889000D01*
X-165094Y889000D01*
X-44935Y712899D02*
G01*
X-44935Y2514600D01*
X32989Y2514600D02*
G01*
X-647694Y2514600D01*
X1905005Y2379515D02*
G01*
X1905005Y2514600D01*
X1820219Y2514600D01*
X1820219Y712899D02*
G01*
X1905005Y712899D01*
X1905005Y846284D01*
X-648896Y712899D02*
G01*
X32989Y712899D01*
X-648896Y2512900D02*
G01*
X-648896Y712899D01*
D11*
X4942720Y477857D02*
G01*
X4277479Y477857D01*
X4277479Y772137D01*
X4942720Y772137D01*
X4942720Y477857D01*
D12*
X2996100Y2009190D02*
G01*
X3176102Y2009190D01*
X2996100Y1699188D02*
G01*
X3176102Y1699188D01*
D11*
X3700726Y1584746D02*
G01*
X3700726Y1746620D01*
X4052343Y1746620D01*
X4145963Y1653001D01*
X4145963Y1584746D01*
X3700726Y1463258D02*
G01*
X3700726Y1301384D01*
X4052343Y1301384D01*
X4145963Y1395008D01*
X4145963Y1463258D01*
D12*
X2349500Y190500D02*
G01*
X5143500Y190500D01*
X5143500Y-317500D01*
X2349500Y-317500D01*
X2349500Y190500D01*
X5560471Y759602D02*
G01*
X5374180Y759602D01*
X5932309Y1653600D02*
G01*
X5932309Y759602D01*
X5784179Y759602D01*
X5560507Y1653600D02*
G01*
X5374144Y1653600D01*
X5932309Y1653600D02*
G01*
X5784143Y1653600D01*
G75*
G01*
X4895919Y1836263D02*
G02*
X4926901Y1805277I0J-30983D01*
G75*
G01*
X4926901Y1725280D02*
G02*
X4895919Y1694297I-30982J0D01*
G75*
G01*
X4679889Y1694343D02*
G02*
X4648909Y1725325I3J30982D01*
G75*
G01*
X4648909Y1805323D02*
G02*
X4679889Y1836311I30983J5D01*
G75*
G01*
X4895919Y1328263D02*
G02*
X4926901Y1297277I0J-30983D01*
G75*
G01*
X4926901Y1217280D02*
G02*
X4895919Y1186297I-30982J0D01*
G75*
G01*
X4679889Y1186343D02*
G02*
X4648909Y1217325I3J30982D01*
G75*
G01*
X4648909Y1297323D02*
G02*
X4679889Y1328311I30983J5D01*
G75*
G01*
X4983637Y438219D02*
G02*
X5014623Y469201I30983J0D01*
G75*
G01*
X5094620Y469201D02*
G02*
X5125603Y438219I0J-30982D01*
G75*
G01*
X5125557Y222189D02*
G02*
X5094575Y191209I-30982J3D01*
G75*
G01*
X5014577Y191209D02*
G02*
X4983589Y222189I-5J30983D01*
G75*
G01*
X3359081Y1872137D02*
G02*
X3328099Y1903123I0J30983D01*
G75*
G01*
X3328099Y1983120D02*
G02*
X3359081Y2014103I30982J0D01*
G75*
G01*
X3575111Y2014057D02*
G02*
X3606091Y1983075I-3J-30982D01*
G75*
G01*
X3606091Y1903077D02*
G02*
X3575111Y1872089I-30983J-5D01*
G75*
G01*
X4970937Y1847919D02*
G02*
X5001923Y1878901I30983J0D01*
G75*
G01*
X5081920Y1878901D02*
G02*
X5112903Y1847919I0J-30982D01*
G75*
G01*
X5112857Y1631889D02*
G02*
X5081875Y1600909I-30982J3D01*
G75*
G01*
X5001877Y1600909D02*
G02*
X4970889Y1631889I-5J30983D01*
G75*
G01*
X4132737Y1149419D02*
G02*
X4163723Y1180401I30983J0D01*
G75*
G01*
X4243720Y1180401D02*
G02*
X4274703Y1149419I0J-30982D01*
G75*
G01*
X4274657Y933389D02*
G02*
X4243675Y902409I-30982J3D01*
G75*
G01*
X4163677Y902409D02*
G02*
X4132689Y933389I-5J30983D01*
G75*
G01*
X4895919Y1493363D02*
G02*
X4926901Y1462377I0J-30983D01*
G75*
G01*
X4926901Y1382380D02*
G02*
X4895919Y1351397I-30982J0D01*
G75*
G01*
X4679889Y1351443D02*
G02*
X4648909Y1382425I3J30982D01*
G75*
G01*
X4648909Y1462423D02*
G02*
X4679889Y1493411I30983J5D01*
D11*
G75*
G01*
X2320780Y382460D02*
G03*
X2305540Y367220I0J-15240D01*
G75*
G01*
X2305540Y216980D02*
G03*
X2320780Y201740I15240J0D01*
G75*
G01*
X2683020Y382460D02*
G02*
X2698260Y367220I0J-15240D01*
G75*
G01*
X2698260Y216980D02*
G02*
X2683020Y201740I-15240J0D01*
D12*
G75*
G01
X2043125Y393522D02*
G03X2043125Y393522I-62484J0D01*
G75*
G01
X2347925Y2196922D02*
G03X2347925Y2196922I-62484J0D01*
G75*
G01
X3238500Y1689100D02*
G03X3238500Y1689100I-12700J0D01*
M02*
