G04 Layer: BottomLayer*
G04 EasyEDA v6.5.54, 2026-02-14 17:41:48*
G04 915fe7b8967649e7a1646cd930db55b3,2a1063a80a8d4ca1b7931a6248fd9ac1,10*
G04 Gerber Generator version 0.2*
G04 Scale: 100 percent, Rotated: No, Reflected: No *
G04 Dimensions in millimeters *
G04 leading zeros omitted , absolute positions ,4 integer and 5 decimal *
%FSLAX45Y45*%
%MOMM*%

%ADD10C,0.2540*%
%ADD11C,1.0000*%
%ADD12R,1.9050X1.9050*%
%ADD13C,1.9050*%
%ADD14C,2.0000*%
%ADD15R,2.0000X2.0000*%
%ADD16C,1.7000*%
%ADD17C,0.0145*%
%ADD18R,1.7000X1.7000*%
%ADD19R,2.0000X1.8000*%
%ADD20O,1.799996X1.199998*%
%ADD21O,1.999996X1.199998*%
%ADD22C,0.6100*%

%LPD*%
G36*
X-423062Y317195D02*
G01*
X-426720Y317906D01*
X-429869Y319836D01*
X-436575Y325932D01*
X-438962Y329184D01*
X-439928Y333146D01*
X-439216Y337108D01*
X-437032Y340512D01*
X-433730Y342798D01*
X-429768Y343611D01*
X-397357Y343611D01*
X-389331Y344424D01*
X-382117Y346608D01*
X-375412Y350164D01*
X-369214Y355295D01*
X-338328Y386181D01*
X-335534Y388112D01*
X-332282Y389077D01*
X-328879Y388874D01*
X-324815Y386994D01*
X-319328Y385114D01*
X-313029Y384403D01*
X-277469Y384403D01*
X-277469Y446430D01*
X-292912Y446430D01*
X-296824Y447243D01*
X-300075Y449427D01*
X-302310Y452729D01*
X-303072Y456590D01*
X-303072Y534009D01*
X-302310Y537870D01*
X-300075Y541172D01*
X-296824Y543356D01*
X-292912Y544169D01*
X-277469Y544169D01*
X-277469Y560019D01*
X-276656Y563930D01*
X-274472Y567232D01*
X-271170Y569417D01*
X-267309Y570179D01*
X-203047Y570179D01*
X-195021Y570992D01*
X-192836Y571652D01*
X-189128Y572058D01*
X-185470Y571042D01*
X-182473Y568807D01*
X-180441Y565607D01*
X-179730Y561949D01*
X-179730Y544169D01*
X-122326Y544169D01*
X-118414Y543356D01*
X-115163Y541172D01*
X-112928Y537870D01*
X-112166Y534009D01*
X-112166Y456590D01*
X-112928Y452729D01*
X-115163Y449427D01*
X-118414Y447243D01*
X-122326Y446430D01*
X-179730Y446430D01*
X-179730Y384403D01*
X-144170Y384403D01*
X-137871Y385114D01*
X-132384Y386994D01*
X-127508Y390093D01*
X-124206Y393395D01*
X-121056Y395528D01*
X-117398Y396341D01*
X-113690Y395782D01*
X-110388Y393954D01*
X-108051Y391007D01*
X-105613Y386435D01*
X-100482Y380238D01*
X-75488Y355193D01*
X-69240Y350062D01*
X-62585Y346506D01*
X-55372Y344322D01*
X-47345Y343509D01*
X-27533Y343509D01*
X-23469Y342696D01*
X-20066Y340309D01*
X-17932Y336753D01*
X-17373Y332638D01*
X-18542Y328625D01*
X-21183Y325424D01*
X-23774Y323392D01*
X-26720Y320294D01*
X-30073Y318008D01*
X-34036Y317195D01*
X-143662Y317195D01*
X-147320Y317906D01*
X-150469Y319836D01*
X-159461Y328015D01*
X-171094Y336143D01*
X-183692Y342696D01*
X-197053Y347624D01*
X-210921Y350774D01*
X-225044Y352145D01*
X-239267Y351688D01*
X-253288Y349402D01*
X-266903Y345338D01*
X-279908Y339598D01*
X-292049Y332232D01*
X-303174Y323392D01*
X-306120Y320294D01*
X-309473Y318008D01*
X-313436Y317195D01*
G37*

%LPD*%
G36*
X4000500Y-12192D02*
G01*
X3996690Y-11480D01*
X3993438Y-9398D01*
X3991254Y-6197D01*
X3984955Y7721D01*
X3977081Y20726D01*
X3967734Y32664D01*
X3956964Y43434D01*
X3945026Y52781D01*
X3932021Y60655D01*
X3918153Y66903D01*
X3903624Y71424D01*
X3888689Y74168D01*
X3873500Y75082D01*
X3858310Y74168D01*
X3843375Y71424D01*
X3828846Y66903D01*
X3822496Y64058D01*
X3818534Y63144D01*
X3814572Y63906D01*
X3811168Y66141D01*
X3518255Y359054D01*
X3516223Y361950D01*
X3515309Y365353D01*
X3516477Y378663D01*
X3515614Y388467D01*
X3513074Y397967D01*
X3508908Y406857D01*
X3503320Y414883D01*
X3496360Y421843D01*
X3488283Y427482D01*
X3479393Y431647D01*
X3469894Y434187D01*
X3460140Y435051D01*
X3445713Y433628D01*
X3442157Y434695D01*
X3439210Y436930D01*
X3437280Y440080D01*
X3436620Y443738D01*
X3436620Y709015D01*
X3437382Y712876D01*
X3439617Y716178D01*
X3441192Y717804D01*
X3446830Y725830D01*
X3450996Y734720D01*
X3453536Y744220D01*
X3454400Y754024D01*
X3453536Y763828D01*
X3450996Y773328D01*
X3446830Y782218D01*
X3441192Y790244D01*
X3434232Y797204D01*
X3426206Y802843D01*
X3417315Y807008D01*
X3407816Y809548D01*
X3398012Y810412D01*
X3388207Y809548D01*
X3378708Y807008D01*
X3369818Y802843D01*
X3361791Y797204D01*
X3354832Y790244D01*
X3349193Y782218D01*
X3345027Y773328D01*
X3342487Y763828D01*
X3341624Y754024D01*
X3342487Y744220D01*
X3345027Y734720D01*
X3349193Y725830D01*
X3354832Y717804D01*
X3356406Y716178D01*
X3358642Y712876D01*
X3359404Y709015D01*
X3359404Y307390D01*
X3358438Y303123D01*
X3357118Y301345D01*
X3358438Y299618D01*
X3359404Y295351D01*
X3359404Y220878D01*
X3358642Y217017D01*
X3356406Y213715D01*
X3353155Y211480D01*
X3349244Y210718D01*
X3345332Y211480D01*
X3342081Y213715D01*
X3315157Y240639D01*
X3312769Y244348D01*
X3312210Y248716D01*
X3313531Y252882D01*
X3316478Y256133D01*
X3319424Y258165D01*
X3326384Y265125D01*
X3332022Y273202D01*
X3336188Y282092D01*
X3338728Y291592D01*
X3339134Y296214D01*
X3340455Y300431D01*
X3341319Y301345D01*
X3340455Y302310D01*
X3339134Y306527D01*
X3338728Y311150D01*
X3336188Y320649D01*
X3332022Y329539D01*
X3326384Y337616D01*
X3319424Y344576D01*
X3311398Y350164D01*
X3302508Y354330D01*
X3293008Y356870D01*
X3284931Y357581D01*
X3281527Y358495D01*
X3278632Y360527D01*
X2852572Y786587D01*
X2850388Y789889D01*
X2849626Y793800D01*
X2849626Y945692D01*
X2848813Y953719D01*
X2846628Y960932D01*
X2843072Y967638D01*
X2837942Y973836D01*
X2542641Y1269136D01*
X2540406Y1272540D01*
X2539644Y1276553D01*
X2540558Y1280515D01*
X2543403Y1286865D01*
X2547924Y1301394D01*
X2550668Y1316329D01*
X2551582Y1331518D01*
X2550668Y1346657D01*
X2547924Y1361643D01*
X2543403Y1376121D01*
X2537155Y1389989D01*
X2529281Y1402994D01*
X2519934Y1414983D01*
X2509164Y1425752D01*
X2497226Y1435100D01*
X2494534Y1436725D01*
X2491333Y1439722D01*
X2489758Y1443786D01*
X2489962Y1448155D01*
X2492044Y1452016D01*
X2495499Y1454658D01*
X2499766Y1455572D01*
X2525115Y1455572D01*
X2531465Y1456283D01*
X2536901Y1458214D01*
X2541828Y1461312D01*
X2545892Y1465376D01*
X2548991Y1470304D01*
X2550871Y1475740D01*
X2551633Y1482090D01*
X2551633Y1525168D01*
X2482037Y1525168D01*
X2482037Y1459382D01*
X2481326Y1455674D01*
X2479344Y1452473D01*
X2476296Y1450187D01*
X2472639Y1449222D01*
X2468880Y1449679D01*
X2455824Y1453743D01*
X2440889Y1456486D01*
X2425700Y1457401D01*
X2410510Y1456486D01*
X2395575Y1453743D01*
X2382520Y1449679D01*
X2378760Y1449222D01*
X2375103Y1450187D01*
X2372055Y1452473D01*
X2370074Y1455674D01*
X2369362Y1459382D01*
X2369362Y1525168D01*
X2299766Y1525168D01*
X2299766Y1482090D01*
X2300528Y1475740D01*
X2302408Y1470304D01*
X2305507Y1465376D01*
X2309571Y1461312D01*
X2314498Y1458214D01*
X2319934Y1456283D01*
X2326284Y1455572D01*
X2351633Y1455572D01*
X2355900Y1454658D01*
X2359355Y1452016D01*
X2361438Y1448155D01*
X2361641Y1443786D01*
X2360066Y1439722D01*
X2356866Y1436725D01*
X2354173Y1435100D01*
X2342235Y1425752D01*
X2331466Y1414983D01*
X2322118Y1402994D01*
X2314244Y1389989D01*
X2307996Y1376121D01*
X2303475Y1361643D01*
X2300732Y1346657D01*
X2299817Y1331518D01*
X2300732Y1316329D01*
X2303475Y1301394D01*
X2307996Y1286865D01*
X2314244Y1272997D01*
X2322118Y1259992D01*
X2331466Y1248003D01*
X2342235Y1237284D01*
X2354173Y1227886D01*
X2367178Y1220012D01*
X2376678Y1215745D01*
X2379827Y1213561D01*
X2381910Y1210310D01*
X2382672Y1206500D01*
X2381910Y1202690D01*
X2379827Y1199438D01*
X2376678Y1197254D01*
X2367178Y1192987D01*
X2354173Y1185113D01*
X2342235Y1175715D01*
X2331466Y1164996D01*
X2322118Y1153007D01*
X2314244Y1140002D01*
X2307996Y1126134D01*
X2303475Y1111605D01*
X2300732Y1096670D01*
X2299817Y1081481D01*
X2300732Y1066342D01*
X2303475Y1051356D01*
X2307996Y1036878D01*
X2314244Y1023010D01*
X2322118Y1010005D01*
X2331466Y998016D01*
X2342235Y987247D01*
X2354173Y977900D01*
X2367178Y970026D01*
X2376678Y965758D01*
X2379827Y963523D01*
X2381910Y960272D01*
X2382672Y956513D01*
X2381910Y952703D01*
X2379827Y949452D01*
X2376678Y947216D01*
X2367178Y942949D01*
X2354173Y935126D01*
X2342235Y925728D01*
X2331466Y914958D01*
X2322118Y903020D01*
X2314244Y890016D01*
X2307996Y876147D01*
X2303475Y861618D01*
X2300833Y847140D01*
X2299106Y843076D01*
X2295855Y840130D01*
X2291689Y838860D01*
X2287320Y839419D01*
X2283612Y841756D01*
X1719529Y1405890D01*
X1717293Y1409192D01*
X1716532Y1413103D01*
X1716532Y2115616D01*
X1717293Y2119477D01*
X1719529Y2122779D01*
X1721104Y2124405D01*
X1726742Y2132431D01*
X1730908Y2141321D01*
X1733448Y2150821D01*
X1734312Y2160625D01*
X1733448Y2170430D01*
X1730908Y2179929D01*
X1726742Y2188819D01*
X1721104Y2196846D01*
X1714144Y2203805D01*
X1708962Y2207412D01*
X1706016Y2210663D01*
X1704695Y2214880D01*
X1705254Y2219248D01*
X1707642Y2222957D01*
X1934768Y2449880D01*
X1938070Y2452116D01*
X1941931Y2452878D01*
X4004005Y2452878D01*
X4007612Y2452217D01*
X4010812Y2450287D01*
X4013047Y2447340D01*
X4014114Y2443784D01*
X4013809Y2440076D01*
X4012590Y2435504D01*
X4011726Y2425700D01*
X4012590Y2415895D01*
X4015130Y2406396D01*
X4019296Y2397506D01*
X4024884Y2389479D01*
X4026509Y2387854D01*
X4028694Y2384552D01*
X4029456Y2380691D01*
X4029456Y1876399D01*
X4028744Y1872589D01*
X4026611Y1869338D01*
X4023360Y1867103D01*
X4019550Y1866239D01*
X4015740Y1866900D01*
X4012387Y1868982D01*
X4010101Y1872132D01*
X4007612Y1877466D01*
X4001973Y1885543D01*
X3995013Y1892503D01*
X3986987Y1898091D01*
X3978097Y1902256D01*
X3968597Y1904796D01*
X3958793Y1905660D01*
X3948988Y1904796D01*
X3939489Y1902256D01*
X3930599Y1898091D01*
X3922572Y1892503D01*
X3920947Y1890877D01*
X3917645Y1888693D01*
X3913784Y1887880D01*
X3674313Y1887880D01*
X3670452Y1888693D01*
X3667150Y1890877D01*
X3656126Y1901901D01*
X3653790Y1905609D01*
X3653180Y1909978D01*
X3654501Y1914143D01*
X3657498Y1917395D01*
X3661664Y1920290D01*
X3668623Y1927250D01*
X3674211Y1935327D01*
X3678377Y1944217D01*
X3680917Y1953717D01*
X3681780Y1963470D01*
X3680917Y1973275D01*
X3678377Y1982774D01*
X3674211Y1991664D01*
X3668623Y1999742D01*
X3661664Y2006701D01*
X3653586Y2012289D01*
X3644696Y2016455D01*
X3635197Y2018995D01*
X3627170Y2019706D01*
X3623767Y2020620D01*
X3620871Y2022652D01*
X3393897Y2249627D01*
X3387648Y2254758D01*
X3380994Y2258314D01*
X3373780Y2260498D01*
X3365754Y2261260D01*
X3034233Y2261260D01*
X3026206Y2260498D01*
X3018993Y2258314D01*
X3012338Y2254758D01*
X3006090Y2249627D01*
X2689961Y1933448D01*
X2687066Y1931466D01*
X2683662Y1930552D01*
X2675585Y1929841D01*
X2666085Y1927301D01*
X2657195Y1923135D01*
X2649169Y1917496D01*
X2642209Y1910537D01*
X2636570Y1902510D01*
X2632405Y1893620D01*
X2629865Y1884121D01*
X2629001Y1874316D01*
X2630271Y1860397D01*
X2629255Y1856841D01*
X2626969Y1853895D01*
X2623820Y1851964D01*
X2620162Y1851304D01*
X2187295Y1851304D01*
X2179269Y1850491D01*
X2172055Y1848307D01*
X2165350Y1844751D01*
X2159152Y1839620D01*
X2066086Y1746554D01*
X2063191Y1744573D01*
X2059787Y1743659D01*
X2051710Y1742948D01*
X2042210Y1740407D01*
X2033320Y1736242D01*
X2025294Y1730603D01*
X2018334Y1723643D01*
X2012696Y1715617D01*
X2008530Y1706727D01*
X2005990Y1697228D01*
X2005126Y1687423D01*
X2005990Y1677619D01*
X2008530Y1668119D01*
X2012696Y1659229D01*
X2018334Y1651203D01*
X2021128Y1648409D01*
X2023313Y1645107D01*
X2024125Y1641195D01*
X2023313Y1637334D01*
X2021128Y1634032D01*
X1905863Y1518716D01*
X1900732Y1512519D01*
X1897176Y1505813D01*
X1894992Y1498600D01*
X1894179Y1490573D01*
X1894179Y1399336D01*
X1894992Y1391310D01*
X1897176Y1384096D01*
X1900732Y1377442D01*
X1905863Y1371193D01*
X1948434Y1328623D01*
X1954631Y1323492D01*
X1961337Y1319936D01*
X1968550Y1317752D01*
X1976577Y1316939D01*
X2027986Y1316939D01*
X2036013Y1317752D01*
X2043226Y1319936D01*
X2049932Y1323492D01*
X2056130Y1328623D01*
X2143099Y1415592D01*
X2148230Y1421841D01*
X2151786Y1428496D01*
X2153970Y1435709D01*
X2154783Y1443736D01*
X2154783Y1480921D01*
X2155545Y1484833D01*
X2157780Y1488135D01*
X2159355Y1489710D01*
X2164994Y1497787D01*
X2169160Y1506677D01*
X2171700Y1516176D01*
X2172563Y1525930D01*
X2171700Y1535734D01*
X2169160Y1545234D01*
X2164994Y1554124D01*
X2159355Y1562201D01*
X2152548Y1569008D01*
X2150364Y1572310D01*
X2149551Y1576171D01*
X2150364Y1580083D01*
X2152548Y1583385D01*
X2245258Y1676095D01*
X2248560Y1678279D01*
X2252472Y1679041D01*
X2289657Y1679041D01*
X2293518Y1678279D01*
X2296820Y1676095D01*
X2299004Y1672793D01*
X2299766Y1668881D01*
X2299766Y1637842D01*
X2369362Y1637842D01*
X2369362Y1668881D01*
X2370124Y1672793D01*
X2372309Y1676095D01*
X2375611Y1678279D01*
X2379522Y1679041D01*
X2471877Y1679041D01*
X2475788Y1678279D01*
X2479090Y1676095D01*
X2481275Y1672793D01*
X2482037Y1668881D01*
X2482037Y1637842D01*
X2551633Y1637842D01*
X2551633Y1668881D01*
X2552395Y1672793D01*
X2554579Y1676095D01*
X2557881Y1678279D01*
X2561793Y1679041D01*
X2592832Y1679041D01*
X2596692Y1678279D01*
X2599994Y1676095D01*
X4201261Y74828D01*
X4203547Y71374D01*
X4204208Y67208D01*
X4203192Y63195D01*
X4200601Y59893D01*
X4196943Y57912D01*
X4192778Y57607D01*
X4188815Y58978D01*
X4186021Y60655D01*
X4172153Y66903D01*
X4157624Y71424D01*
X4142689Y74168D01*
X4127500Y75082D01*
X4112310Y74168D01*
X4097375Y71424D01*
X4082846Y66903D01*
X4068978Y60655D01*
X4055973Y52781D01*
X4044035Y43434D01*
X4033265Y32664D01*
X4023868Y20726D01*
X4016044Y7721D01*
X4009745Y-6197D01*
X4007510Y-9398D01*
X4004310Y-11480D01*
G37*

%LPD*%
G36*
X2811322Y-151892D02*
G01*
X2807411Y-151130D01*
X2804109Y-148894D01*
X2801924Y-145643D01*
X2801162Y-141732D01*
X2801162Y-107137D01*
X2739593Y-107137D01*
X2735681Y-106375D01*
X2732379Y-104190D01*
X2730195Y-100888D01*
X2729433Y-96977D01*
X2729433Y-4622D01*
X2730195Y-711D01*
X2732379Y2590D01*
X2735681Y4775D01*
X2739593Y5537D01*
X2801162Y5537D01*
X2801162Y61620D01*
X2798978Y60655D01*
X2785973Y52781D01*
X2774035Y43434D01*
X2763266Y32664D01*
X2753918Y20726D01*
X2748280Y11379D01*
X2745232Y8229D01*
X2741218Y6604D01*
X2736850Y6858D01*
X2732989Y8890D01*
X2730347Y12395D01*
X2729433Y16662D01*
X2729433Y38608D01*
X2728671Y44958D01*
X2726791Y50393D01*
X2723692Y55321D01*
X2719628Y59385D01*
X2714701Y62484D01*
X2709265Y64414D01*
X2702915Y65125D01*
X2504084Y65125D01*
X2497734Y64414D01*
X2492298Y62484D01*
X2487371Y59385D01*
X2483307Y55321D01*
X2480208Y50393D01*
X2478328Y44958D01*
X2477566Y38608D01*
X2477566Y-2032D01*
X2476804Y-5943D01*
X2474620Y-9194D01*
X2471318Y-11430D01*
X2467457Y-12192D01*
X1945589Y-12192D01*
X1941728Y-11430D01*
X1938426Y-9194D01*
X1551178Y378002D01*
X1548993Y381304D01*
X1548231Y385165D01*
X1548993Y389077D01*
X1551178Y392379D01*
X1553006Y394208D01*
X1556105Y399084D01*
X1557985Y404571D01*
X1558696Y410870D01*
X1558696Y446430D01*
X1496669Y446430D01*
X1496669Y430885D01*
X1495856Y427024D01*
X1493672Y423722D01*
X1490370Y421538D01*
X1486509Y420725D01*
X1409090Y420725D01*
X1405229Y421538D01*
X1401927Y423722D01*
X1399743Y427024D01*
X1398930Y430885D01*
X1398930Y446430D01*
X1336903Y446430D01*
X1336903Y430885D01*
X1336141Y427024D01*
X1333906Y423722D01*
X1330604Y421538D01*
X1326743Y420725D01*
X1289456Y420725D01*
X1285595Y421538D01*
X1282293Y423722D01*
X1280058Y427024D01*
X1279296Y430885D01*
X1279296Y446430D01*
X1217269Y446430D01*
X1217269Y430885D01*
X1216456Y427024D01*
X1214272Y423722D01*
X1210970Y421538D01*
X1207109Y420725D01*
X1129690Y420725D01*
X1125829Y421538D01*
X1122527Y423722D01*
X1120343Y427024D01*
X1119530Y430885D01*
X1119530Y446430D01*
X1057503Y446430D01*
X1057503Y430885D01*
X1056741Y427024D01*
X1054506Y423722D01*
X1051204Y421538D01*
X1047343Y420725D01*
X1010056Y420725D01*
X1006195Y421538D01*
X1002893Y423722D01*
X1000658Y427024D01*
X999896Y430885D01*
X999896Y446430D01*
X937869Y446430D01*
X937869Y430885D01*
X937056Y427024D01*
X934872Y423722D01*
X931570Y421538D01*
X927709Y420725D01*
X850290Y420725D01*
X846429Y421538D01*
X843127Y423722D01*
X840943Y427024D01*
X840130Y430885D01*
X840130Y446430D01*
X778103Y446430D01*
X778103Y430885D01*
X777341Y427024D01*
X775106Y423722D01*
X771804Y421538D01*
X767943Y420725D01*
X730656Y420725D01*
X726795Y421538D01*
X723493Y423722D01*
X721258Y427024D01*
X720496Y430885D01*
X720496Y446430D01*
X658469Y446430D01*
X658469Y430885D01*
X657656Y427024D01*
X655472Y423722D01*
X652170Y421538D01*
X648309Y420725D01*
X570890Y420725D01*
X567029Y421538D01*
X563727Y423722D01*
X561543Y427024D01*
X560730Y430885D01*
X560730Y446430D01*
X498703Y446430D01*
X498703Y430885D01*
X497941Y427024D01*
X495706Y423722D01*
X492404Y421538D01*
X488543Y420725D01*
X451256Y420725D01*
X447395Y421538D01*
X444093Y423722D01*
X441858Y427024D01*
X441096Y430885D01*
X441096Y446430D01*
X379069Y446430D01*
X379069Y430885D01*
X378256Y427024D01*
X376072Y423722D01*
X372770Y421538D01*
X368909Y420725D01*
X291490Y420725D01*
X287629Y421538D01*
X284327Y423722D01*
X282143Y427024D01*
X281330Y430885D01*
X281330Y446430D01*
X219303Y446430D01*
X219303Y430885D01*
X218541Y427024D01*
X216306Y423722D01*
X213004Y421538D01*
X209143Y420725D01*
X171856Y420725D01*
X167995Y421538D01*
X164693Y423722D01*
X162458Y427024D01*
X161696Y430885D01*
X161696Y446430D01*
X99669Y446430D01*
X99669Y430885D01*
X98856Y427024D01*
X96672Y423722D01*
X93370Y421538D01*
X89509Y420725D01*
X12090Y420725D01*
X8229Y421538D01*
X4927Y423722D01*
X2743Y427024D01*
X1930Y430885D01*
X1930Y446430D01*
X-24790Y446430D01*
X-28702Y447243D01*
X-31953Y449427D01*
X-34188Y452729D01*
X-34950Y456590D01*
X-34950Y534009D01*
X-34188Y537870D01*
X-31953Y541172D01*
X-28702Y543356D01*
X-24790Y544169D01*
X1930Y544169D01*
X1930Y598373D01*
X2743Y602234D01*
X4927Y605536D01*
X180949Y781558D01*
X184251Y783742D01*
X188112Y784504D01*
X1574038Y784504D01*
X1577898Y783742D01*
X1581200Y781558D01*
X2129739Y233070D01*
X2135936Y227939D01*
X2142642Y224383D01*
X2149856Y222199D01*
X2157882Y221386D01*
X2810916Y221386D01*
X2814828Y220624D01*
X2818130Y218389D01*
X2854350Y182219D01*
X2856331Y179324D01*
X2857246Y175920D01*
X2857957Y167843D01*
X2860497Y158343D01*
X2864662Y149453D01*
X2870301Y141427D01*
X2877261Y134467D01*
X2885287Y128828D01*
X2894177Y124663D01*
X2903677Y122123D01*
X2913481Y121259D01*
X2923286Y122123D01*
X2932785Y124663D01*
X2941675Y128828D01*
X2949702Y134467D01*
X2956661Y141427D01*
X2962300Y149453D01*
X2966466Y158343D01*
X2969006Y167843D01*
X2969869Y177647D01*
X2969006Y187452D01*
X2966466Y196951D01*
X2962300Y205841D01*
X2956661Y213867D01*
X2949702Y220827D01*
X2941675Y226466D01*
X2932785Y230632D01*
X2923286Y233171D01*
X2915208Y233883D01*
X2911805Y234797D01*
X2908909Y236778D01*
X2881579Y264160D01*
X2879394Y267411D01*
X2878632Y271322D01*
X2879394Y275234D01*
X2881579Y278485D01*
X2884881Y280720D01*
X2888792Y281482D01*
X2974390Y281482D01*
X2978302Y280720D01*
X2981604Y278485D01*
X3185261Y74879D01*
X3187547Y71374D01*
X3188208Y67208D01*
X3187192Y63195D01*
X3184601Y59893D01*
X3180892Y57912D01*
X3176727Y57607D01*
X3172815Y58978D01*
X3170021Y60655D01*
X3156153Y66903D01*
X3141624Y71424D01*
X3126689Y74168D01*
X3111500Y75082D01*
X3096310Y74168D01*
X3081375Y71424D01*
X3066846Y66903D01*
X3052978Y60655D01*
X3039973Y52781D01*
X3028035Y43434D01*
X3017266Y32664D01*
X3007918Y20726D01*
X3000044Y7721D01*
X2993745Y-6197D01*
X2989275Y-20675D01*
X2986532Y-35610D01*
X2985617Y-50800D01*
X2986532Y-65989D01*
X2989275Y-80924D01*
X2993745Y-95402D01*
X3000044Y-109321D01*
X3007918Y-122326D01*
X3017520Y-134569D01*
X3019755Y-137820D01*
X3020517Y-141732D01*
X3019755Y-145643D01*
X3017520Y-148894D01*
X3014218Y-151130D01*
X3010357Y-151892D01*
X2958642Y-151892D01*
X2954782Y-151130D01*
X2951480Y-148894D01*
X2949244Y-145643D01*
X2948482Y-141732D01*
X2949244Y-137820D01*
X2951734Y-134264D01*
X2961081Y-122326D01*
X2968955Y-109321D01*
X2969920Y-107137D01*
X2913837Y-107137D01*
X2913837Y-141732D01*
X2913075Y-145643D01*
X2910890Y-148894D01*
X2907588Y-151130D01*
X2903677Y-151892D01*
G37*

%LPC*%
G36*
X2913837Y5537D02*
G01*
X2969920Y5537D01*
X2968955Y7721D01*
X2961081Y20726D01*
X2951734Y32664D01*
X2940964Y43434D01*
X2929026Y52781D01*
X2916021Y60655D01*
X2913837Y61620D01*
G37*
G36*
X658469Y544169D02*
G01*
X720496Y544169D01*
X720496Y579729D01*
X719785Y586028D01*
X717905Y591515D01*
X714806Y596392D01*
X710692Y600506D01*
X705815Y603605D01*
X700328Y605485D01*
X694029Y606196D01*
X658469Y606196D01*
G37*
G36*
X937869Y544169D02*
G01*
X999896Y544169D01*
X999896Y579729D01*
X999185Y586028D01*
X997305Y591515D01*
X994206Y596392D01*
X990092Y600506D01*
X985215Y603605D01*
X979728Y605485D01*
X973429Y606196D01*
X937869Y606196D01*
G37*
G36*
X498703Y544169D02*
G01*
X560730Y544169D01*
X560730Y606196D01*
X525170Y606196D01*
X518871Y605485D01*
X513384Y603605D01*
X508508Y600506D01*
X504393Y596392D01*
X501294Y591515D01*
X499414Y586028D01*
X498703Y579729D01*
G37*
G36*
X1057503Y544169D02*
G01*
X1119530Y544169D01*
X1119530Y606196D01*
X1083970Y606196D01*
X1077671Y605485D01*
X1072184Y603605D01*
X1067308Y600506D01*
X1063193Y596392D01*
X1060094Y591515D01*
X1058214Y586028D01*
X1057503Y579729D01*
G37*
G36*
X379069Y544169D02*
G01*
X441096Y544169D01*
X441096Y579729D01*
X440385Y586028D01*
X438505Y591515D01*
X435406Y596392D01*
X431292Y600506D01*
X426415Y603605D01*
X420928Y605485D01*
X414629Y606196D01*
X379069Y606196D01*
G37*
G36*
X1217269Y544169D02*
G01*
X1279296Y544169D01*
X1279296Y579729D01*
X1278585Y586028D01*
X1276705Y591515D01*
X1273606Y596392D01*
X1269492Y600506D01*
X1264615Y603605D01*
X1259128Y605485D01*
X1252829Y606196D01*
X1217269Y606196D01*
G37*
G36*
X219303Y544169D02*
G01*
X281330Y544169D01*
X281330Y606196D01*
X245770Y606196D01*
X239471Y605485D01*
X233984Y603605D01*
X229108Y600506D01*
X224993Y596392D01*
X221894Y591515D01*
X220014Y586028D01*
X219303Y579729D01*
G37*
G36*
X1336903Y544169D02*
G01*
X1398930Y544169D01*
X1398930Y606196D01*
X1363370Y606196D01*
X1357071Y605485D01*
X1351584Y603605D01*
X1346708Y600506D01*
X1342593Y596392D01*
X1339494Y591515D01*
X1337614Y586028D01*
X1336903Y579729D01*
G37*
G36*
X99669Y544169D02*
G01*
X161696Y544169D01*
X161696Y579729D01*
X160985Y586028D01*
X159105Y591515D01*
X156006Y596392D01*
X151892Y600506D01*
X147015Y603605D01*
X141528Y605485D01*
X135229Y606196D01*
X99669Y606196D01*
G37*
G36*
X1496669Y544169D02*
G01*
X1558696Y544169D01*
X1558696Y579729D01*
X1557985Y586028D01*
X1556105Y591515D01*
X1553006Y596392D01*
X1548892Y600506D01*
X1544015Y603605D01*
X1538528Y605485D01*
X1532229Y606196D01*
X1496669Y606196D01*
G37*
G36*
X778103Y544169D02*
G01*
X840130Y544169D01*
X840130Y606196D01*
X804570Y606196D01*
X798271Y605485D01*
X792784Y603605D01*
X787908Y600506D01*
X783793Y596392D01*
X780694Y591515D01*
X778814Y586028D01*
X778103Y579729D01*
G37*

%LPD*%
G36*
X5196535Y-240792D02*
G01*
X5192674Y-240029D01*
X5189372Y-237794D01*
X5111292Y-159766D01*
X5108397Y-157276D01*
X5101945Y-153720D01*
X5096560Y-152196D01*
X5092293Y-151892D01*
X4990642Y-151892D01*
X4986731Y-151130D01*
X4983480Y-148894D01*
X4981244Y-145643D01*
X4980482Y-141732D01*
X4981244Y-137820D01*
X4983734Y-134264D01*
X4993081Y-122326D01*
X5000955Y-109321D01*
X5007203Y-95453D01*
X5011724Y-80924D01*
X5014468Y-65989D01*
X5015382Y-50800D01*
X5014468Y-35610D01*
X5011724Y-20675D01*
X5007203Y-6146D01*
X5000955Y7721D01*
X4993081Y20726D01*
X4983734Y32664D01*
X4972964Y43434D01*
X4961026Y52781D01*
X4948021Y60655D01*
X4934153Y66903D01*
X4919624Y71424D01*
X4904689Y74168D01*
X4889500Y75082D01*
X4874310Y74168D01*
X4859375Y71424D01*
X4844846Y66903D01*
X4838496Y64058D01*
X4834534Y63144D01*
X4830572Y63906D01*
X4827168Y66141D01*
X3053638Y1839620D01*
X3047441Y1844751D01*
X3040735Y1848307D01*
X3033522Y1850491D01*
X3025495Y1851304D01*
X2750616Y1851304D01*
X2746959Y1851964D01*
X2743809Y1853895D01*
X2741523Y1856841D01*
X2740507Y1860397D01*
X2741625Y1872589D01*
X2742539Y1875993D01*
X2744520Y1878888D01*
X3046780Y2181098D01*
X3050082Y2183282D01*
X3053943Y2184044D01*
X3273653Y2184044D01*
X3277717Y2183231D01*
X3281121Y2180793D01*
X3283254Y2177186D01*
X3283762Y2173020D01*
X3282950Y2164080D01*
X3283813Y2154275D01*
X3286353Y2144776D01*
X3290519Y2135886D01*
X3296158Y2127859D01*
X3303117Y2120900D01*
X3311144Y2115261D01*
X3320034Y2111095D01*
X3329533Y2108555D01*
X3337610Y2107844D01*
X3341014Y2106930D01*
X3343910Y2104948D01*
X3626459Y1822348D01*
X3632708Y1817217D01*
X3639362Y1813661D01*
X3646576Y1811477D01*
X3654602Y1810664D01*
X3910025Y1810664D01*
X3913936Y1809902D01*
X3917187Y1807718D01*
X3919423Y1804416D01*
X3920185Y1800504D01*
X3920185Y1771243D01*
X3920998Y1763217D01*
X3923182Y1756003D01*
X3926738Y1749348D01*
X3931869Y1743100D01*
X4220311Y1454658D01*
X4222292Y1451762D01*
X4223207Y1448358D01*
X4223918Y1440332D01*
X4226458Y1430832D01*
X4230624Y1421942D01*
X4236262Y1413865D01*
X4243222Y1406906D01*
X4251248Y1401318D01*
X4260138Y1397152D01*
X4269638Y1394612D01*
X4279442Y1393748D01*
X4289247Y1394612D01*
X4298746Y1397152D01*
X4307636Y1401318D01*
X4315663Y1406906D01*
X4322622Y1413865D01*
X4324451Y1416507D01*
X4327702Y1419453D01*
X4331868Y1420774D01*
X4336237Y1420215D01*
X4339945Y1417828D01*
X5314492Y443280D01*
X5316728Y440029D01*
X5317490Y436118D01*
X5316728Y432206D01*
X5314492Y428955D01*
X5311190Y426720D01*
X5307330Y425958D01*
X5277408Y425958D01*
X5271109Y425246D01*
X5265623Y423316D01*
X5260746Y420268D01*
X5256631Y416153D01*
X5253583Y411276D01*
X5251653Y405790D01*
X5250942Y399491D01*
X5250942Y230225D01*
X5250180Y226314D01*
X5247944Y223062D01*
X5244693Y220827D01*
X5240782Y220065D01*
X5159349Y220065D01*
X5155438Y220827D01*
X5152136Y223062D01*
X4895951Y479196D01*
X4893970Y482092D01*
X4893056Y485495D01*
X4892344Y493572D01*
X4889804Y503072D01*
X4885639Y511962D01*
X4880000Y519988D01*
X4873040Y526948D01*
X4865014Y532587D01*
X4856124Y536752D01*
X4846624Y539292D01*
X4836820Y540156D01*
X4827016Y539292D01*
X4817516Y536752D01*
X4808626Y532587D01*
X4800600Y526948D01*
X4793640Y519988D01*
X4788001Y511962D01*
X4783836Y503072D01*
X4781296Y493572D01*
X4780432Y483768D01*
X4781296Y473964D01*
X4783836Y464464D01*
X4788001Y455574D01*
X4793640Y447548D01*
X4800600Y440588D01*
X4808626Y434949D01*
X4817516Y430784D01*
X4827016Y428243D01*
X4835093Y427532D01*
X4838496Y426618D01*
X4841392Y424637D01*
X5111496Y154533D01*
X5117693Y149402D01*
X5124399Y145846D01*
X5131612Y143662D01*
X5139639Y142849D01*
X5487568Y142849D01*
X5495594Y143662D01*
X5502808Y145846D01*
X5509463Y149402D01*
X5515711Y154533D01*
X5535269Y174091D01*
X5540400Y180289D01*
X5543956Y186994D01*
X5546140Y194208D01*
X5546953Y202234D01*
X5546953Y726490D01*
X5547918Y730808D01*
X5550611Y734314D01*
X5554573Y736346D01*
X5558993Y736498D01*
X5563057Y734720D01*
X5566003Y731367D01*
X5568086Y727557D01*
X5575401Y717753D01*
X5584088Y709117D01*
X5593892Y701751D01*
X5604662Y695858D01*
X5616143Y691591D01*
X5618988Y690981D01*
X5618988Y737666D01*
X5557113Y737666D01*
X5553202Y738428D01*
X5549900Y740613D01*
X5547715Y743915D01*
X5546953Y747826D01*
X5546953Y800201D01*
X5547715Y804062D01*
X5549900Y807364D01*
X5553202Y809599D01*
X5557113Y810361D01*
X5618988Y810361D01*
X5618988Y857046D01*
X5616143Y856386D01*
X5604662Y852119D01*
X5593892Y846277D01*
X5584088Y838911D01*
X5575401Y830224D01*
X5568086Y820419D01*
X5566003Y816660D01*
X5563057Y813308D01*
X5558993Y811530D01*
X5554573Y811682D01*
X5550611Y813663D01*
X5547918Y817168D01*
X5546953Y821486D01*
X5546953Y891082D01*
X5546140Y899109D01*
X5543956Y906322D01*
X5540400Y912977D01*
X5535269Y919226D01*
X5405628Y1048816D01*
X5403646Y1051712D01*
X5402732Y1055116D01*
X5402021Y1063193D01*
X5399481Y1072692D01*
X5395315Y1081582D01*
X5389676Y1089609D01*
X5382717Y1096568D01*
X5374690Y1102207D01*
X5365800Y1106373D01*
X5356301Y1108913D01*
X5346496Y1109776D01*
X5336692Y1108913D01*
X5327192Y1106373D01*
X5318302Y1102207D01*
X5310276Y1096568D01*
X5303316Y1089609D01*
X5297678Y1081582D01*
X5293512Y1072692D01*
X5290972Y1063193D01*
X5290108Y1053388D01*
X5290972Y1043584D01*
X5293512Y1034084D01*
X5297678Y1025194D01*
X5303316Y1017168D01*
X5310276Y1010208D01*
X5318302Y1004569D01*
X5327192Y1000404D01*
X5336692Y997864D01*
X5344769Y997153D01*
X5348173Y996238D01*
X5351068Y994257D01*
X5466740Y878535D01*
X5468924Y875233D01*
X5469737Y871372D01*
X5469737Y436118D01*
X5468924Y432206D01*
X5466740Y428955D01*
X5463438Y426720D01*
X5459577Y425958D01*
X5420868Y425958D01*
X5416956Y426720D01*
X5413705Y428955D01*
X5411470Y432206D01*
X5410708Y436118D01*
X5410708Y439826D01*
X5409895Y447852D01*
X5407710Y455066D01*
X5404154Y461721D01*
X5399024Y467969D01*
X5195570Y671423D01*
X5193334Y674878D01*
X5192623Y678891D01*
X5193538Y682904D01*
X5195976Y686206D01*
X5195976Y737666D01*
X5133543Y737666D01*
X5129682Y738428D01*
X5126380Y740613D01*
X4644948Y1222044D01*
X4642764Y1225296D01*
X4641951Y1229055D01*
X4642662Y1232865D01*
X4644694Y1236167D01*
X4647844Y1238453D01*
X4653432Y1241094D01*
X4661509Y1246682D01*
X4668469Y1253642D01*
X4674057Y1261719D01*
X4678222Y1270609D01*
X4680762Y1280109D01*
X4681626Y1289862D01*
X4680762Y1299667D01*
X4678222Y1309166D01*
X4675632Y1314805D01*
X4674666Y1318768D01*
X4675378Y1322832D01*
X4677613Y1326286D01*
X5184800Y1833422D01*
X5187696Y1835454D01*
X5191099Y1836369D01*
X5199126Y1837080D01*
X5208625Y1839620D01*
X5217515Y1843786D01*
X5225592Y1849374D01*
X5232552Y1856333D01*
X5238140Y1864410D01*
X5242306Y1873300D01*
X5244236Y1880514D01*
X5246166Y1884273D01*
X5249468Y1886915D01*
X5253532Y1888032D01*
X5257698Y1887372D01*
X5261254Y1885035D01*
X5345226Y1801063D01*
X5347462Y1797761D01*
X5348224Y1793849D01*
X5348224Y1723186D01*
X5347360Y1719122D01*
X5344922Y1715719D01*
X5341366Y1713585D01*
X5337200Y1713077D01*
X5333187Y1714296D01*
X5328005Y1717141D01*
X5316524Y1721408D01*
X5308701Y1723085D01*
X5308701Y1675333D01*
X5338064Y1675333D01*
X5341975Y1674571D01*
X5345226Y1672386D01*
X5347462Y1669084D01*
X5348224Y1665173D01*
X5348224Y1612798D01*
X5347462Y1608937D01*
X5345226Y1605635D01*
X5341975Y1603400D01*
X5338064Y1602638D01*
X5308701Y1602638D01*
X5308701Y1569821D01*
X5307888Y1565910D01*
X5305704Y1562608D01*
X5302402Y1560423D01*
X5286806Y1557934D01*
X5276900Y1554530D01*
X5267706Y1549552D01*
X5259425Y1543100D01*
X5252364Y1535430D01*
X5246624Y1526641D01*
X5242407Y1517091D01*
X5239867Y1506931D01*
X5238953Y1496466D01*
X5239867Y1486052D01*
X5242407Y1475892D01*
X5246624Y1466342D01*
X5252364Y1457553D01*
X5259425Y1449882D01*
X5267706Y1443431D01*
X5276900Y1438452D01*
X5286806Y1435049D01*
X5297119Y1433322D01*
X5307584Y1433322D01*
X5317896Y1435049D01*
X5327802Y1438452D01*
X5333238Y1441399D01*
X5337200Y1442567D01*
X5341366Y1442059D01*
X5344922Y1439926D01*
X5347360Y1436522D01*
X5348224Y1432458D01*
X5348224Y1349908D01*
X5347462Y1345996D01*
X5345226Y1342694D01*
X5293207Y1290675D01*
X5290312Y1288643D01*
X5286908Y1287729D01*
X5278780Y1287018D01*
X5269280Y1284478D01*
X5260390Y1280312D01*
X5252313Y1274673D01*
X5245354Y1267714D01*
X5239766Y1259687D01*
X5235600Y1250797D01*
X5233060Y1241298D01*
X5232196Y1231493D01*
X5233060Y1221689D01*
X5235600Y1212189D01*
X5239766Y1203299D01*
X5245354Y1195273D01*
X5252313Y1188313D01*
X5260390Y1182674D01*
X5269280Y1178509D01*
X5278780Y1175969D01*
X5288584Y1175105D01*
X5298338Y1175969D01*
X5307838Y1178509D01*
X5316728Y1182674D01*
X5324805Y1188313D01*
X5331764Y1195273D01*
X5337352Y1203299D01*
X5341518Y1212189D01*
X5344058Y1221689D01*
X5344769Y1229664D01*
X5345684Y1233068D01*
X5347716Y1235964D01*
X5413756Y1302054D01*
X5418886Y1308252D01*
X5422442Y1314958D01*
X5424627Y1322171D01*
X5425440Y1330198D01*
X5425440Y1813560D01*
X5424627Y1821586D01*
X5422442Y1828800D01*
X5418886Y1835505D01*
X5413756Y1841703D01*
X4737049Y2518410D01*
X4730851Y2523540D01*
X4724146Y2527096D01*
X4716932Y2529281D01*
X4708906Y2530094D01*
X1922272Y2530094D01*
X1914245Y2529332D01*
X1907032Y2527096D01*
X1900377Y2523540D01*
X1894128Y2518460D01*
X1590802Y2215388D01*
X1585671Y2209139D01*
X1582115Y2202484D01*
X1579930Y2195220D01*
X1579118Y2187244D01*
X1579118Y1091793D01*
X1578356Y1087882D01*
X1576120Y1084580D01*
X1572869Y1082395D01*
X1568958Y1081633D01*
X1565046Y1082395D01*
X1561795Y1084580D01*
X332333Y2314041D01*
X330301Y2316937D01*
X329387Y2320340D01*
X329692Y2323846D01*
X331216Y2327046D01*
X337108Y2335479D01*
X341274Y2344369D01*
X343814Y2353868D01*
X344678Y2363673D01*
X343814Y2373477D01*
X341274Y2382977D01*
X337108Y2391867D01*
X331470Y2399893D01*
X324510Y2406853D01*
X316484Y2412492D01*
X307594Y2416657D01*
X298094Y2419197D01*
X288290Y2420061D01*
X278485Y2419197D01*
X268986Y2416657D01*
X260096Y2412492D01*
X252069Y2406853D01*
X245110Y2399893D01*
X239471Y2391867D01*
X235305Y2382977D01*
X232765Y2373477D01*
X231902Y2363673D01*
X232765Y2353868D01*
X235305Y2344369D01*
X239471Y2335479D01*
X245110Y2327452D01*
X246684Y2325827D01*
X248920Y2322525D01*
X249682Y2318664D01*
X249682Y2303983D01*
X250494Y2295956D01*
X252679Y2288743D01*
X256235Y2282037D01*
X261366Y2275840D01*
X1536750Y1000404D01*
X1538935Y997153D01*
X1539697Y993241D01*
X1538935Y989330D01*
X1536750Y986078D01*
X1533448Y983843D01*
X1529537Y983081D01*
X991819Y983081D01*
X987958Y983843D01*
X984656Y986078D01*
X983030Y987653D01*
X975004Y993292D01*
X966114Y997458D01*
X956614Y999998D01*
X946810Y1000861D01*
X937006Y999998D01*
X929894Y998067D01*
X925677Y997864D01*
X921715Y999388D01*
X918718Y1002334D01*
X917194Y1006297D01*
X917448Y1010513D01*
X918616Y1014882D01*
X919480Y1024686D01*
X918616Y1034491D01*
X916076Y1043990D01*
X911910Y1052880D01*
X906271Y1060907D01*
X899312Y1067866D01*
X891286Y1073505D01*
X882396Y1077671D01*
X872896Y1080211D01*
X863092Y1081074D01*
X853287Y1080211D01*
X843787Y1077671D01*
X834898Y1073505D01*
X826871Y1067866D01*
X825246Y1066292D01*
X821944Y1064056D01*
X818083Y1063294D01*
X213817Y1063294D01*
X205790Y1062482D01*
X198577Y1060297D01*
X191922Y1056741D01*
X185674Y1051610D01*
X-20269Y845718D01*
X-23520Y843483D01*
X-27432Y842721D01*
X-31343Y843483D01*
X-34594Y845718D01*
X-36830Y849020D01*
X-37592Y852881D01*
X-37592Y2531414D01*
X-36830Y2535275D01*
X-34594Y2538577D01*
X7772Y2580995D01*
X11074Y2583180D01*
X14935Y2583942D01*
X5738774Y2590292D01*
X5742533Y2589580D01*
X5745734Y2587498D01*
X5952591Y2392121D01*
X5954979Y2388768D01*
X5955792Y2384755D01*
X5955792Y-136347D01*
X5954928Y-140462D01*
X5952439Y-143865D01*
X5847638Y-238201D01*
X5844489Y-240131D01*
X5840882Y-240792D01*
G37*

%LPC*%
G36*
X5776468Y196291D02*
G01*
X5789523Y203809D01*
X5801410Y212801D01*
X5812129Y223164D01*
X5821476Y234797D01*
X5829350Y247497D01*
X5830874Y250799D01*
X5776569Y250799D01*
G37*
G36*
X5668670Y196596D02*
G01*
X5668670Y250799D01*
X5614365Y250799D01*
X5619648Y241046D01*
X5628233Y228854D01*
X5638292Y217830D01*
X5649620Y208127D01*
X5662066Y199898D01*
G37*
G36*
X5614365Y358749D02*
G01*
X5668670Y358749D01*
X5668670Y413004D01*
X5662066Y409701D01*
X5649620Y401472D01*
X5638292Y391769D01*
X5628233Y380746D01*
X5619648Y368554D01*
G37*
G36*
X5776620Y358749D02*
G01*
X5830874Y358749D01*
X5829350Y362102D01*
X5821476Y374802D01*
X5812129Y386435D01*
X5801410Y396798D01*
X5789523Y405790D01*
X5776620Y413258D01*
G37*
G36*
X5308701Y689914D02*
G01*
X5316524Y691591D01*
X5328005Y695858D01*
X5338775Y701751D01*
X5348579Y709117D01*
X5357215Y717753D01*
X5364581Y727557D01*
X5370068Y737666D01*
X5308701Y737666D01*
G37*
G36*
X5721654Y690981D02*
G01*
X5724499Y691591D01*
X5735980Y695858D01*
X5746750Y701751D01*
X5756554Y709117D01*
X5765241Y717753D01*
X5772556Y727557D01*
X5778093Y737666D01*
X5721654Y737666D01*
G37*
G36*
X5721654Y810361D02*
G01*
X5778093Y810361D01*
X5772556Y820419D01*
X5765241Y830224D01*
X5756554Y838911D01*
X5746750Y846277D01*
X5735980Y852119D01*
X5724499Y856386D01*
X5721654Y857046D01*
G37*
G36*
X5134559Y810361D02*
G01*
X5195976Y810361D01*
X5195976Y858113D01*
X5188153Y856386D01*
X5176672Y852119D01*
X5165902Y846277D01*
X5156098Y838911D01*
X5147411Y830224D01*
X5140096Y820419D01*
G37*
G36*
X5308701Y810361D02*
G01*
X5370068Y810361D01*
X5364581Y820419D01*
X5357215Y830224D01*
X5348579Y838911D01*
X5338318Y846480D01*
X5335270Y849071D01*
X5333441Y852627D01*
X5333136Y856589D01*
X5334355Y860399D01*
X5336946Y863396D01*
X5345277Y869899D01*
X5352338Y877569D01*
X5358079Y886358D01*
X5362295Y895908D01*
X5364886Y906068D01*
X5365750Y916482D01*
X5364886Y926947D01*
X5362295Y937107D01*
X5358079Y946658D01*
X5352338Y955446D01*
X5345277Y963117D01*
X5336997Y969568D01*
X5327802Y974547D01*
X5317896Y977950D01*
X5307584Y979678D01*
X5297119Y979678D01*
X5286806Y977950D01*
X5276900Y974547D01*
X5267706Y969568D01*
X5259425Y963117D01*
X5252364Y955446D01*
X5246624Y946658D01*
X5242407Y937107D01*
X5239867Y926947D01*
X5238953Y916482D01*
X5239867Y906068D01*
X5242407Y895908D01*
X5246624Y886358D01*
X5252364Y877569D01*
X5259425Y869899D01*
X5267706Y863447D01*
X5276900Y858469D01*
X5286806Y855065D01*
X5302402Y852576D01*
X5305704Y850392D01*
X5307888Y847090D01*
X5308701Y843178D01*
G37*
G36*
X5195976Y1554886D02*
G01*
X5195976Y1602638D01*
X5134559Y1602638D01*
X5140096Y1592580D01*
X5147411Y1582775D01*
X5156098Y1574088D01*
X5165902Y1566722D01*
X5176672Y1560880D01*
X5188153Y1556613D01*
G37*
G36*
X5721654Y1555953D02*
G01*
X5724499Y1556613D01*
X5735980Y1560880D01*
X5746750Y1566722D01*
X5756554Y1574088D01*
X5765241Y1582775D01*
X5772556Y1592580D01*
X5778093Y1602638D01*
X5721654Y1602638D01*
G37*
G36*
X5618988Y1555953D02*
G01*
X5618988Y1602638D01*
X5562549Y1602638D01*
X5568086Y1592580D01*
X5575401Y1582775D01*
X5584088Y1574088D01*
X5593892Y1566722D01*
X5604662Y1560880D01*
X5616143Y1556613D01*
G37*
G36*
X5562549Y1675333D02*
G01*
X5618988Y1675333D01*
X5618988Y1722018D01*
X5616143Y1721408D01*
X5604662Y1717141D01*
X5593892Y1711248D01*
X5584088Y1703882D01*
X5575401Y1695246D01*
X5568086Y1685442D01*
G37*
G36*
X5721654Y1675333D02*
G01*
X5778093Y1675333D01*
X5772556Y1685442D01*
X5765241Y1695246D01*
X5756554Y1703882D01*
X5746750Y1711248D01*
X5735980Y1717141D01*
X5724499Y1721408D01*
X5721654Y1722018D01*
G37*
G36*
X5134559Y1675333D02*
G01*
X5195976Y1675333D01*
X5195976Y1723085D01*
X5188153Y1721408D01*
X5176672Y1717141D01*
X5165902Y1711248D01*
X5156098Y1703882D01*
X5147411Y1695246D01*
X5140096Y1685442D01*
G37*
G36*
X5778500Y1790192D02*
G01*
X5793892Y1791157D01*
X5809030Y1793900D01*
X5823712Y1798472D01*
X5837732Y1804822D01*
X5850940Y1812798D01*
X5863031Y1822297D01*
X5873902Y1833168D01*
X5883402Y1845259D01*
X5891377Y1858467D01*
X5897727Y1872488D01*
X5902299Y1887169D01*
X5905042Y1902307D01*
X5906008Y1917700D01*
X5905042Y1933092D01*
X5902299Y1948230D01*
X5897727Y1962912D01*
X5891377Y1976932D01*
X5883402Y1990140D01*
X5873902Y2002231D01*
X5863031Y2013102D01*
X5850940Y2022602D01*
X5837732Y2030577D01*
X5823712Y2036927D01*
X5809030Y2041499D01*
X5793892Y2044242D01*
X5778500Y2045207D01*
X5763107Y2044242D01*
X5747969Y2041499D01*
X5733288Y2036927D01*
X5719267Y2030577D01*
X5706059Y2022602D01*
X5693968Y2013102D01*
X5683097Y2002231D01*
X5673598Y1990140D01*
X5665622Y1976932D01*
X5659272Y1962912D01*
X5654700Y1948230D01*
X5651957Y1933092D01*
X5650992Y1917700D01*
X5651957Y1902307D01*
X5654700Y1887169D01*
X5659272Y1872488D01*
X5665622Y1858467D01*
X5673598Y1845259D01*
X5683097Y1833168D01*
X5693968Y1822297D01*
X5706059Y1812798D01*
X5719267Y1804822D01*
X5733288Y1798472D01*
X5747969Y1793900D01*
X5763107Y1791157D01*
G37*
G36*
X5778500Y2221992D02*
G01*
X5793892Y2222957D01*
X5809030Y2225700D01*
X5823712Y2230272D01*
X5837732Y2236622D01*
X5850940Y2244598D01*
X5863031Y2254097D01*
X5873902Y2264968D01*
X5883402Y2277059D01*
X5891377Y2290267D01*
X5897727Y2304288D01*
X5902299Y2318969D01*
X5905042Y2334107D01*
X5906008Y2349500D01*
X5905042Y2364892D01*
X5902299Y2380030D01*
X5897727Y2394712D01*
X5891377Y2408732D01*
X5883402Y2421940D01*
X5873902Y2434031D01*
X5863031Y2444902D01*
X5850940Y2454402D01*
X5837732Y2462377D01*
X5823712Y2468727D01*
X5809030Y2473299D01*
X5793892Y2476042D01*
X5778500Y2477008D01*
X5763107Y2476042D01*
X5747969Y2473299D01*
X5733288Y2468727D01*
X5719267Y2462377D01*
X5706059Y2454402D01*
X5693968Y2444902D01*
X5683097Y2434031D01*
X5673598Y2421940D01*
X5665622Y2408732D01*
X5659272Y2394712D01*
X5654700Y2380030D01*
X5651957Y2364892D01*
X5650992Y2349500D01*
X5651957Y2334107D01*
X5654700Y2318969D01*
X5659272Y2304288D01*
X5665622Y2290267D01*
X5673598Y2277059D01*
X5683097Y2264968D01*
X5693968Y2254097D01*
X5706059Y2244598D01*
X5719267Y2236622D01*
X5733288Y2230272D01*
X5747969Y2225700D01*
X5763107Y2222957D01*
G37*

%LPD*%
G36*
X-620064Y-240792D02*
G01*
X-623925Y-240029D01*
X-627227Y-237794D01*
X-694994Y-170027D01*
X-697230Y-166725D01*
X-697992Y-162864D01*
X-697992Y607364D01*
X-697230Y611225D01*
X-694994Y614527D01*
X-652627Y656894D01*
X-649325Y659130D01*
X-645464Y659892D01*
X-360680Y659892D01*
X-356362Y658926D01*
X-352907Y656234D01*
X-350875Y652322D01*
X-350672Y647903D01*
X-352399Y643839D01*
X-361950Y635762D01*
X-368604Y629056D01*
X-373735Y622858D01*
X-377291Y616153D01*
X-379476Y608939D01*
X-380288Y600862D01*
X-380339Y595833D01*
X-381304Y591616D01*
X-383946Y588213D01*
X-387756Y586181D01*
X-392074Y585927D01*
X-396087Y587451D01*
X-399084Y590550D01*
X-402793Y596392D01*
X-406908Y600506D01*
X-411784Y603605D01*
X-417271Y605485D01*
X-423570Y606196D01*
X-459130Y606196D01*
X-459130Y544169D01*
X-390448Y544169D01*
X-386537Y543356D01*
X-383286Y541172D01*
X-381050Y537870D01*
X-380288Y534009D01*
X-380288Y457606D01*
X-381050Y453694D01*
X-384251Y449427D01*
X-387553Y447243D01*
X-391414Y446430D01*
X-459130Y446430D01*
X-459130Y430987D01*
X-459943Y427075D01*
X-462127Y423824D01*
X-465429Y421589D01*
X-469290Y420827D01*
X-536498Y420827D01*
X-545642Y419912D01*
X-549859Y420319D01*
X-553516Y422452D01*
X-555955Y425856D01*
X-556869Y430022D01*
X-556869Y446430D01*
X-618896Y446430D01*
X-618896Y410870D01*
X-618185Y404571D01*
X-616305Y399084D01*
X-613206Y394208D01*
X-609092Y390093D01*
X-604316Y387096D01*
X-601624Y384606D01*
X-599998Y381406D01*
X-599592Y377799D01*
X-600456Y374294D01*
X-602538Y371297D01*
X-648004Y325780D01*
X-653135Y319582D01*
X-656691Y312877D01*
X-658876Y305663D01*
X-659688Y297637D01*
X-659688Y192024D01*
X-658876Y183997D01*
X-656691Y176784D01*
X-653135Y170078D01*
X-648004Y163880D01*
X-585419Y101295D01*
X-579221Y96164D01*
X-574700Y93776D01*
X-571652Y91236D01*
X-569772Y87680D01*
X-569417Y83718D01*
X-570585Y79908D01*
X-573176Y76860D01*
X-582574Y69392D01*
X-592429Y59182D01*
X-600913Y47802D01*
X-607923Y35407D01*
X-613257Y22250D01*
X-616864Y8483D01*
X-618642Y-5588D01*
X-618642Y-19812D01*
X-616864Y-33883D01*
X-613257Y-47650D01*
X-607923Y-60807D01*
X-600913Y-73202D01*
X-592429Y-84582D01*
X-582574Y-94792D01*
X-571449Y-103632D01*
X-559308Y-110998D01*
X-546303Y-116789D01*
X-532688Y-120802D01*
X-518668Y-123088D01*
X-504443Y-123545D01*
X-490321Y-122174D01*
X-476453Y-119024D01*
X-463092Y-114096D01*
X-450494Y-107543D01*
X-438861Y-99415D01*
X-428345Y-89865D01*
X-419150Y-79044D01*
X-411378Y-67106D01*
X-405231Y-54305D01*
X-400761Y-40843D01*
X-398018Y-26873D01*
X-397103Y-12700D01*
X-398018Y1473D01*
X-400761Y15443D01*
X-405231Y28905D01*
X-411378Y41706D01*
X-419150Y53644D01*
X-428345Y64465D01*
X-436575Y71932D01*
X-438962Y75184D01*
X-439928Y79146D01*
X-439216Y83108D01*
X-437032Y86512D01*
X-433730Y88798D01*
X-429768Y89611D01*
X-306832Y89611D01*
X-302768Y88747D01*
X-299364Y86360D01*
X-297230Y82804D01*
X-296672Y78689D01*
X-297840Y74726D01*
X-300482Y71526D01*
X-303174Y69392D01*
X-313029Y59182D01*
X-321513Y47802D01*
X-328523Y35407D01*
X-333857Y22250D01*
X-337464Y8483D01*
X-339242Y-5588D01*
X-339242Y-19812D01*
X-337464Y-33883D01*
X-333857Y-47650D01*
X-328523Y-60807D01*
X-321513Y-73202D01*
X-313029Y-84582D01*
X-303174Y-94792D01*
X-292049Y-103632D01*
X-279908Y-110998D01*
X-266903Y-116789D01*
X-253288Y-120802D01*
X-239267Y-123088D01*
X-225044Y-123545D01*
X-210921Y-122174D01*
X-197053Y-119024D01*
X-183692Y-114096D01*
X-171094Y-107543D01*
X-159461Y-99415D01*
X-148945Y-89865D01*
X-139750Y-79044D01*
X-131978Y-67106D01*
X-125831Y-54305D01*
X-121361Y-40843D01*
X-118618Y-26873D01*
X-117703Y-12700D01*
X-118618Y1473D01*
X-121361Y15443D01*
X-125831Y28905D01*
X-131978Y41706D01*
X-139750Y53644D01*
X-148945Y64465D01*
X-157175Y71932D01*
X-159562Y75184D01*
X-160528Y79146D01*
X-159816Y83108D01*
X-157632Y86512D01*
X-154330Y88798D01*
X-150368Y89611D01*
X-27432Y89611D01*
X-23368Y88747D01*
X-19964Y86360D01*
X-17830Y82804D01*
X-17272Y78689D01*
X-18440Y74726D01*
X-21082Y71526D01*
X-23774Y69392D01*
X-33629Y59182D01*
X-42113Y47802D01*
X-49123Y35407D01*
X-54457Y22250D01*
X-58064Y8483D01*
X-59842Y-5588D01*
X-59842Y-19812D01*
X-58064Y-33883D01*
X-54457Y-47650D01*
X-49123Y-60807D01*
X-42113Y-73202D01*
X-33629Y-84582D01*
X-23774Y-94792D01*
X-12649Y-103632D01*
X-508Y-110998D01*
X12496Y-116789D01*
X26111Y-120802D01*
X40132Y-123088D01*
X54356Y-123545D01*
X68478Y-122174D01*
X82346Y-119024D01*
X95707Y-114096D01*
X108305Y-107543D01*
X119938Y-99415D01*
X130454Y-89865D01*
X139649Y-79044D01*
X147421Y-67106D01*
X153568Y-54305D01*
X158038Y-40843D01*
X160782Y-26873D01*
X161696Y-12700D01*
X160782Y1473D01*
X158038Y15443D01*
X153568Y28905D01*
X147421Y41706D01*
X139649Y53644D01*
X130454Y64465D01*
X122224Y71932D01*
X119837Y75184D01*
X118872Y79146D01*
X119583Y83108D01*
X121767Y86512D01*
X125069Y88798D01*
X129032Y89611D01*
X169062Y89611D01*
X172974Y88849D01*
X176276Y86614D01*
X224739Y38150D01*
X226923Y34899D01*
X227685Y31038D01*
X226974Y27178D01*
X224942Y22250D01*
X221335Y8483D01*
X219557Y-5588D01*
X219557Y-19812D01*
X221335Y-33883D01*
X224942Y-47650D01*
X230276Y-60807D01*
X237286Y-73202D01*
X245770Y-84582D01*
X255625Y-94792D01*
X266750Y-103632D01*
X278892Y-110998D01*
X291896Y-116789D01*
X305511Y-120802D01*
X319532Y-123088D01*
X333756Y-123545D01*
X347878Y-122174D01*
X361746Y-119024D01*
X375107Y-114096D01*
X387705Y-107543D01*
X399338Y-99415D01*
X409854Y-89865D01*
X419049Y-79044D01*
X426821Y-67106D01*
X432968Y-54305D01*
X437438Y-40843D01*
X440182Y-26873D01*
X441096Y-12700D01*
X440182Y1473D01*
X437438Y15443D01*
X432968Y28905D01*
X426821Y41706D01*
X419049Y53644D01*
X409854Y64465D01*
X399338Y74015D01*
X387705Y82143D01*
X375107Y88696D01*
X361746Y93624D01*
X347878Y96774D01*
X333756Y98145D01*
X319532Y97688D01*
X305511Y95402D01*
X286562Y89865D01*
X282600Y90627D01*
X279247Y92862D01*
X224028Y148031D01*
X221843Y151333D01*
X221081Y155244D01*
X221843Y159105D01*
X224028Y162407D01*
X227329Y164642D01*
X231241Y165404D01*
X245364Y165404D01*
X249326Y164592D01*
X252679Y162306D01*
X255625Y159207D01*
X266750Y150368D01*
X278892Y143002D01*
X291896Y137210D01*
X305511Y133197D01*
X319532Y130911D01*
X333756Y130454D01*
X347878Y131826D01*
X361746Y134975D01*
X375107Y139903D01*
X387705Y146456D01*
X399338Y154584D01*
X408330Y162763D01*
X411480Y164693D01*
X415137Y165404D01*
X524764Y165404D01*
X528726Y164592D01*
X532079Y162306D01*
X535025Y159207D01*
X546150Y150368D01*
X558292Y143002D01*
X571296Y137210D01*
X584911Y133197D01*
X598932Y130911D01*
X613156Y130454D01*
X627278Y131826D01*
X641146Y134975D01*
X654507Y139903D01*
X667105Y146456D01*
X678738Y154584D01*
X687730Y162763D01*
X690880Y164693D01*
X694537Y165404D01*
X804164Y165404D01*
X808126Y164592D01*
X811479Y162306D01*
X814425Y159207D01*
X825550Y150368D01*
X837692Y143002D01*
X850696Y137210D01*
X864311Y133197D01*
X878332Y130911D01*
X892556Y130454D01*
X906678Y131826D01*
X920546Y134975D01*
X933907Y139903D01*
X946505Y146456D01*
X958138Y154584D01*
X967130Y162763D01*
X970280Y164693D01*
X973937Y165404D01*
X1083564Y165404D01*
X1087526Y164592D01*
X1090879Y162306D01*
X1093825Y159207D01*
X1104950Y150368D01*
X1117092Y143002D01*
X1130096Y137210D01*
X1143711Y133197D01*
X1157732Y130911D01*
X1171956Y130454D01*
X1186078Y131826D01*
X1199946Y134975D01*
X1213307Y139903D01*
X1225905Y146456D01*
X1237538Y154584D01*
X1246530Y162763D01*
X1249680Y164693D01*
X1253337Y165404D01*
X1362964Y165404D01*
X1366926Y164592D01*
X1370279Y162306D01*
X1373225Y159207D01*
X1384350Y150368D01*
X1396492Y143002D01*
X1409496Y137210D01*
X1423111Y133197D01*
X1437132Y130911D01*
X1451356Y130454D01*
X1465478Y131826D01*
X1479346Y134975D01*
X1492707Y139903D01*
X1505305Y146456D01*
X1516938Y154584D01*
X1527454Y164134D01*
X1536649Y174955D01*
X1544421Y186893D01*
X1550568Y199694D01*
X1555038Y213156D01*
X1557782Y227126D01*
X1558442Y237693D01*
X1559407Y241401D01*
X1561744Y244500D01*
X1564995Y246532D01*
X1568805Y247192D01*
X1572564Y246379D01*
X1575765Y244195D01*
X1897735Y-77724D01*
X1903984Y-82854D01*
X1910638Y-86410D01*
X1917852Y-88595D01*
X1925878Y-89408D01*
X2467457Y-89408D01*
X2471318Y-90170D01*
X2474620Y-92405D01*
X2476804Y-95656D01*
X2477566Y-99568D01*
X2477566Y-140208D01*
X2477211Y-144830D01*
X2475128Y-148488D01*
X2471674Y-151028D01*
X2467559Y-151892D01*
X2388006Y-151892D01*
X2384196Y-152196D01*
X2377135Y-154228D01*
X2372258Y-156972D01*
X2369007Y-159766D01*
X2290927Y-237794D01*
X2287625Y-240029D01*
X2283764Y-240792D01*
G37*

%LPC*%
G36*
X892556Y-123545D02*
G01*
X906678Y-122174D01*
X920546Y-119024D01*
X933907Y-114096D01*
X946505Y-107543D01*
X958138Y-99415D01*
X968654Y-89865D01*
X977849Y-79044D01*
X985621Y-67106D01*
X991768Y-54305D01*
X996238Y-40843D01*
X998982Y-26873D01*
X999896Y-12700D01*
X998982Y1473D01*
X996238Y15443D01*
X991768Y28905D01*
X985621Y41706D01*
X977849Y53644D01*
X968654Y64465D01*
X958138Y74015D01*
X946505Y82143D01*
X933907Y88696D01*
X920546Y93624D01*
X906678Y96774D01*
X892556Y98145D01*
X878332Y97688D01*
X864311Y95402D01*
X850696Y91338D01*
X837692Y85598D01*
X825550Y78232D01*
X814425Y69392D01*
X804570Y59182D01*
X796086Y47802D01*
X789076Y35407D01*
X783742Y22250D01*
X780135Y8483D01*
X778357Y-5588D01*
X778357Y-19812D01*
X780135Y-33883D01*
X783742Y-47650D01*
X789076Y-60807D01*
X796086Y-73202D01*
X804570Y-84582D01*
X814425Y-94792D01*
X825550Y-103632D01*
X837692Y-110998D01*
X850696Y-116789D01*
X864311Y-120802D01*
X878332Y-123088D01*
G37*
G36*
X1171956Y-123545D02*
G01*
X1186078Y-122174D01*
X1199946Y-119024D01*
X1213307Y-114096D01*
X1225905Y-107543D01*
X1237538Y-99415D01*
X1248054Y-89865D01*
X1257249Y-79044D01*
X1265021Y-67106D01*
X1271168Y-54305D01*
X1275638Y-40843D01*
X1278382Y-26873D01*
X1279296Y-12700D01*
X1278382Y1473D01*
X1275638Y15443D01*
X1271168Y28905D01*
X1265021Y41706D01*
X1257249Y53644D01*
X1248054Y64465D01*
X1237538Y74015D01*
X1225905Y82143D01*
X1213307Y88696D01*
X1199946Y93624D01*
X1186078Y96774D01*
X1171956Y98145D01*
X1157732Y97688D01*
X1143711Y95402D01*
X1130096Y91338D01*
X1117092Y85598D01*
X1104950Y78232D01*
X1093825Y69392D01*
X1083970Y59182D01*
X1075486Y47802D01*
X1068476Y35407D01*
X1063142Y22250D01*
X1059535Y8483D01*
X1057757Y-5588D01*
X1057757Y-19812D01*
X1059535Y-33883D01*
X1063142Y-47650D01*
X1068476Y-60807D01*
X1075486Y-73202D01*
X1083970Y-84582D01*
X1093825Y-94792D01*
X1104950Y-103632D01*
X1117092Y-110998D01*
X1130096Y-116789D01*
X1143711Y-120802D01*
X1157732Y-123088D01*
G37*
G36*
X1451356Y-123545D02*
G01*
X1465478Y-122174D01*
X1479346Y-119024D01*
X1492707Y-114096D01*
X1505305Y-107543D01*
X1516938Y-99415D01*
X1527454Y-89865D01*
X1536649Y-79044D01*
X1544421Y-67106D01*
X1550568Y-54305D01*
X1555038Y-40843D01*
X1557782Y-26873D01*
X1558696Y-12700D01*
X1557782Y1473D01*
X1555038Y15443D01*
X1550568Y28905D01*
X1544421Y41706D01*
X1536649Y53644D01*
X1527454Y64465D01*
X1516938Y74015D01*
X1505305Y82143D01*
X1492707Y88696D01*
X1479346Y93624D01*
X1465478Y96774D01*
X1451356Y98145D01*
X1437132Y97688D01*
X1423111Y95402D01*
X1409496Y91338D01*
X1396492Y85598D01*
X1384350Y78232D01*
X1373225Y69392D01*
X1363370Y59182D01*
X1354886Y47802D01*
X1347876Y35407D01*
X1342542Y22250D01*
X1338935Y8483D01*
X1337157Y-5588D01*
X1337157Y-19812D01*
X1338935Y-33883D01*
X1342542Y-47650D01*
X1347876Y-60807D01*
X1354886Y-73202D01*
X1363370Y-84582D01*
X1373225Y-94792D01*
X1384350Y-103632D01*
X1396492Y-110998D01*
X1409496Y-116789D01*
X1423111Y-120802D01*
X1437132Y-123088D01*
G37*
G36*
X613156Y-123545D02*
G01*
X627278Y-122174D01*
X641146Y-119024D01*
X654507Y-114096D01*
X667105Y-107543D01*
X678738Y-99415D01*
X689254Y-89865D01*
X698449Y-79044D01*
X706221Y-67106D01*
X712368Y-54305D01*
X716838Y-40843D01*
X719582Y-26873D01*
X720496Y-12700D01*
X719582Y1473D01*
X716838Y15443D01*
X712368Y28905D01*
X706221Y41706D01*
X698449Y53644D01*
X689254Y64465D01*
X678738Y74015D01*
X667105Y82143D01*
X654507Y88696D01*
X641146Y93624D01*
X627278Y96774D01*
X613156Y98145D01*
X598932Y97688D01*
X584911Y95402D01*
X571296Y91338D01*
X558292Y85598D01*
X546150Y78232D01*
X535025Y69392D01*
X525170Y59182D01*
X516686Y47802D01*
X509676Y35407D01*
X504342Y22250D01*
X500735Y8483D01*
X498957Y-5588D01*
X498957Y-19812D01*
X500735Y-33883D01*
X504342Y-47650D01*
X509676Y-60807D01*
X516686Y-73202D01*
X525170Y-84582D01*
X535025Y-94792D01*
X546150Y-103632D01*
X558292Y-110998D01*
X571296Y-116789D01*
X584911Y-120802D01*
X598932Y-123088D01*
G37*
G36*
X-618896Y544169D02*
G01*
X-556869Y544169D01*
X-556869Y606196D01*
X-592429Y606196D01*
X-598728Y605485D01*
X-604215Y603605D01*
X-609092Y600506D01*
X-613206Y596392D01*
X-616305Y591515D01*
X-618185Y586028D01*
X-618896Y579729D01*
G37*

%LPD*%
D10*
X3288944Y547217D02*
G01*
X3288944Y718261D01*
X2967888Y1039317D01*
X1560728Y495300D02*
G01*
X1884908Y171119D01*
X2635580Y171119D01*
X2857500Y-50800D01*
X2425700Y1581505D02*
G01*
X2553614Y1581505D01*
X2553614Y1581505D02*
G01*
X2553614Y1453591D01*
X2967888Y1039317D01*
X5670321Y1639011D02*
G01*
X5670321Y773988D01*
X5670321Y773988D02*
G01*
X5722620Y721690D01*
X5722620Y304800D01*
D11*
X330200Y495300D02*
G01*
X50800Y495300D01*
X609600Y495300D02*
G01*
X330200Y495300D01*
X889000Y495300D02*
G01*
X609600Y495300D01*
X1168400Y495300D02*
G01*
X889000Y495300D01*
X1447800Y495300D02*
G01*
X1168400Y495300D01*
D10*
X1504264Y495300D02*
G01*
X1447800Y495300D01*
X1504264Y495300D02*
G01*
X1560728Y495300D01*
X201117Y823137D02*
G01*
X1594230Y823137D01*
X2157374Y259994D01*
X2831134Y259994D01*
X2913481Y177647D01*
X2603500Y-50800D02*
G01*
X1925396Y-50800D01*
X1492453Y382143D01*
X-47828Y382143D01*
X-73558Y407873D01*
X-73558Y581660D01*
X167919Y823137D01*
X201117Y823137D01*
X201117Y823137D02*
G01*
X201117Y860552D01*
X2425700Y1331493D02*
G01*
X2810992Y946200D01*
X2810992Y773582D01*
X3283204Y301370D01*
X5189347Y1892579D02*
G01*
X4625263Y1328496D01*
X4625263Y1289888D01*
X3625418Y1963496D02*
G01*
X3366236Y2222677D01*
X3033750Y2222677D01*
X2685389Y1874316D01*
D11*
X-228600Y241300D02*
G01*
X-508000Y241300D01*
X50800Y241300D02*
G01*
X-228600Y241300D01*
D10*
X3398011Y754024D02*
G01*
X3398011Y185978D01*
X3497300Y86690D01*
D11*
X330200Y241300D02*
G01*
X50800Y241300D01*
X889000Y241300D02*
G01*
X609600Y241300D01*
X1168400Y241300D02*
G01*
X889000Y241300D01*
D10*
X3958793Y1849297D02*
G01*
X3654120Y1849297D01*
X3339338Y2164079D01*
X4279442Y1450111D02*
G01*
X3958793Y1770761D01*
X3958793Y1849297D01*
X2520594Y444957D02*
G01*
X2545181Y420370D01*
X2720314Y420370D01*
X946810Y944473D02*
G01*
X1555724Y944473D01*
X1948662Y551535D01*
X5372100Y304800D02*
G01*
X5372100Y427964D01*
X5346496Y1053388D02*
G01*
X5508320Y891565D01*
X5508320Y201726D01*
X5488050Y181457D01*
X5139131Y181457D01*
X4836820Y483768D01*
X330200Y-12700D02*
G01*
X189280Y128219D01*
X-557784Y128219D01*
X-621080Y191515D01*
X-621080Y298145D01*
X-537006Y382219D01*
X-396849Y382219D01*
X-341680Y437387D01*
X-341680Y601421D01*
X-334289Y608812D01*
X-202539Y608812D01*
X213334Y1024686D01*
X863092Y1024686D01*
X2005482Y924509D02*
G01*
X2005482Y877239D01*
X2520924Y361797D01*
X2949625Y361797D01*
X2966491Y378663D01*
X3873500Y-50800D02*
G01*
X3460115Y362585D01*
X3460115Y378663D01*
X3252292Y150799D02*
G01*
X3252292Y175717D01*
X2924479Y503529D01*
X2509291Y503529D01*
X1770506Y1242313D01*
X1741601Y1242313D01*
X2001570Y1422400D02*
G01*
X2001570Y1494180D01*
X2095474Y1588084D01*
X2102662Y1588084D01*
X2232253Y1717675D01*
X2613025Y1717675D01*
X4381500Y-50800D01*
X2116175Y1525955D02*
G01*
X2116175Y1443253D01*
X2028494Y1355572D01*
X1976069Y1355572D01*
X1932787Y1398854D01*
X1932787Y1491081D01*
X2070557Y1628851D01*
X2085797Y1628851D01*
X2224227Y1767281D01*
X2817418Y1767281D01*
X4635500Y-50800D01*
X4889500Y-50800D02*
G01*
X3026003Y1812696D01*
X2186787Y1812696D01*
X2061514Y1687423D01*
X1677923Y2160625D02*
G01*
X1677923Y1392885D01*
X2427401Y643407D01*
X2857754Y643407D01*
X3551961Y-50800D01*
X3619500Y-50800D01*
X3365500Y-50800D02*
G01*
X2994609Y320090D01*
X2271674Y320090D01*
X288289Y2303475D01*
X288289Y2363673D01*
D11*
X1447800Y241300D02*
G01*
X1168400Y241300D01*
X609600Y241300D02*
G01*
X330200Y241300D01*
D10*
X2089911Y590042D02*
G01*
X1617726Y1061973D01*
X1617726Y2187702D01*
X1921763Y2491486D01*
X4709413Y2491486D01*
X5386831Y1814068D01*
X5386831Y1329689D01*
X5288534Y1231392D01*
X5372100Y427964D02*
G01*
X5372100Y440309D01*
X4068089Y1744319D01*
X4068089Y2425700D01*
D12*
G01*
X5372100Y304800D03*
D13*
G01*
X5722620Y304800D03*
D14*
G01*
X2425700Y831494D03*
G01*
X2425700Y1081506D03*
G01*
X2425700Y1331493D03*
D15*
G01*
X2425700Y1581505D03*
D16*
G01*
X-508000Y241300D03*
D18*
G01*
X-508000Y495300D03*
D16*
G01*
X-508000Y-12700D03*
G01*
X-228600Y241300D03*
D18*
G01*
X-228600Y495300D03*
D16*
G01*
X-228600Y-12700D03*
G01*
X50800Y241300D03*
D18*
G01*
X50800Y495300D03*
D16*
G01*
X50800Y-12700D03*
G01*
X330200Y241300D03*
D18*
G01*
X330200Y495300D03*
D16*
G01*
X330200Y-12700D03*
G01*
X609600Y241300D03*
D18*
G01*
X609600Y495300D03*
D16*
G01*
X609600Y-12700D03*
G01*
X889000Y241300D03*
D18*
G01*
X889000Y495300D03*
D16*
G01*
X889000Y-12700D03*
G01*
X1168400Y241300D03*
D18*
G01*
X1168400Y495300D03*
D16*
G01*
X1168400Y-12700D03*
G01*
X1447800Y241300D03*
D18*
G01*
X1447800Y495300D03*
D16*
G01*
X1447800Y-12700D03*
D19*
G01*
X2603500Y-50800D03*
D14*
G01*
X2857500Y-50800D03*
G01*
X3111500Y-50800D03*
G01*
X3365500Y-50800D03*
G01*
X3619500Y-50800D03*
G01*
X3873500Y-50800D03*
G01*
X4127500Y-50800D03*
G01*
X4381500Y-50800D03*
G01*
X4635500Y-50800D03*
G01*
X4889500Y-50800D03*
D20*
G01*
X5670321Y1639011D03*
D21*
G01*
X5252338Y1639011D03*
G01*
X5252338Y773988D03*
D20*
G01*
X5670321Y773988D03*
D22*
G01*
X3288944Y547217D03*
G01*
X2967888Y1039317D03*
G01*
X201117Y860552D03*
G01*
X2913481Y177647D03*
G01*
X4625263Y1289888D03*
G01*
X5189347Y1892579D03*
G01*
X3283204Y301370D03*
G01*
X3625418Y1963496D03*
G01*
X2685389Y1874316D03*
G01*
X3398011Y754024D03*
G01*
X3497300Y86690D03*
G01*
X3339338Y2164079D03*
G01*
X4279442Y1450111D03*
G01*
X3958793Y1849297D03*
G01*
X2720314Y420370D03*
G01*
X2520594Y444957D03*
G01*
X1948662Y551535D03*
G01*
X946810Y944473D03*
G01*
X4068089Y2425700D03*
G01*
X5346496Y1053388D03*
G01*
X4836820Y483768D03*
G01*
X863092Y1024686D03*
G01*
X2089911Y589965D03*
G01*
X5288559Y1231493D03*
G01*
X2005482Y924509D03*
G01*
X2966491Y378663D03*
G01*
X3460115Y378663D03*
G01*
X1741601Y1242313D03*
G01*
X3252292Y150799D03*
G01*
X2001570Y1422400D03*
G01*
X2116175Y1525955D03*
G01*
X2061514Y1687423D03*
G01*
X1677923Y2160625D03*
G01*
X288289Y2363673D03*
M02*
