G04 Layer: TopLayer*
G04 EasyEDA v6.5.54, 2026-02-14 17:41:48*
G04 915fe7b8967649e7a1646cd930db55b3,2a1063a80a8d4ca1b7931a6248fd9ac1,10*
G04 Gerber Generator version 0.2*
G04 Scale: 100 percent, Rotated: No, Reflected: No *
G04 Dimensions in millimeters *
G04 leading zeros omitted , absolute positions ,4 integer and 5 decimal *
%FSLAX45Y45*%
%MOMM*%

%AMMACRO1*21,1,$1,$2,0,0,$3*%
%AMMACRO2*4,1,16,0.6499,0.3,-0.6501,0.3,-0.6501,0.3,-0.6501,0,-0.6501,0,-0.6499,0,-0.6499,0,-0.6499,-0.3,-0.6499,-0.3,0.6501,-0.3,0.6501,-0.3,0.6501,0,0.6501,0,0.6499,0,0.6499,0,0.6499,0.3,0.6499,0.3,0*%
%AMMACRO3*4,1,16,-0.65,-0.3,0.65,-0.3,0.65,-0.3,0.65,0,0.65,0,0.65,0,0.65,0,0.65,0.3,0.65,0.3,-0.65,0.3,-0.65,0.3,-0.65,0,-0.65,0,-0.65,0,-0.65,0,-0.65,-0.3,-0.65,-0.3,0*%
%AMMACRO4*4,1,16,0.65,0.3,-0.65,0.3,-0.65,0.3,-0.65,0,-0.65,0,-0.65,0,-0.65,0,-0.65,-0.3,-0.65,-0.3,0.65,-0.3,0.65,-0.3,0.65,0,0.65,0,0.65,0,0.65,0,0.65,0.3,0.65,0.3,0*%
%ADD10C,0.2540*%
%ADD11C,0.5000*%
%ADD12C,1.0000*%
%ADD13R,0.8000X0.9000*%
%ADD14R,0.9000X0.8000*%
%ADD15R,0.0107X0.8000*%
%ADD16MACRO1,3.42X2.424X90.0000*%
%ADD17R,0.8000X0.8000*%
%ADD18MACRO1,0.864X0.8065X0.0000*%
%ADD19R,0.8640X0.8065*%
%ADD20MACRO1,0.864X0.8065X90.0000*%
%ADD21MACRO1,0.864X0.8065X-90.0000*%
%ADD22R,1.3000X1.7000*%
%ADD23O,6.096X3.048*%
%ADD24MACRO1,1.35X1.41X-90.0000*%
%ADD25R,4.5000X1.6500*%
%ADD26R,2.0000X2.0000*%
%ADD27R,0.9000X1.5000*%
%ADD28R,1.5000X0.9000*%
%ADD29R,0.9000X0.9000*%
%ADD30R,1.1000X2.5000*%
%ADD31MACRO1,3.6X2.34X0.0000*%
%ADD32R,1.1000X0.6000*%
%ADD33R,2.8000X1.1000*%
%ADD34R,1.3000X0.3000*%
%ADD35MACRO2*%
%ADD36MACRO3*%
%ADD37MACRO4*%
%ADD38R,1.9050X1.9050*%
%ADD39C,1.9050*%
%ADD40C,2.0000*%
%ADD41C,1.7000*%
%ADD42R,1.7000X1.7000*%
%ADD43R,2.0000X1.8000*%
%ADD44O,1.799996X1.199998*%
%ADD45O,1.999996X1.199998*%
%ADD46C,0.6100*%

%LPD*%
G36*
X3197402Y1737410D02*
G01*
X3194507Y1737868D01*
X3176574Y1737868D01*
X3172663Y1738630D01*
X3169361Y1740865D01*
X3147009Y1763217D01*
X3144774Y1766519D01*
X3144012Y1770430D01*
X3144774Y1774291D01*
X3147009Y1777593D01*
X3150311Y1779778D01*
X3154172Y1780590D01*
X3187242Y1780590D01*
X3187242Y1788160D01*
X3188055Y1792020D01*
X3190240Y1795322D01*
X3193542Y1797507D01*
X3197402Y1798320D01*
X3244799Y1798320D01*
X3248710Y1797507D01*
X3251962Y1795322D01*
X3254197Y1792020D01*
X3254959Y1788160D01*
X3254959Y1780590D01*
X3302000Y1780590D01*
X3302000Y1788668D01*
X3301288Y1794967D01*
X3297986Y1804263D01*
X3298190Y1808378D01*
X3299968Y1812036D01*
X3303066Y1814728D01*
X3307029Y1815947D01*
X3316173Y1817065D01*
X3319830Y1816049D01*
X3322828Y1813814D01*
X3324860Y1810613D01*
X3325520Y1806905D01*
X3325520Y1747570D01*
X3324758Y1743710D01*
X3322574Y1740407D01*
X3319272Y1738223D01*
X3315360Y1737410D01*
X3312160Y1737410D01*
X3309264Y1737868D01*
X3247745Y1737868D01*
X3244799Y1737410D01*
G37*

%LPD*%
G36*
X2552700Y1370076D02*
G01*
X2548890Y1370838D01*
X2545638Y1372920D01*
X2543454Y1376070D01*
X2537155Y1389989D01*
X2529281Y1402994D01*
X2519934Y1414983D01*
X2509164Y1425752D01*
X2497226Y1435100D01*
X2494534Y1436725D01*
X2491333Y1439722D01*
X2489758Y1443786D01*
X2489962Y1448155D01*
X2492044Y1452016D01*
X2495499Y1454658D01*
X2499766Y1455572D01*
X2525115Y1455572D01*
X2531465Y1456283D01*
X2536901Y1458214D01*
X2541828Y1461312D01*
X2545892Y1465376D01*
X2548991Y1470304D01*
X2550871Y1475740D01*
X2551633Y1482090D01*
X2551633Y1525168D01*
X2482037Y1525168D01*
X2482037Y1459382D01*
X2481326Y1455674D01*
X2479344Y1452473D01*
X2476296Y1450187D01*
X2472639Y1449222D01*
X2468880Y1449679D01*
X2455824Y1453743D01*
X2440889Y1456486D01*
X2425700Y1457401D01*
X2410510Y1456486D01*
X2395575Y1453743D01*
X2382520Y1449679D01*
X2378760Y1449222D01*
X2375103Y1450187D01*
X2372055Y1452473D01*
X2370074Y1455674D01*
X2369362Y1459382D01*
X2369362Y1525168D01*
X2290826Y1525168D01*
X2286965Y1525930D01*
X2283663Y1528114D01*
X2237841Y1573987D01*
X2235606Y1577289D01*
X2234844Y1581150D01*
X2234844Y2385568D01*
X2235708Y2389632D01*
X2238095Y2393035D01*
X2241651Y2395169D01*
X2247747Y2397302D01*
X2252675Y2400401D01*
X2256739Y2404465D01*
X2259838Y2409393D01*
X2261768Y2414828D01*
X2262479Y2421178D01*
X2262479Y2506421D01*
X2261768Y2512771D01*
X2259838Y2518206D01*
X2256739Y2523134D01*
X2252675Y2527198D01*
X2247747Y2530297D01*
X2242312Y2532176D01*
X2235962Y2532888D01*
X2156460Y2532888D01*
X2150160Y2532176D01*
X2144674Y2530297D01*
X2139797Y2527198D01*
X2135682Y2523134D01*
X2132634Y2518206D01*
X2130501Y2512161D01*
X2128367Y2508605D01*
X2124964Y2506167D01*
X2120900Y2505354D01*
X2116836Y2506167D01*
X2113432Y2508605D01*
X2111298Y2512161D01*
X2109165Y2518206D01*
X2106117Y2523134D01*
X2102002Y2527198D01*
X2097125Y2530297D01*
X2091639Y2532176D01*
X2085339Y2532888D01*
X2005838Y2532888D01*
X1999488Y2532176D01*
X1994052Y2530297D01*
X1989124Y2527198D01*
X1985060Y2523134D01*
X1981962Y2518206D01*
X1980031Y2512771D01*
X1978863Y2507386D01*
X1976882Y2504592D01*
X1974037Y2502611D01*
X1969820Y2501595D01*
X1962607Y2499410D01*
X1955901Y2495854D01*
X1950059Y2491079D01*
X1945284Y2485237D01*
X1941728Y2478532D01*
X1939543Y2471318D01*
X1938731Y2463292D01*
X1938731Y2433726D01*
X1937969Y2429865D01*
X1935734Y2426563D01*
X1932482Y2424379D01*
X1928571Y2423566D01*
X1833168Y2423566D01*
X1829307Y2424379D01*
X1826006Y2426563D01*
X1823770Y2429865D01*
X1823008Y2433726D01*
X1823008Y2562352D01*
X1822297Y2568651D01*
X1820976Y2572461D01*
X1820418Y2576271D01*
X1821332Y2579979D01*
X1823516Y2583129D01*
X1826768Y2585212D01*
X1830527Y2585974D01*
X2618028Y2586837D01*
X2622092Y2585974D01*
X2625496Y2583535D01*
X2627630Y2579979D01*
X2628138Y2575814D01*
X2626969Y2571800D01*
X2624277Y2568651D01*
X2614371Y2560980D01*
X2601264Y2548534D01*
X2589530Y2534818D01*
X2579166Y2520035D01*
X2570429Y2504236D01*
X2563317Y2487625D01*
X2557881Y2470404D01*
X2554274Y2452674D01*
X2552446Y2434742D01*
X2552446Y2416657D01*
X2554274Y2398725D01*
X2557881Y2380996D01*
X2563317Y2363774D01*
X2570429Y2347163D01*
X2579166Y2331364D01*
X2585516Y2322271D01*
X2587193Y2318359D01*
X2587091Y2314143D01*
X2585262Y2310333D01*
X2582062Y2307539D01*
X2578049Y2306320D01*
X2572664Y2307285D01*
X2566314Y2307996D01*
X2540762Y2307996D01*
X2540762Y2245969D01*
X2592781Y2245969D01*
X2592781Y2281529D01*
X2592222Y2286711D01*
X2592578Y2290826D01*
X2594559Y2294432D01*
X2597810Y2296922D01*
X2601772Y2297988D01*
X2605836Y2297379D01*
X2609342Y2295194D01*
X2614371Y2290419D01*
X2628646Y2279345D01*
X2643987Y2269794D01*
X2660192Y2261870D01*
X2677109Y2255570D01*
X2694584Y2251049D01*
X2712466Y2248306D01*
X2730754Y2247392D01*
X3002381Y2247392D01*
X3006293Y2246630D01*
X3009595Y2244394D01*
X3096615Y2157374D01*
X3098800Y2154072D01*
X3099612Y2150211D01*
X3099612Y1949704D01*
X3100374Y1941677D01*
X3102559Y1934464D01*
X3106115Y1927758D01*
X3110941Y1921916D01*
X3116783Y1917141D01*
X3123438Y1913585D01*
X3130651Y1911400D01*
X3135223Y1910943D01*
X3139135Y1909724D01*
X3142234Y1907032D01*
X3144062Y1903374D01*
X3144266Y1899259D01*
X3140913Y1889963D01*
X3140202Y1883613D01*
X3140202Y1824786D01*
X3140913Y1818436D01*
X3142843Y1813001D01*
X3144774Y1808581D01*
X3144774Y1804822D01*
X3142843Y1800453D01*
X3140913Y1794967D01*
X3140659Y1792884D01*
X3139541Y1789277D01*
X3137204Y1786280D01*
X3133953Y1784400D01*
X3130194Y1783842D01*
X3126536Y1784705D01*
X3123387Y1786839D01*
X3075584Y1834642D01*
X3073400Y1837943D01*
X3072638Y1841804D01*
X3072638Y1853692D01*
X3071825Y1861718D01*
X3069640Y1868932D01*
X3066084Y1875637D01*
X3061258Y1881479D01*
X3055416Y1886254D01*
X3048762Y1889810D01*
X3041548Y1891995D01*
X3036976Y1892452D01*
X3033064Y1893671D01*
X3029915Y1896364D01*
X3028137Y1900021D01*
X3027934Y1904136D01*
X3031286Y1913432D01*
X3031998Y1919782D01*
X3031998Y1978609D01*
X3031286Y1984959D01*
X3029356Y1990394D01*
X3026308Y1995322D01*
X3022193Y1999386D01*
X3017316Y2002485D01*
X3011830Y2004415D01*
X3005531Y2005126D01*
X2896666Y2005126D01*
X2890316Y2004415D01*
X2884881Y2002485D01*
X2879953Y1999386D01*
X2875889Y1995322D01*
X2874162Y1992579D01*
X2871876Y1990039D01*
X2868879Y1988362D01*
X2865526Y1987804D01*
X2668422Y1987804D01*
X2660396Y1986991D01*
X2653182Y1984806D01*
X2646527Y1981250D01*
X2640279Y1976120D01*
X2599537Y1935378D01*
X2594406Y1929130D01*
X2590850Y1922475D01*
X2588666Y1915261D01*
X2587853Y1907235D01*
X2587853Y1845106D01*
X2588666Y1837080D01*
X2590850Y1829866D01*
X2594406Y1823212D01*
X2599537Y1816963D01*
X2772918Y1643583D01*
X2778455Y1639011D01*
X2780995Y1635861D01*
X2782112Y1631899D01*
X2781604Y1627835D01*
X2780131Y1623771D01*
X2779420Y1617421D01*
X2779420Y1602740D01*
X2819146Y1602740D01*
X2819146Y1621739D01*
X2819958Y1625650D01*
X2822143Y1628901D01*
X2825445Y1631137D01*
X2829306Y1631899D01*
X2862021Y1631899D01*
X2865932Y1631137D01*
X2869234Y1628901D01*
X2871419Y1625650D01*
X2872181Y1621739D01*
X2872181Y1602740D01*
X2895955Y1602740D01*
X2899816Y1601978D01*
X2903118Y1599793D01*
X2905302Y1596491D01*
X2906064Y1592580D01*
X2906064Y1575308D01*
X2906877Y1567281D01*
X2909112Y1559966D01*
X2909519Y1556207D01*
X2908503Y1552600D01*
X2906268Y1549552D01*
X2903067Y1547571D01*
X2899359Y1546860D01*
X2872181Y1546860D01*
X2872181Y1505712D01*
X2885440Y1505712D01*
X2891739Y1506423D01*
X2897225Y1508302D01*
X2902102Y1511401D01*
X2906217Y1515465D01*
X2909265Y1520393D01*
X2911398Y1526438D01*
X2913532Y1529994D01*
X2916936Y1532432D01*
X2921000Y1533245D01*
X2925064Y1532432D01*
X2928467Y1529994D01*
X2930601Y1526438D01*
X2932734Y1520393D01*
X2935782Y1515465D01*
X2939897Y1511401D01*
X2944774Y1508302D01*
X2950260Y1506423D01*
X2956001Y1505762D01*
X2959303Y1504797D01*
X2962046Y1502867D01*
X2988310Y1476603D01*
X2994558Y1471472D01*
X3001213Y1467916D01*
X3008426Y1465732D01*
X3016453Y1464919D01*
X3254756Y1464919D01*
X3262782Y1465732D01*
X3269996Y1467916D01*
X3276701Y1471472D01*
X3282899Y1476603D01*
X3285236Y1478889D01*
X3290366Y1485138D01*
X3293922Y1491792D01*
X3295954Y1498498D01*
X3298037Y1502206D01*
X3301492Y1504797D01*
X3305657Y1505712D01*
X3366262Y1505712D01*
X3372612Y1506423D01*
X3378047Y1508302D01*
X3382975Y1511401D01*
X3387039Y1515465D01*
X3390137Y1520393D01*
X3392068Y1525828D01*
X3392779Y1532178D01*
X3392779Y1597304D01*
X3393541Y1601216D01*
X3395726Y1604467D01*
X3399028Y1606702D01*
X3402939Y1607464D01*
X3587445Y1607464D01*
X3591610Y1606550D01*
X3595065Y1604010D01*
X3597148Y1600250D01*
X3597503Y1595932D01*
X3596030Y1591919D01*
X3594963Y1590192D01*
X3593033Y1584756D01*
X3592322Y1578406D01*
X3592322Y1557832D01*
X3681882Y1557832D01*
X3681882Y1597304D01*
X3682695Y1601216D01*
X3684879Y1604467D01*
X3688181Y1606702D01*
X3692042Y1607464D01*
X3824427Y1607464D01*
X3828338Y1606702D01*
X3831640Y1604467D01*
X3833825Y1601216D01*
X3834587Y1597304D01*
X3834587Y1557832D01*
X3914292Y1557832D01*
X3918153Y1557070D01*
X3921455Y1554886D01*
X3923639Y1551584D01*
X3924452Y1547672D01*
X3924452Y1500327D01*
X3923639Y1496415D01*
X3921455Y1493113D01*
X3918153Y1490929D01*
X3914292Y1490167D01*
X3834587Y1490167D01*
X3834587Y1443075D01*
X3897680Y1443075D01*
X3903979Y1443786D01*
X3909466Y1445717D01*
X3914343Y1448816D01*
X3917137Y1451559D01*
X3920388Y1453743D01*
X3924300Y1454505D01*
X3928160Y1453743D01*
X3931462Y1451559D01*
X3934256Y1448816D01*
X3939133Y1445717D01*
X3944569Y1443786D01*
X3950919Y1443075D01*
X4215384Y1443075D01*
X4219702Y1442161D01*
X4223156Y1439468D01*
X4225188Y1435557D01*
X4226458Y1430832D01*
X4230624Y1421942D01*
X4236262Y1413865D01*
X4243222Y1406906D01*
X4245813Y1405077D01*
X4248810Y1401876D01*
X4250131Y1397660D01*
X4249521Y1393291D01*
X4247184Y1389583D01*
X4230674Y1373073D01*
X4227372Y1370888D01*
X4223461Y1370076D01*
G37*

%LPC*%
G36*
X3618839Y1443075D02*
G01*
X3681882Y1443075D01*
X3681882Y1490167D01*
X3592322Y1490167D01*
X3592322Y1469593D01*
X3593033Y1463243D01*
X3594963Y1457807D01*
X3598062Y1452880D01*
X3602126Y1448816D01*
X3607054Y1445717D01*
X3612489Y1443786D01*
G37*
G36*
X2805938Y1505712D02*
G01*
X2819146Y1505712D01*
X2819146Y1546860D01*
X2779420Y1546860D01*
X2779420Y1532178D01*
X2780131Y1525828D01*
X2782062Y1520393D01*
X2785160Y1515465D01*
X2789224Y1511401D01*
X2794152Y1508302D01*
X2799588Y1506423D01*
G37*
G36*
X2482037Y1637842D02*
G01*
X2551633Y1637842D01*
X2551633Y1680921D01*
X2550871Y1687271D01*
X2548991Y1692706D01*
X2545892Y1697634D01*
X2541828Y1701698D01*
X2536901Y1704797D01*
X2531465Y1706676D01*
X2525115Y1707388D01*
X2482037Y1707388D01*
G37*
G36*
X2299766Y1637842D02*
G01*
X2369362Y1637842D01*
X2369362Y1707388D01*
X2326284Y1707388D01*
X2319934Y1706676D01*
X2314498Y1704797D01*
X2309571Y1701698D01*
X2305507Y1697634D01*
X2302408Y1692706D01*
X2300528Y1687271D01*
X2299766Y1680921D01*
G37*
G36*
X2540762Y2086203D02*
G01*
X2566314Y2086203D01*
X2572664Y2086914D01*
X2578100Y2088794D01*
X2583027Y2091893D01*
X2587091Y2096007D01*
X2590190Y2100884D01*
X2592070Y2106371D01*
X2592781Y2112670D01*
X2592781Y2148230D01*
X2540762Y2148230D01*
G37*
G36*
X2437485Y2086203D02*
G01*
X2463038Y2086203D01*
X2463038Y2148230D01*
X2410968Y2148230D01*
X2410968Y2112670D01*
X2411679Y2106371D01*
X2413609Y2100884D01*
X2416708Y2096007D01*
X2420772Y2091893D01*
X2425700Y2088794D01*
X2431135Y2086914D01*
G37*
G36*
X2410968Y2245969D02*
G01*
X2463038Y2245969D01*
X2463038Y2307996D01*
X2437485Y2307996D01*
X2431135Y2307285D01*
X2425700Y2305405D01*
X2420772Y2302306D01*
X2416708Y2298192D01*
X2413609Y2293315D01*
X2411679Y2287828D01*
X2410968Y2281529D01*
G37*

%LPD*%
G36*
X3461918Y759510D02*
G01*
X3457854Y760628D01*
X3454552Y763270D01*
X3452672Y767029D01*
X3450996Y773328D01*
X3446830Y782218D01*
X3441192Y790244D01*
X3434232Y797204D01*
X3426206Y802843D01*
X3417315Y807008D01*
X3407816Y809548D01*
X3398012Y810412D01*
X3388207Y809548D01*
X3378708Y807008D01*
X3371342Y803554D01*
X3367430Y802589D01*
X3363417Y803300D01*
X3360013Y805434D01*
X3357727Y808786D01*
X3356914Y812749D01*
X3356914Y831240D01*
X3356203Y837539D01*
X3354273Y843026D01*
X3351225Y847902D01*
X3347110Y852017D01*
X3342233Y855065D01*
X3336747Y856996D01*
X3330448Y857707D01*
X2901848Y857707D01*
X2897936Y858469D01*
X2894685Y860704D01*
X2892450Y863955D01*
X2891688Y867867D01*
X2891688Y988669D01*
X2892450Y992530D01*
X2894685Y995832D01*
X2968650Y1069797D01*
X2971952Y1072032D01*
X2975813Y1072794D01*
X4123791Y1072794D01*
X4127855Y1071930D01*
X4131259Y1069543D01*
X4133392Y1065987D01*
X4135424Y1060196D01*
X4138472Y1055268D01*
X4142587Y1051204D01*
X4144467Y1049985D01*
X4147413Y1047191D01*
X4149039Y1043432D01*
X4149039Y1039368D01*
X4147413Y1035608D01*
X4144467Y1032814D01*
X4142587Y1031595D01*
X4138472Y1027531D01*
X4135424Y1022603D01*
X4133494Y1017168D01*
X4132783Y1010818D01*
X4132783Y997762D01*
X4174845Y997762D01*
X4174845Y1035303D01*
X4175607Y1039215D01*
X4177842Y1042517D01*
X4181144Y1044702D01*
X4185005Y1045464D01*
X4222394Y1045464D01*
X4226255Y1044702D01*
X4229557Y1042517D01*
X4231792Y1039215D01*
X4232554Y1035303D01*
X4232554Y997762D01*
X4274616Y997762D01*
X4274616Y1010818D01*
X4273905Y1017168D01*
X4271975Y1022603D01*
X4268927Y1027531D01*
X4264812Y1031595D01*
X4262932Y1032814D01*
X4259986Y1035608D01*
X4258360Y1039368D01*
X4258360Y1043432D01*
X4259986Y1047191D01*
X4262932Y1049985D01*
X4264812Y1051204D01*
X4266844Y1053185D01*
X4269892Y1055319D01*
X4273499Y1056182D01*
X4277207Y1055674D01*
X4281678Y1052830D01*
X4288383Y1049274D01*
X4291990Y1048207D01*
X4295749Y1046124D01*
X4298289Y1042669D01*
X4299204Y1038453D01*
X4299204Y889558D01*
X4298442Y885698D01*
X4296206Y882396D01*
X4292904Y880211D01*
X4289044Y879398D01*
X4285132Y880211D01*
X4281830Y882396D01*
X4274921Y889304D01*
X4268673Y894435D01*
X4264406Y897534D01*
X4262526Y900785D01*
X4261967Y904544D01*
X4262780Y908202D01*
X4264914Y911301D01*
X4268927Y915314D01*
X4271975Y920191D01*
X4273905Y925677D01*
X4274616Y931976D01*
X4274616Y945083D01*
X4232554Y945083D01*
X4232554Y911148D01*
X4231792Y907237D01*
X4229557Y903986D01*
X4226255Y901750D01*
X4222394Y900988D01*
X4185005Y900988D01*
X4181144Y901750D01*
X4177842Y903986D01*
X4175607Y907237D01*
X4174845Y911148D01*
X4174845Y945083D01*
X4132783Y945083D01*
X4132783Y931976D01*
X4133494Y925677D01*
X4135424Y920191D01*
X4137710Y916533D01*
X4139184Y912520D01*
X4138828Y908202D01*
X4136745Y904443D01*
X4133291Y901903D01*
X4129125Y900988D01*
X3624630Y900988D01*
X3616604Y900176D01*
X3609390Y897991D01*
X3602736Y894435D01*
X3596487Y889304D01*
X3469640Y762508D01*
X3466134Y760171D01*
G37*

%LPD*%
G36*
X291490Y394258D02*
G01*
X287629Y395020D01*
X284327Y397256D01*
X282143Y400507D01*
X281330Y404418D01*
X281330Y446430D01*
X251967Y446430D01*
X248056Y447243D01*
X244805Y449427D01*
X242570Y452729D01*
X241808Y456590D01*
X241808Y534009D01*
X242570Y537870D01*
X244805Y541172D01*
X248056Y543356D01*
X251967Y544169D01*
X281330Y544169D01*
X281330Y584962D01*
X282143Y588873D01*
X284327Y592124D01*
X287629Y594360D01*
X291490Y595122D01*
X368909Y595122D01*
X372770Y594360D01*
X376072Y592124D01*
X378256Y588873D01*
X379069Y584962D01*
X379069Y544169D01*
X433882Y544169D01*
X437794Y543356D01*
X441045Y541172D01*
X443280Y537870D01*
X444042Y534009D01*
X444042Y456590D01*
X443280Y452729D01*
X441045Y449427D01*
X437794Y447243D01*
X433882Y446430D01*
X379069Y446430D01*
X379069Y404418D01*
X378256Y400507D01*
X376072Y397256D01*
X372770Y395020D01*
X368909Y394258D01*
G37*

%LPD*%
G36*
X2499868Y370078D02*
G01*
X2496108Y371652D01*
X2493314Y374599D01*
X2492298Y376174D01*
X2490876Y379933D01*
X2491028Y383946D01*
X2492756Y387604D01*
X2495753Y390296D01*
X2499512Y391617D01*
X2503525Y391363D01*
X2508605Y389280D01*
X2511196Y386537D01*
X2512568Y383032D01*
X2512568Y379222D01*
X2510485Y374599D01*
X2507691Y371652D01*
X2503932Y370078D01*
G37*

%LPD*%
G36*
X1241958Y326085D02*
G01*
X1237894Y327761D01*
X1225905Y336143D01*
X1213307Y342696D01*
X1199946Y347624D01*
X1186078Y350774D01*
X1171956Y352145D01*
X1157732Y351688D01*
X1143711Y349402D01*
X1130096Y345338D01*
X1117092Y339598D01*
X1109370Y334924D01*
X1105306Y333502D01*
X1101090Y333908D01*
X1097330Y335991D01*
X1094841Y339445D01*
X1093927Y343611D01*
X1093927Y374243D01*
X1094689Y378104D01*
X1096924Y381406D01*
X1100175Y383641D01*
X1104087Y384403D01*
X1119530Y384403D01*
X1119530Y446430D01*
X1104087Y446430D01*
X1100175Y447243D01*
X1096924Y449427D01*
X1094689Y452729D01*
X1093927Y456590D01*
X1093927Y534009D01*
X1094689Y537870D01*
X1096924Y541172D01*
X1100175Y543356D01*
X1104087Y544169D01*
X1119530Y544169D01*
X1119530Y588060D01*
X1120444Y592277D01*
X1123035Y595731D01*
X1126744Y597814D01*
X1131824Y599338D01*
X1138529Y602894D01*
X1144371Y607720D01*
X1149146Y613562D01*
X1152753Y620268D01*
X1155903Y631494D01*
X1157833Y634288D01*
X1160627Y636320D01*
X1163929Y637286D01*
X1167841Y637692D01*
X1173327Y639622D01*
X1175207Y640791D01*
X1178712Y642162D01*
X1182471Y642162D01*
X1186027Y640791D01*
X1187907Y639622D01*
X1193342Y637692D01*
X1197254Y637286D01*
X1200556Y636320D01*
X1203350Y634288D01*
X1205280Y631494D01*
X1206296Y627430D01*
X1208481Y620217D01*
X1212037Y613562D01*
X1214932Y610006D01*
X1216660Y606958D01*
X1217269Y603554D01*
X1217269Y544169D01*
X1243685Y544169D01*
X1247597Y543356D01*
X1250848Y541172D01*
X1253083Y537870D01*
X1253845Y534009D01*
X1253845Y456590D01*
X1253083Y452729D01*
X1250848Y449427D01*
X1247597Y447243D01*
X1243685Y446430D01*
X1217269Y446430D01*
X1217269Y384403D01*
X1243685Y384403D01*
X1247597Y383641D01*
X1250848Y381406D01*
X1253083Y378104D01*
X1253845Y374243D01*
X1253845Y336092D01*
X1252880Y331825D01*
X1250238Y328320D01*
X1246327Y326288D01*
G37*

%LPD*%
G36*
X786688Y292608D02*
G01*
X782269Y292760D01*
X778357Y294792D01*
X775665Y298297D01*
X774700Y302615D01*
X774700Y379984D01*
X775614Y384200D01*
X778154Y387654D01*
X781913Y389737D01*
X786231Y390042D01*
X790244Y388620D01*
X792784Y386994D01*
X798271Y385114D01*
X804570Y384403D01*
X840130Y384403D01*
X840130Y446430D01*
X784860Y446430D01*
X780948Y447243D01*
X777697Y449427D01*
X775462Y452729D01*
X774700Y456590D01*
X774700Y534009D01*
X775462Y537870D01*
X777697Y541172D01*
X780948Y543356D01*
X784860Y544169D01*
X840130Y544169D01*
X840130Y606196D01*
X804570Y606196D01*
X798271Y605485D01*
X792784Y603605D01*
X790244Y601980D01*
X786231Y600557D01*
X781913Y600862D01*
X778154Y602945D01*
X775614Y606399D01*
X774700Y610616D01*
X774700Y627278D01*
X775360Y630885D01*
X777290Y634034D01*
X780186Y636270D01*
X783742Y637336D01*
X786841Y637692D01*
X792327Y639622D01*
X794207Y640791D01*
X797712Y642162D01*
X801471Y642162D01*
X805027Y640791D01*
X806907Y639622D01*
X812342Y637692D01*
X818692Y636981D01*
X907542Y636981D01*
X913841Y637692D01*
X919327Y639622D01*
X921207Y640791D01*
X924712Y642162D01*
X928471Y642162D01*
X932027Y640791D01*
X933907Y639622D01*
X939342Y637692D01*
X943254Y637286D01*
X946556Y636320D01*
X949350Y634288D01*
X951280Y631494D01*
X952296Y627430D01*
X954735Y619302D01*
X955141Y615594D01*
X954176Y611936D01*
X951941Y608888D01*
X948740Y606907D01*
X945032Y606196D01*
X937869Y606196D01*
X937869Y544169D01*
X957834Y544169D01*
X961694Y543356D01*
X964996Y541172D01*
X967181Y537870D01*
X967994Y534009D01*
X967994Y456590D01*
X967181Y452729D01*
X964996Y449427D01*
X961694Y447243D01*
X957834Y446430D01*
X937869Y446430D01*
X937869Y384403D01*
X957834Y384403D01*
X961694Y383641D01*
X964996Y381406D01*
X967181Y378104D01*
X967994Y374243D01*
X967994Y340614D01*
X967028Y336296D01*
X964336Y332841D01*
X960424Y330809D01*
X956056Y330606D01*
X951992Y332282D01*
X946505Y336143D01*
X933907Y342696D01*
X920546Y347624D01*
X906678Y350774D01*
X892556Y352145D01*
X878332Y351688D01*
X864311Y349402D01*
X850696Y345338D01*
X837692Y339598D01*
X825550Y332232D01*
X814425Y323392D01*
X804570Y313182D01*
X796086Y301802D01*
X793699Y297637D01*
X790752Y294335D01*
G37*

%LPD*%
G36*
X432511Y166827D02*
G01*
X428243Y167741D01*
X424789Y170332D01*
X422757Y174142D01*
X422452Y178460D01*
X423976Y182524D01*
X426821Y186893D01*
X432968Y199694D01*
X437438Y213156D01*
X440182Y227126D01*
X441096Y241300D01*
X440182Y255473D01*
X437438Y269443D01*
X432968Y282905D01*
X426821Y295706D01*
X420827Y304901D01*
X419303Y308813D01*
X419506Y313029D01*
X421385Y316788D01*
X424637Y319430D01*
X432612Y323646D01*
X438810Y328726D01*
X497687Y387553D01*
X500481Y389534D01*
X503732Y390448D01*
X507136Y390296D01*
X510285Y388975D01*
X513384Y386994D01*
X518871Y385114D01*
X525170Y384403D01*
X560730Y384403D01*
X560730Y446430D01*
X531418Y446430D01*
X527507Y447243D01*
X524256Y449427D01*
X522020Y452729D01*
X521258Y456590D01*
X521258Y534009D01*
X522020Y537870D01*
X524256Y541172D01*
X527507Y543356D01*
X531418Y544169D01*
X560730Y544169D01*
X560730Y562864D01*
X561543Y566775D01*
X563727Y570077D01*
X567029Y572262D01*
X570890Y573024D01*
X585266Y573024D01*
X593293Y573836D01*
X600506Y576021D01*
X607212Y579577D01*
X613410Y584708D01*
X636016Y607314D01*
X640435Y612698D01*
X644042Y615594D01*
X644448Y619302D01*
X647903Y631494D01*
X649833Y634288D01*
X652627Y636320D01*
X655929Y637286D01*
X659841Y637692D01*
X665327Y639622D01*
X667207Y640791D01*
X670712Y642162D01*
X674471Y642162D01*
X678027Y640791D01*
X679907Y639622D01*
X685342Y637692D01*
X688441Y637336D01*
X691997Y636270D01*
X694893Y634034D01*
X696823Y630885D01*
X697484Y627278D01*
X697484Y616356D01*
X696722Y612495D01*
X694486Y609193D01*
X691235Y606958D01*
X687324Y606196D01*
X658469Y606196D01*
X658469Y544169D01*
X687324Y544169D01*
X691235Y543356D01*
X694486Y541172D01*
X696722Y537870D01*
X697484Y534009D01*
X697484Y456590D01*
X696722Y452729D01*
X694486Y449427D01*
X691235Y447243D01*
X687324Y446430D01*
X658469Y446430D01*
X658469Y384403D01*
X687324Y384403D01*
X691235Y383641D01*
X694486Y381406D01*
X696722Y378104D01*
X697484Y374243D01*
X697484Y333908D01*
X696722Y330098D01*
X694639Y326847D01*
X691438Y324612D01*
X687628Y323748D01*
X683818Y324408D01*
X680516Y326390D01*
X678738Y328015D01*
X667105Y336143D01*
X654507Y342696D01*
X641146Y347624D01*
X627278Y350774D01*
X613156Y352145D01*
X598932Y351688D01*
X584911Y349402D01*
X571296Y345338D01*
X558292Y339598D01*
X546150Y332232D01*
X535025Y323392D01*
X525170Y313182D01*
X516686Y301802D01*
X509676Y289407D01*
X504342Y276250D01*
X500735Y262483D01*
X498957Y248412D01*
X498957Y234188D01*
X500735Y220116D01*
X504342Y206349D01*
X509676Y193192D01*
X516026Y181965D01*
X517296Y177952D01*
X516788Y173786D01*
X514654Y170180D01*
X511251Y167690D01*
X507136Y166827D01*
G37*

%LPD*%
G36*
X1935378Y-64058D02*
G01*
X1931466Y-63296D01*
X1928164Y-61061D01*
X1925980Y-57810D01*
X1925218Y-53898D01*
X1925218Y124815D01*
X1924507Y131165D01*
X1922576Y136601D01*
X1919478Y141528D01*
X1915414Y145592D01*
X1910486Y148691D01*
X1905050Y150571D01*
X1898700Y151282D01*
X1699869Y151282D01*
X1693519Y150571D01*
X1688084Y148691D01*
X1683156Y145592D01*
X1679092Y141528D01*
X1675993Y136601D01*
X1674114Y131165D01*
X1673402Y124815D01*
X1673402Y119938D01*
X1672589Y116027D01*
X1670405Y112725D01*
X1667103Y110540D01*
X1663242Y109778D01*
X1659331Y110540D01*
X1656029Y112725D01*
X1558950Y209804D01*
X1557070Y212496D01*
X1556105Y215646D01*
X1556207Y218948D01*
X1557782Y227126D01*
X1558696Y241300D01*
X1557782Y255473D01*
X1555038Y269443D01*
X1550568Y282905D01*
X1544421Y295706D01*
X1536649Y307644D01*
X1527454Y318465D01*
X1516938Y328015D01*
X1505305Y336143D01*
X1492707Y342696D01*
X1479346Y347624D01*
X1465478Y350774D01*
X1451356Y352145D01*
X1437132Y351688D01*
X1423111Y349402D01*
X1409496Y345338D01*
X1396492Y339598D01*
X1387297Y334010D01*
X1383233Y332638D01*
X1379016Y332994D01*
X1375257Y335076D01*
X1372768Y338531D01*
X1371854Y342696D01*
X1371854Y374243D01*
X1372616Y378104D01*
X1374851Y381406D01*
X1378102Y383641D01*
X1382014Y384403D01*
X1398930Y384403D01*
X1398930Y446430D01*
X1382014Y446430D01*
X1378102Y447243D01*
X1374851Y449427D01*
X1372616Y452729D01*
X1371854Y456590D01*
X1371854Y534009D01*
X1372616Y537870D01*
X1374851Y541172D01*
X1378102Y543356D01*
X1382014Y544169D01*
X1398930Y544169D01*
X1398930Y604774D01*
X1399540Y608228D01*
X1401267Y611225D01*
X1403146Y613562D01*
X1406753Y620268D01*
X1409903Y631494D01*
X1411833Y634288D01*
X1414627Y636320D01*
X1417929Y637286D01*
X1421841Y637692D01*
X1427327Y639622D01*
X1429207Y640791D01*
X1432712Y642162D01*
X1436471Y642162D01*
X1440027Y640791D01*
X1441907Y639622D01*
X1447342Y637692D01*
X1453692Y636981D01*
X1542542Y636981D01*
X1548841Y637692D01*
X1554327Y639622D01*
X1556207Y640791D01*
X1559712Y642162D01*
X1563471Y642162D01*
X1567027Y640791D01*
X1568907Y639622D01*
X1574342Y637692D01*
X1578254Y637286D01*
X1581556Y636320D01*
X1584350Y634288D01*
X1586280Y631494D01*
X1587296Y627430D01*
X1589481Y620217D01*
X1593037Y613562D01*
X1598168Y607314D01*
X1642465Y563016D01*
X1648663Y557885D01*
X1655368Y554329D01*
X1662582Y552145D01*
X1670608Y551332D01*
X1883003Y551332D01*
X1886661Y550672D01*
X1889861Y548690D01*
X1892096Y545693D01*
X1895703Y532231D01*
X1899869Y523341D01*
X1905457Y515315D01*
X1912416Y508355D01*
X1920493Y502716D01*
X1929384Y498551D01*
X1938883Y496011D01*
X1948688Y495147D01*
X1952396Y495503D01*
X1956206Y495096D01*
X1961286Y493572D01*
X1969312Y492759D01*
X2096465Y492759D01*
X2100630Y491896D01*
X2104034Y489356D01*
X2106168Y485698D01*
X2106574Y481482D01*
X2106168Y478129D01*
X2106168Y442569D01*
X2158238Y442569D01*
X2158238Y482600D01*
X2159000Y486511D01*
X2161235Y489762D01*
X2164537Y491998D01*
X2168398Y492759D01*
X2225802Y492759D01*
X2229662Y491998D01*
X2232964Y489762D01*
X2235149Y486511D01*
X2235962Y482600D01*
X2235962Y442569D01*
X2287981Y442569D01*
X2287981Y478129D01*
X2287625Y481482D01*
X2288032Y485698D01*
X2290165Y489356D01*
X2293569Y491896D01*
X2297734Y492759D01*
X2413965Y492759D01*
X2417876Y491998D01*
X2421178Y489762D01*
X2461463Y449529D01*
X2463444Y446633D01*
X2464358Y443230D01*
X2465070Y435152D01*
X2467610Y425653D01*
X2471775Y416763D01*
X2477414Y408736D01*
X2483764Y402386D01*
X2486050Y398932D01*
X2486710Y394817D01*
X2485745Y390804D01*
X2483205Y387502D01*
X2479548Y385470D01*
X2475433Y385114D01*
X2471826Y385521D01*
X2331974Y385521D01*
X2325624Y384810D01*
X2320188Y382879D01*
X2315260Y379780D01*
X2311196Y375716D01*
X2308098Y370789D01*
X2306218Y365353D01*
X2305507Y359054D01*
X2305507Y354990D01*
X2304694Y351129D01*
X2302510Y347827D01*
X2299208Y345643D01*
X2295347Y344830D01*
X2235962Y344830D01*
X2235962Y293166D01*
X2235149Y289255D01*
X2232964Y286004D01*
X2229662Y283768D01*
X2225802Y283006D01*
X2168398Y283006D01*
X2164537Y283768D01*
X2161235Y286004D01*
X2159000Y289255D01*
X2158238Y293166D01*
X2158238Y344830D01*
X2106168Y344830D01*
X2106168Y309270D01*
X2106879Y302971D01*
X2109165Y296519D01*
X2109724Y292709D01*
X2108809Y288950D01*
X2106574Y285800D01*
X2103323Y283718D01*
X2099564Y283006D01*
X2027732Y283006D01*
X2023821Y283768D01*
X2020519Y286004D01*
X1885848Y420624D01*
X1879650Y425754D01*
X1872945Y429310D01*
X1861820Y432612D01*
X1858822Y434848D01*
X1856892Y437997D01*
X1856181Y441655D01*
X1856181Y478129D01*
X1855470Y484428D01*
X1853590Y489915D01*
X1850491Y494792D01*
X1846427Y498906D01*
X1841500Y502005D01*
X1836064Y503885D01*
X1829714Y504596D01*
X1700885Y504596D01*
X1694535Y503885D01*
X1689100Y502005D01*
X1684172Y498906D01*
X1680108Y494792D01*
X1677009Y489915D01*
X1675079Y484428D01*
X1674368Y478129D01*
X1674368Y309270D01*
X1675079Y302971D01*
X1677009Y297484D01*
X1680108Y292608D01*
X1684172Y288493D01*
X1689100Y285394D01*
X1694535Y283514D01*
X1700885Y282803D01*
X1829714Y282803D01*
X1836064Y283514D01*
X1841500Y285394D01*
X1846427Y288493D01*
X1850491Y292608D01*
X1853590Y297484D01*
X1855470Y302971D01*
X1856181Y309270D01*
X1856181Y316585D01*
X1856993Y320446D01*
X1859178Y323748D01*
X1862480Y325983D01*
X1866341Y326745D01*
X1870252Y325983D01*
X1873554Y323748D01*
X1979879Y217474D01*
X1986076Y212344D01*
X1992782Y208788D01*
X1999996Y206603D01*
X2008022Y205790D01*
X2310130Y205790D01*
X2312924Y205384D01*
X2315514Y204216D01*
X2320188Y201320D01*
X2325624Y199390D01*
X2331974Y198678D01*
X2353919Y198678D01*
X2357577Y198018D01*
X2360777Y196037D01*
X2363012Y193090D01*
X2366264Y181965D01*
X2369820Y175260D01*
X2374646Y169418D01*
X2380691Y164439D01*
X2387346Y160883D01*
X2393188Y159105D01*
X2396845Y157124D01*
X2399385Y153822D01*
X2400401Y149809D01*
X2399690Y145694D01*
X2397404Y142189D01*
X2381605Y126390D01*
X2378202Y124155D01*
X2374188Y123444D01*
X2370226Y124358D01*
X2366924Y126746D01*
X2364841Y130251D01*
X2362606Y136601D01*
X2359507Y141528D01*
X2355443Y145592D01*
X2350516Y148691D01*
X2345080Y150571D01*
X2338730Y151282D01*
X2139899Y151282D01*
X2133549Y150571D01*
X2128113Y148691D01*
X2123186Y145592D01*
X2119122Y141528D01*
X2116023Y136601D01*
X2114092Y131165D01*
X2113381Y124815D01*
X2113381Y-53898D01*
X2112619Y-57810D01*
X2110435Y-61061D01*
X2107133Y-63296D01*
X2103221Y-64058D01*
G37*

%LPC*%
G36*
X1496669Y384403D02*
G01*
X1532229Y384403D01*
X1538528Y385114D01*
X1544015Y386994D01*
X1548892Y390093D01*
X1553006Y394208D01*
X1556105Y399084D01*
X1557985Y404571D01*
X1558696Y410870D01*
X1558696Y446430D01*
X1496669Y446430D01*
G37*
G36*
X1496669Y544169D02*
G01*
X1558696Y544169D01*
X1558696Y579729D01*
X1557985Y586028D01*
X1556105Y591515D01*
X1553006Y596392D01*
X1548892Y600506D01*
X1544015Y603605D01*
X1538528Y605485D01*
X1532229Y606196D01*
X1496669Y606196D01*
G37*

%LPD*%
G36*
X2811322Y-151892D02*
G01*
X2807411Y-151130D01*
X2804109Y-148894D01*
X2801924Y-145643D01*
X2801162Y-141732D01*
X2801162Y-107137D01*
X2739593Y-107137D01*
X2735681Y-106375D01*
X2732379Y-104190D01*
X2730195Y-100888D01*
X2729433Y-96977D01*
X2729433Y-4622D01*
X2730195Y-711D01*
X2732379Y2590D01*
X2735681Y4775D01*
X2739593Y5537D01*
X2801162Y5537D01*
X2801162Y34899D01*
X2801924Y38811D01*
X2804109Y42062D01*
X2807411Y44297D01*
X2811322Y45059D01*
X2903677Y45059D01*
X2907588Y44297D01*
X2910890Y42062D01*
X2913075Y38811D01*
X2913837Y34899D01*
X2913837Y5537D01*
X2969920Y5537D01*
X2968955Y7721D01*
X2961081Y20726D01*
X2954883Y28651D01*
X2952953Y32715D01*
X2953004Y37236D01*
X2954985Y41249D01*
X2958490Y44043D01*
X2962910Y45059D01*
X3006090Y45059D01*
X3010509Y44043D01*
X3014014Y41249D01*
X3015996Y37236D01*
X3016046Y32715D01*
X3014116Y28651D01*
X3007918Y20726D01*
X3000044Y7721D01*
X2993745Y-6197D01*
X2989275Y-20675D01*
X2986532Y-35610D01*
X2985617Y-50800D01*
X2986532Y-65989D01*
X2989275Y-80924D01*
X2993745Y-95402D01*
X3000044Y-109321D01*
X3007918Y-122326D01*
X3017520Y-134569D01*
X3019755Y-137820D01*
X3020517Y-141732D01*
X3019755Y-145643D01*
X3017520Y-148894D01*
X3014218Y-151130D01*
X3010357Y-151892D01*
X2958642Y-151892D01*
X2954782Y-151130D01*
X2951480Y-148894D01*
X2949244Y-145643D01*
X2948482Y-141732D01*
X2949244Y-137820D01*
X2951734Y-134264D01*
X2961081Y-122326D01*
X2968955Y-109321D01*
X2969920Y-107137D01*
X2913837Y-107137D01*
X2913837Y-141732D01*
X2913075Y-145643D01*
X2910890Y-148894D01*
X2907588Y-151130D01*
X2903677Y-151892D01*
G37*

%LPD*%
G36*
X5196535Y-240792D02*
G01*
X5192674Y-240029D01*
X5189372Y-237794D01*
X5111292Y-159766D01*
X5108397Y-157276D01*
X5101945Y-153720D01*
X5096560Y-152196D01*
X5092293Y-151892D01*
X4990642Y-151892D01*
X4986731Y-151130D01*
X4983480Y-148894D01*
X4981244Y-145643D01*
X4980482Y-141732D01*
X4981244Y-137820D01*
X4983734Y-134264D01*
X4993081Y-122326D01*
X5000955Y-109321D01*
X5007203Y-95453D01*
X5011724Y-80924D01*
X5014468Y-65989D01*
X5015382Y-50800D01*
X5014468Y-35610D01*
X5011724Y-20675D01*
X5007203Y-6146D01*
X5000955Y7721D01*
X4993081Y20726D01*
X4983734Y32664D01*
X4972964Y43434D01*
X4961026Y52781D01*
X4948021Y60655D01*
X4934153Y66903D01*
X4919624Y71424D01*
X4904689Y74168D01*
X4889500Y75082D01*
X4874310Y74168D01*
X4859375Y71424D01*
X4844846Y66903D01*
X4830978Y60655D01*
X4817973Y52781D01*
X4806035Y43434D01*
X4795266Y32664D01*
X4785868Y20726D01*
X4778044Y7721D01*
X4771745Y-6197D01*
X4769510Y-9398D01*
X4766310Y-11480D01*
X4762500Y-12192D01*
X4758690Y-11480D01*
X4755438Y-9398D01*
X4753254Y-6197D01*
X4746955Y7721D01*
X4739081Y20726D01*
X4729734Y32664D01*
X4718964Y43434D01*
X4707026Y52781D01*
X4694021Y60655D01*
X4680153Y66903D01*
X4665624Y71424D01*
X4650689Y74168D01*
X4635500Y75082D01*
X4620310Y74168D01*
X4605375Y71424D01*
X4590846Y66903D01*
X4576978Y60655D01*
X4563973Y52781D01*
X4552035Y43434D01*
X4541266Y32664D01*
X4531868Y20726D01*
X4524044Y7721D01*
X4517745Y-6197D01*
X4515510Y-9398D01*
X4512310Y-11480D01*
X4508500Y-12192D01*
X4504690Y-11480D01*
X4501438Y-9398D01*
X4499254Y-6197D01*
X4492955Y7721D01*
X4485081Y20726D01*
X4475734Y32664D01*
X4464964Y43434D01*
X4453026Y52781D01*
X4440021Y60655D01*
X4426153Y66903D01*
X4411624Y71424D01*
X4396689Y74168D01*
X4381500Y75082D01*
X4366310Y74168D01*
X4351375Y71424D01*
X4336846Y66903D01*
X4322978Y60655D01*
X4309973Y52781D01*
X4298035Y43434D01*
X4287266Y32664D01*
X4277868Y20726D01*
X4270044Y7721D01*
X4263745Y-6197D01*
X4261510Y-9398D01*
X4258310Y-11480D01*
X4254500Y-12192D01*
X4250690Y-11480D01*
X4247438Y-9398D01*
X4245254Y-6197D01*
X4238955Y7721D01*
X4231081Y20726D01*
X4221734Y32664D01*
X4210964Y43434D01*
X4199026Y52781D01*
X4186021Y60655D01*
X4172153Y66903D01*
X4157624Y71424D01*
X4142689Y74168D01*
X4127500Y75082D01*
X4112310Y74168D01*
X4097375Y71424D01*
X4082846Y66903D01*
X4076496Y64058D01*
X4072534Y63144D01*
X4068572Y63906D01*
X4065168Y66141D01*
X3995674Y135636D01*
X3993489Y138887D01*
X3992727Y142798D01*
X3993489Y146710D01*
X3995674Y149961D01*
X3998976Y152196D01*
X4002887Y152958D01*
X4912563Y152958D01*
X4920589Y153771D01*
X4927803Y155956D01*
X4934458Y159512D01*
X4940706Y164642D01*
X4977587Y201523D01*
X4980889Y203708D01*
X4984800Y204520D01*
X4988661Y203708D01*
X4991963Y201523D01*
X4993487Y199999D01*
X4998364Y196900D01*
X5003850Y195021D01*
X5010150Y194310D01*
X5099050Y194310D01*
X5105349Y195021D01*
X5110835Y196900D01*
X5115712Y199999D01*
X5119827Y204114D01*
X5122875Y208991D01*
X5124805Y214477D01*
X5125516Y220776D01*
X5125516Y299618D01*
X5124805Y305968D01*
X5122875Y311404D01*
X5119827Y316331D01*
X5115712Y320395D01*
X5113832Y321614D01*
X5110886Y324408D01*
X5109260Y328168D01*
X5109260Y332232D01*
X5110886Y335991D01*
X5113832Y338785D01*
X5115712Y340004D01*
X5119827Y344068D01*
X5122875Y348996D01*
X5124805Y354431D01*
X5125516Y360781D01*
X5125516Y373837D01*
X5083454Y373837D01*
X5083454Y336296D01*
X5082692Y332384D01*
X5080457Y329082D01*
X5077155Y326898D01*
X5073294Y326136D01*
X5035905Y326136D01*
X5032044Y326898D01*
X5028742Y329082D01*
X5026507Y332384D01*
X5025745Y336296D01*
X5025745Y373837D01*
X4983683Y373837D01*
X4983683Y360781D01*
X4984394Y354431D01*
X4986324Y348996D01*
X4989372Y344068D01*
X4993487Y340004D01*
X4995367Y338785D01*
X4998313Y335991D01*
X4999939Y332232D01*
X4999939Y328168D01*
X4998313Y324408D01*
X4995367Y321614D01*
X4993487Y320395D01*
X4989372Y316331D01*
X4986324Y311404D01*
X4984038Y304901D01*
X4982108Y301599D01*
X4979111Y299212D01*
X4974132Y297992D01*
X4966919Y295808D01*
X4960264Y292252D01*
X4954016Y287121D01*
X4900015Y233171D01*
X4896713Y230936D01*
X4892852Y230174D01*
X4826152Y230174D01*
X4822291Y230936D01*
X4818989Y233171D01*
X4816805Y236423D01*
X4815992Y240334D01*
X4815992Y418134D01*
X4816856Y422198D01*
X4819294Y425602D01*
X4822901Y427735D01*
X4827066Y428243D01*
X4836820Y427380D01*
X4846624Y428243D01*
X4856124Y430784D01*
X4865014Y434949D01*
X4873040Y440588D01*
X4880000Y447548D01*
X4885639Y455574D01*
X4889804Y464464D01*
X4892344Y473964D01*
X4893208Y483768D01*
X4892344Y493572D01*
X4889804Y503072D01*
X4885639Y511962D01*
X4880000Y519988D01*
X4873040Y526948D01*
X4865014Y532587D01*
X4856124Y536752D01*
X4846624Y539292D01*
X4836820Y540156D01*
X4827016Y539292D01*
X4817516Y536752D01*
X4808626Y532587D01*
X4800600Y526948D01*
X4798974Y525373D01*
X4795672Y523138D01*
X4791811Y522376D01*
X2989275Y522376D01*
X2981248Y521563D01*
X2974035Y519379D01*
X2967329Y515823D01*
X2961132Y510692D01*
X2843276Y392836D01*
X2838145Y386638D01*
X2835808Y382270D01*
X2832912Y378917D01*
X2828848Y377088D01*
X2824378Y377190D01*
X2820416Y379222D01*
X2816301Y382574D01*
X2809900Y385978D01*
X2807512Y387756D01*
X2779471Y415798D01*
X2777439Y418693D01*
X2776524Y422097D01*
X2775813Y430174D01*
X2773273Y439674D01*
X2769108Y448564D01*
X2763520Y456590D01*
X2756560Y463550D01*
X2748483Y469188D01*
X2739593Y473354D01*
X2730093Y475894D01*
X2720340Y476758D01*
X2710535Y475894D01*
X2701036Y473354D01*
X2692146Y469188D01*
X2684068Y463550D01*
X2677109Y456590D01*
X2671521Y448564D01*
X2667355Y439674D01*
X2664815Y430174D01*
X2663952Y420370D01*
X2664815Y410565D01*
X2668828Y396036D01*
X2668168Y392023D01*
X2665984Y388620D01*
X2662631Y386334D01*
X2658668Y385521D01*
X2643479Y385521D01*
X2643479Y332181D01*
X2698292Y332181D01*
X2698292Y354888D01*
X2699156Y359003D01*
X2701645Y362407D01*
X2705252Y364540D01*
X2709418Y364998D01*
X2718612Y364134D01*
X2722016Y363220D01*
X2724861Y361238D01*
X2733649Y352399D01*
X2735630Y349605D01*
X2736596Y346354D01*
X2736392Y342950D01*
X2735072Y339750D01*
X2731262Y333806D01*
X2729331Y328371D01*
X2728163Y322986D01*
X2726182Y320192D01*
X2723337Y318211D01*
X2719120Y317195D01*
X2711399Y314858D01*
X2710180Y314756D01*
X2708249Y313080D01*
X2705201Y311454D01*
X2699359Y306679D01*
X2694584Y300837D01*
X2691028Y294132D01*
X2688844Y286918D01*
X2688031Y278892D01*
X2688031Y262178D01*
X2687269Y258267D01*
X2685034Y254965D01*
X2681782Y252780D01*
X2677871Y252018D01*
X2643479Y252018D01*
X2643479Y245262D01*
X2642717Y241401D01*
X2640533Y238099D01*
X2637231Y235915D01*
X2633319Y235102D01*
X2570480Y235102D01*
X2566568Y235915D01*
X2563266Y238099D01*
X2561082Y241401D01*
X2560320Y245262D01*
X2560320Y252018D01*
X2508453Y252018D01*
X2504592Y252780D01*
X2501290Y254965D01*
X2499055Y258267D01*
X2498293Y262178D01*
X2498293Y322021D01*
X2499055Y325932D01*
X2501290Y329234D01*
X2504592Y331419D01*
X2508453Y332181D01*
X2560320Y332181D01*
X2560320Y386689D01*
X2557373Y389077D01*
X2555494Y392328D01*
X2554935Y396087D01*
X2555798Y399745D01*
X2557881Y402844D01*
X2563774Y408736D01*
X2569413Y416763D01*
X2573578Y425653D01*
X2576118Y435152D01*
X2576982Y444957D01*
X2576118Y454761D01*
X2573578Y464261D01*
X2569413Y473151D01*
X2563774Y481177D01*
X2556814Y488137D01*
X2548788Y493776D01*
X2539898Y497941D01*
X2530398Y500481D01*
X2522321Y501192D01*
X2518918Y502107D01*
X2516022Y504088D01*
X2461818Y558292D01*
X2455621Y563422D01*
X2448915Y566978D01*
X2441702Y569163D01*
X2433675Y569976D01*
X2155596Y569976D01*
X2151532Y570839D01*
X2148128Y573278D01*
X2145995Y576884D01*
X2145487Y580999D01*
X2146046Y587298D01*
X2147163Y591108D01*
X2149703Y594207D01*
X2153208Y596138D01*
X2158644Y596341D01*
X3396234Y596341D01*
X3404260Y597154D01*
X3411474Y599338D01*
X3418179Y602894D01*
X3424377Y608025D01*
X3637178Y820775D01*
X3640480Y823010D01*
X3644341Y823772D01*
X3744925Y823772D01*
X3748836Y823010D01*
X3752138Y820775D01*
X3754323Y817524D01*
X3755085Y813612D01*
X3755085Y796899D01*
X3887165Y796899D01*
X3887165Y813612D01*
X3887927Y817524D01*
X3890111Y820775D01*
X3893413Y823010D01*
X3897325Y823772D01*
X4114698Y823772D01*
X4118559Y823010D01*
X4121861Y820775D01*
X4124096Y817524D01*
X4124858Y813612D01*
X4124858Y796899D01*
X4237888Y796899D01*
X4242054Y795985D01*
X4245508Y793445D01*
X4247591Y789686D01*
X4250029Y781761D01*
X4253585Y775055D01*
X4258716Y768858D01*
X4275582Y751992D01*
X4281779Y746861D01*
X4288485Y743305D01*
X4295698Y741121D01*
X4303725Y740308D01*
X4915103Y740308D01*
X4923129Y741121D01*
X4930343Y743305D01*
X4937048Y746861D01*
X4943246Y751992D01*
X4950155Y758850D01*
X4955286Y765098D01*
X4958842Y771753D01*
X4961026Y778967D01*
X4961839Y786993D01*
X4961839Y986790D01*
X4962601Y990701D01*
X4964785Y994003D01*
X4998669Y1027836D01*
X5001920Y1030071D01*
X5005832Y1030833D01*
X5009743Y1030071D01*
X5012994Y1027836D01*
X5015230Y1024534D01*
X5015992Y1020673D01*
X5015992Y773379D01*
X5015331Y769772D01*
X5013401Y766622D01*
X5010505Y764336D01*
X5005628Y763168D01*
X5000193Y761238D01*
X4995265Y758139D01*
X4991201Y754075D01*
X4988102Y749147D01*
X4986223Y743712D01*
X4985512Y737362D01*
X4985512Y657860D01*
X4986223Y651560D01*
X4988102Y646074D01*
X4991201Y641197D01*
X4995265Y637082D01*
X5000193Y634034D01*
X5006238Y631901D01*
X5009794Y629767D01*
X5012232Y626364D01*
X5013045Y622300D01*
X5012232Y618236D01*
X5009794Y614832D01*
X5006238Y612698D01*
X5000193Y610565D01*
X4995265Y607517D01*
X4991201Y603402D01*
X4988102Y598525D01*
X4986223Y593039D01*
X4985512Y586740D01*
X4985512Y573481D01*
X5026660Y573481D01*
X5026660Y621233D01*
X5027422Y625144D01*
X5029606Y628396D01*
X5032908Y630631D01*
X5036820Y631393D01*
X5072380Y631393D01*
X5076291Y630631D01*
X5079593Y628396D01*
X5081778Y625144D01*
X5082540Y621233D01*
X5082540Y573481D01*
X5123688Y573481D01*
X5123688Y586740D01*
X5122976Y593039D01*
X5121097Y598525D01*
X5117998Y603402D01*
X5113934Y607517D01*
X5109006Y610565D01*
X5102961Y612698D01*
X5099405Y614832D01*
X5096967Y618236D01*
X5096154Y622300D01*
X5096967Y626364D01*
X5099405Y629767D01*
X5102961Y631901D01*
X5109006Y634034D01*
X5113934Y637082D01*
X5117998Y641197D01*
X5121097Y646074D01*
X5122976Y651560D01*
X5123688Y657860D01*
X5123688Y718921D01*
X5124602Y723036D01*
X5127040Y726440D01*
X5130647Y728573D01*
X5134813Y729030D01*
X5138826Y727760D01*
X5142026Y725017D01*
X5147411Y717753D01*
X5156098Y709117D01*
X5165902Y701751D01*
X5176672Y695858D01*
X5188153Y691591D01*
X5195976Y689914D01*
X5195976Y737666D01*
X5132324Y737666D01*
X5128260Y738479D01*
X5124856Y740918D01*
X5122722Y744474D01*
X5121097Y749147D01*
X5117998Y754075D01*
X5113934Y758139D01*
X5109006Y761238D01*
X5103571Y763168D01*
X5098694Y764336D01*
X5095798Y766622D01*
X5093868Y769772D01*
X5093208Y773379D01*
X5093208Y821232D01*
X5094071Y825398D01*
X5096611Y828802D01*
X5100269Y830935D01*
X5104485Y831342D01*
X5111089Y830580D01*
X5128514Y830580D01*
X5132578Y829716D01*
X5135981Y827328D01*
X5138115Y823721D01*
X5138623Y819556D01*
X5137454Y815543D01*
X5134559Y810361D01*
X5163921Y810361D01*
X5160416Y811072D01*
X5157114Y813257D01*
X5154930Y816559D01*
X5154117Y820419D01*
X5154117Y847648D01*
X5103368Y847648D01*
X5099456Y848410D01*
X5096205Y850646D01*
X5093970Y853948D01*
X5093208Y857808D01*
X5093208Y901242D01*
X5094071Y905408D01*
X5096611Y908812D01*
X5100269Y910945D01*
X5104485Y911352D01*
X5111089Y910590D01*
X5230774Y910590D01*
X5235143Y909624D01*
X5238648Y906881D01*
X5240629Y902919D01*
X5242407Y895908D01*
X5246624Y886358D01*
X5252364Y877569D01*
X5259425Y869899D01*
X5267706Y863447D01*
X5276900Y858469D01*
X5286806Y855065D01*
X5302402Y852576D01*
X5305704Y850392D01*
X5307888Y847090D01*
X5308701Y843178D01*
X5308701Y810361D01*
X5370068Y810361D01*
X5364581Y820419D01*
X5357215Y830224D01*
X5348579Y838911D01*
X5338318Y846480D01*
X5335270Y849071D01*
X5333441Y852627D01*
X5333136Y856589D01*
X5334355Y860399D01*
X5336946Y863396D01*
X5345277Y869899D01*
X5352338Y877569D01*
X5358079Y886358D01*
X5362295Y895908D01*
X5364886Y906068D01*
X5365750Y916482D01*
X5364886Y926947D01*
X5362295Y937107D01*
X5358079Y946658D01*
X5352338Y955446D01*
X5345277Y963117D01*
X5333288Y972362D01*
X5331409Y975664D01*
X5330850Y979373D01*
X5331714Y983030D01*
X5333847Y986129D01*
X5341924Y994257D01*
X5344820Y996238D01*
X5348224Y997153D01*
X5356301Y997864D01*
X5365800Y1000404D01*
X5374690Y1004569D01*
X5382717Y1010208D01*
X5389676Y1017168D01*
X5395315Y1025194D01*
X5399481Y1034084D01*
X5402021Y1043584D01*
X5402884Y1053388D01*
X5402021Y1063193D01*
X5399481Y1072692D01*
X5395315Y1081582D01*
X5393385Y1084326D01*
X5392013Y1087069D01*
X5391556Y1090168D01*
X5391556Y1323238D01*
X5390743Y1331264D01*
X5388559Y1338478D01*
X5385003Y1345133D01*
X5379872Y1351381D01*
X5313273Y1417980D01*
X5311038Y1421434D01*
X5310276Y1425448D01*
X5311190Y1429410D01*
X5313629Y1432712D01*
X5317134Y1434795D01*
X5327802Y1438452D01*
X5336997Y1443431D01*
X5345277Y1449882D01*
X5352338Y1457553D01*
X5358079Y1466342D01*
X5362295Y1475892D01*
X5364886Y1486052D01*
X5365750Y1496466D01*
X5364886Y1506931D01*
X5362295Y1517091D01*
X5358079Y1526641D01*
X5352338Y1535430D01*
X5345277Y1543100D01*
X5336946Y1549603D01*
X5334355Y1552600D01*
X5333136Y1556410D01*
X5333441Y1560372D01*
X5335270Y1563928D01*
X5348579Y1574088D01*
X5357215Y1582775D01*
X5364581Y1592580D01*
X5370068Y1602638D01*
X5308701Y1602638D01*
X5308701Y1569821D01*
X5307888Y1565910D01*
X5305704Y1562608D01*
X5302402Y1560423D01*
X5286806Y1557934D01*
X5276900Y1554530D01*
X5267706Y1549552D01*
X5259425Y1543100D01*
X5252364Y1535430D01*
X5246624Y1526641D01*
X5242407Y1517091D01*
X5240629Y1510080D01*
X5238648Y1506118D01*
X5235143Y1503375D01*
X5230774Y1502410D01*
X5111038Y1502410D01*
X5104739Y1501698D01*
X5099253Y1499819D01*
X5094376Y1496720D01*
X5088128Y1490065D01*
X5085791Y1488643D01*
X5086146Y1486509D01*
X5085283Y1482293D01*
X5084572Y1475943D01*
X5084572Y1458620D01*
X5083810Y1454759D01*
X5081574Y1451457D01*
X5078323Y1449222D01*
X5074412Y1448460D01*
X5070551Y1449222D01*
X5067249Y1451457D01*
X4973066Y1545640D01*
X4970830Y1548942D01*
X4970068Y1552803D01*
X4970068Y1586992D01*
X4968595Y1600149D01*
X4969814Y1604010D01*
X4972507Y1607108D01*
X4976164Y1608886D01*
X4980279Y1609090D01*
X4984089Y1607616D01*
X4985664Y1606600D01*
X4991150Y1604721D01*
X4997450Y1604010D01*
X5013045Y1604010D01*
X5013045Y1643583D01*
X4970983Y1643583D01*
X4970983Y1630476D01*
X4971389Y1626920D01*
X4971034Y1622958D01*
X4969205Y1619453D01*
X4966157Y1616862D01*
X4962347Y1615694D01*
X4958384Y1616049D01*
X4954828Y1617929D01*
X4952898Y1619554D01*
X4946192Y1623110D01*
X4938979Y1625295D01*
X4934762Y1626311D01*
X4931918Y1628292D01*
X4929936Y1631086D01*
X4928768Y1636471D01*
X4926838Y1641906D01*
X4923739Y1646834D01*
X4919675Y1650898D01*
X4914747Y1653997D01*
X4909312Y1655876D01*
X4902962Y1656588D01*
X4823460Y1656588D01*
X4817160Y1655876D01*
X4811674Y1653997D01*
X4806797Y1650898D01*
X4802682Y1646834D01*
X4799634Y1641906D01*
X4797501Y1635861D01*
X4795367Y1632305D01*
X4791964Y1629867D01*
X4787900Y1629054D01*
X4783836Y1629867D01*
X4780432Y1632305D01*
X4778298Y1635861D01*
X4776165Y1641906D01*
X4773117Y1646834D01*
X4769002Y1650898D01*
X4764125Y1653997D01*
X4758639Y1655876D01*
X4752340Y1656588D01*
X4739081Y1656588D01*
X4739081Y1615440D01*
X4786833Y1615440D01*
X4790744Y1614678D01*
X4793996Y1612493D01*
X4796231Y1609191D01*
X4796993Y1605280D01*
X4796993Y1569720D01*
X4796231Y1565808D01*
X4793996Y1562506D01*
X4790744Y1560322D01*
X4786833Y1559560D01*
X4739081Y1559560D01*
X4739081Y1518412D01*
X4752340Y1518412D01*
X4758639Y1519123D01*
X4764125Y1521002D01*
X4769002Y1524101D01*
X4773117Y1528165D01*
X4776165Y1533093D01*
X4778298Y1539138D01*
X4780432Y1542694D01*
X4783836Y1545132D01*
X4787900Y1545945D01*
X4791964Y1545132D01*
X4795367Y1542694D01*
X4797501Y1539138D01*
X4799634Y1533093D01*
X4802682Y1528165D01*
X4806797Y1524101D01*
X4811674Y1521002D01*
X4817160Y1519123D01*
X4823460Y1518412D01*
X4889449Y1518412D01*
X4893056Y1517751D01*
X4896154Y1515872D01*
X4898440Y1513027D01*
X4902250Y1506575D01*
X4902708Y1502816D01*
X4901793Y1499108D01*
X4899558Y1496060D01*
X4896307Y1494028D01*
X4892598Y1493316D01*
X4884216Y1493316D01*
X4884216Y1451254D01*
X4923790Y1451254D01*
X4923790Y1461160D01*
X4924552Y1465021D01*
X4926787Y1468323D01*
X4930089Y1470507D01*
X4933950Y1471320D01*
X4937861Y1470507D01*
X4941163Y1468323D01*
X5054904Y1354582D01*
X5061153Y1349451D01*
X5067808Y1345895D01*
X5078984Y1342593D01*
X5081930Y1340358D01*
X5083911Y1337208D01*
X5084572Y1333550D01*
X5084572Y1329486D01*
X5083911Y1325829D01*
X5081930Y1322628D01*
X5078984Y1320393D01*
X5067808Y1317142D01*
X5061153Y1313586D01*
X5054904Y1308455D01*
X5032756Y1286256D01*
X5027625Y1280058D01*
X5024069Y1273352D01*
X5021884Y1266139D01*
X5021072Y1258112D01*
X5021072Y1220012D01*
X5021884Y1211986D01*
X5024069Y1204772D01*
X5027625Y1198118D01*
X5032756Y1191869D01*
X5035905Y1188669D01*
X5038140Y1185418D01*
X5038902Y1181506D01*
X5038140Y1177594D01*
X5035905Y1174343D01*
X4931816Y1070203D01*
X4928819Y1068120D01*
X4925314Y1067257D01*
X4921707Y1067663D01*
X4918456Y1069289D01*
X4915306Y1073099D01*
X4911191Y1077214D01*
X4906314Y1080262D01*
X4900828Y1082192D01*
X4894529Y1082903D01*
X4873955Y1082903D01*
X4873955Y1000861D01*
X4878324Y1000048D01*
X4881626Y997864D01*
X4883810Y994562D01*
X4884623Y990701D01*
X4884623Y873302D01*
X4883810Y869442D01*
X4881626Y866140D01*
X4878324Y863904D01*
X4873955Y863142D01*
X4873955Y827684D01*
X4873193Y823772D01*
X4870958Y820521D01*
X4867656Y818286D01*
X4863795Y817524D01*
X4816398Y817524D01*
X4812538Y818286D01*
X4809236Y820521D01*
X4807000Y823772D01*
X4806238Y827684D01*
X4806238Y863142D01*
X4759198Y863142D01*
X4759198Y827684D01*
X4758436Y823772D01*
X4756200Y820521D01*
X4752898Y818286D01*
X4749038Y817524D01*
X4701184Y817524D01*
X4697272Y818286D01*
X4693970Y820521D01*
X4691786Y823772D01*
X4691024Y827684D01*
X4691024Y1056436D01*
X4690313Y1062736D01*
X4688382Y1068222D01*
X4685284Y1073099D01*
X4681220Y1077214D01*
X4676292Y1080262D01*
X4670856Y1082192D01*
X4664506Y1082903D01*
X4658868Y1082903D01*
X4654956Y1083665D01*
X4651705Y1085900D01*
X4649470Y1089152D01*
X4648708Y1093063D01*
X4648708Y1181912D01*
X4649622Y1186129D01*
X4652162Y1189583D01*
X4655921Y1191666D01*
X4660239Y1192022D01*
X4664252Y1190548D01*
X4666691Y1189024D01*
X4672177Y1187094D01*
X4678476Y1186383D01*
X4757318Y1186383D01*
X4763668Y1187094D01*
X4769104Y1189024D01*
X4774031Y1192072D01*
X4778095Y1196187D01*
X4779314Y1198067D01*
X4782108Y1201013D01*
X4785868Y1202639D01*
X4789932Y1202639D01*
X4793691Y1201013D01*
X4796485Y1198067D01*
X4797704Y1196187D01*
X4801768Y1192072D01*
X4806696Y1189024D01*
X4812131Y1187094D01*
X4818481Y1186383D01*
X4831537Y1186383D01*
X4831537Y1228445D01*
X4793996Y1228445D01*
X4790084Y1229207D01*
X4786782Y1231442D01*
X4784598Y1234744D01*
X4783836Y1238605D01*
X4783836Y1275994D01*
X4784598Y1279855D01*
X4786782Y1283157D01*
X4790084Y1285392D01*
X4793996Y1286154D01*
X4831537Y1286154D01*
X4831537Y1328216D01*
X4818481Y1328216D01*
X4812131Y1327505D01*
X4806696Y1325575D01*
X4801768Y1322527D01*
X4797704Y1318412D01*
X4796485Y1316532D01*
X4793691Y1313586D01*
X4789932Y1311960D01*
X4785868Y1311960D01*
X4782108Y1313586D01*
X4779314Y1316532D01*
X4778095Y1318412D01*
X4774031Y1322527D01*
X4769104Y1325575D01*
X4763668Y1327505D01*
X4757318Y1328216D01*
X4678476Y1328216D01*
X4675174Y1327810D01*
X4670958Y1328267D01*
X4667250Y1330350D01*
X4664760Y1333804D01*
X4663897Y1337919D01*
X4663897Y1341780D01*
X4664760Y1345895D01*
X4667250Y1349349D01*
X4670958Y1351432D01*
X4675174Y1351889D01*
X4678476Y1351483D01*
X4757318Y1351483D01*
X4763668Y1352194D01*
X4769104Y1354124D01*
X4774031Y1357172D01*
X4778095Y1361287D01*
X4779314Y1363167D01*
X4782108Y1366113D01*
X4785868Y1367739D01*
X4789932Y1367739D01*
X4793691Y1366113D01*
X4796485Y1363167D01*
X4797704Y1361287D01*
X4801768Y1357172D01*
X4806696Y1354124D01*
X4812131Y1352194D01*
X4818481Y1351483D01*
X4831537Y1351483D01*
X4831537Y1393545D01*
X4793996Y1393545D01*
X4790084Y1394307D01*
X4786782Y1396542D01*
X4784598Y1399844D01*
X4783836Y1403705D01*
X4783836Y1441094D01*
X4784598Y1444955D01*
X4786782Y1448257D01*
X4790084Y1450492D01*
X4793996Y1451254D01*
X4831537Y1451254D01*
X4831537Y1493316D01*
X4818481Y1493316D01*
X4812131Y1492605D01*
X4806696Y1490675D01*
X4801768Y1487627D01*
X4797704Y1483512D01*
X4796485Y1481632D01*
X4793691Y1478686D01*
X4789932Y1477060D01*
X4785868Y1477060D01*
X4782108Y1478686D01*
X4779314Y1481632D01*
X4778095Y1483512D01*
X4774031Y1487627D01*
X4769104Y1490675D01*
X4763668Y1492605D01*
X4757318Y1493316D01*
X4678476Y1493316D01*
X4672177Y1492605D01*
X4666691Y1490675D01*
X4661814Y1487627D01*
X4657750Y1483563D01*
X4654448Y1481378D01*
X4650587Y1480616D01*
X4646676Y1481378D01*
X4643424Y1483563D01*
X4538827Y1588160D01*
X4536694Y1591310D01*
X4535830Y1594967D01*
X4536389Y1598726D01*
X4538268Y1601978D01*
X4541266Y1604314D01*
X4544872Y1605432D01*
X4550765Y1606092D01*
X4556201Y1608023D01*
X4561128Y1611122D01*
X4565192Y1615186D01*
X4568291Y1620113D01*
X4570171Y1625549D01*
X4570933Y1631899D01*
X4570933Y1682496D01*
X4571695Y1686407D01*
X4573879Y1689709D01*
X4577181Y1691893D01*
X4581093Y1692656D01*
X4615484Y1692656D01*
X4623511Y1693468D01*
X4630724Y1695653D01*
X4637379Y1699209D01*
X4643983Y1704644D01*
X4647184Y1706422D01*
X4650790Y1706981D01*
X4654397Y1706168D01*
X4657445Y1704187D01*
X4661662Y1700174D01*
X4666691Y1697024D01*
X4672177Y1695094D01*
X4678476Y1694383D01*
X4757318Y1694383D01*
X4763668Y1695094D01*
X4769104Y1697024D01*
X4774031Y1700072D01*
X4778095Y1704187D01*
X4779314Y1706067D01*
X4782108Y1709013D01*
X4785868Y1710639D01*
X4789932Y1710639D01*
X4793691Y1709013D01*
X4796485Y1706067D01*
X4797704Y1704187D01*
X4801768Y1700072D01*
X4806696Y1697024D01*
X4812131Y1695094D01*
X4818481Y1694383D01*
X4831537Y1694383D01*
X4831537Y1736445D01*
X4793996Y1736445D01*
X4790084Y1737207D01*
X4786782Y1739442D01*
X4784598Y1742744D01*
X4783836Y1746605D01*
X4783836Y1783994D01*
X4784598Y1787855D01*
X4786782Y1791157D01*
X4790084Y1793392D01*
X4793996Y1794154D01*
X4831537Y1794154D01*
X4831537Y1836216D01*
X4818481Y1836216D01*
X4812131Y1835505D01*
X4806696Y1833575D01*
X4801768Y1830527D01*
X4797704Y1826412D01*
X4796485Y1824532D01*
X4793691Y1821586D01*
X4789932Y1819960D01*
X4785868Y1819960D01*
X4782108Y1821586D01*
X4779314Y1824532D01*
X4778095Y1826412D01*
X4774031Y1830527D01*
X4769104Y1833575D01*
X4763668Y1835505D01*
X4757318Y1836216D01*
X4678476Y1836216D01*
X4668367Y1835099D01*
X4664760Y1836064D01*
X4661712Y1838299D01*
X4659731Y1841500D01*
X4659020Y1845208D01*
X4659020Y1990039D01*
X4659782Y1993900D01*
X4662017Y1997202D01*
X4665268Y1999437D01*
X4669180Y2000199D01*
X4741011Y2000199D01*
X4747361Y2000910D01*
X4752797Y2002789D01*
X4757724Y2005888D01*
X4761788Y2010003D01*
X4764887Y2014880D01*
X4766818Y2020366D01*
X4767529Y2026666D01*
X4767529Y2367534D01*
X4766818Y2373833D01*
X4764887Y2379319D01*
X4761788Y2384196D01*
X4757724Y2388311D01*
X4752797Y2391410D01*
X4747361Y2393289D01*
X4741011Y2394000D01*
X4499762Y2394000D01*
X4493463Y2393289D01*
X4487976Y2391410D01*
X4483100Y2388311D01*
X4478985Y2384196D01*
X4475937Y2379319D01*
X4474006Y2373833D01*
X4473295Y2367534D01*
X4473295Y2026666D01*
X4474006Y2020366D01*
X4475937Y2014880D01*
X4478985Y2010003D01*
X4483100Y2005888D01*
X4487976Y2002789D01*
X4493463Y2000910D01*
X4499762Y2000199D01*
X4571644Y2000199D01*
X4575556Y1999437D01*
X4578807Y1997202D01*
X4581042Y1993900D01*
X4581804Y1990039D01*
X4581804Y1855368D01*
X4581042Y1851456D01*
X4578807Y1848154D01*
X4575556Y1845970D01*
X4571644Y1845208D01*
X4567732Y1845970D01*
X4564481Y1848154D01*
X4561128Y1851507D01*
X4556201Y1854606D01*
X4550765Y1856486D01*
X4544415Y1857197D01*
X4345584Y1857197D01*
X4339234Y1856486D01*
X4333798Y1854606D01*
X4328871Y1851507D01*
X4324807Y1847443D01*
X4321708Y1842516D01*
X4319828Y1837080D01*
X4319066Y1830730D01*
X4319066Y1694840D01*
X4318304Y1690928D01*
X4316120Y1687677D01*
X4312818Y1685442D01*
X4308957Y1684680D01*
X3520389Y1684680D01*
X3516680Y1685391D01*
X3513480Y1687372D01*
X3511245Y1690420D01*
X3510229Y1694027D01*
X3510635Y1697786D01*
X3511854Y1701698D01*
X3513937Y1705406D01*
X3517392Y1707997D01*
X3521557Y1708912D01*
X3582162Y1708912D01*
X3588512Y1709623D01*
X3593947Y1711502D01*
X3598875Y1714601D01*
X3602939Y1718665D01*
X3606037Y1723593D01*
X3607968Y1729028D01*
X3608679Y1735378D01*
X3608679Y1800504D01*
X3609441Y1804416D01*
X3611626Y1807718D01*
X3614928Y1809902D01*
X3618839Y1810664D01*
X3913784Y1810664D01*
X3917645Y1809902D01*
X3920947Y1807718D01*
X3922572Y1806092D01*
X3930599Y1800504D01*
X3939489Y1796338D01*
X3948988Y1793798D01*
X3958793Y1792935D01*
X3968597Y1793798D01*
X3978097Y1796338D01*
X3986987Y1800504D01*
X3995013Y1806092D01*
X4001973Y1813052D01*
X4007612Y1821129D01*
X4011777Y1830019D01*
X4014317Y1839518D01*
X4015181Y1849272D01*
X4014317Y1859076D01*
X4011777Y1868576D01*
X4007612Y1877466D01*
X4001973Y1885543D01*
X3995013Y1892503D01*
X3986987Y1898091D01*
X3978097Y1902256D01*
X3968597Y1904796D01*
X3958793Y1905660D01*
X3948988Y1904796D01*
X3939489Y1902256D01*
X3930599Y1898091D01*
X3922572Y1892503D01*
X3920947Y1890877D01*
X3917645Y1888693D01*
X3913784Y1887880D01*
X3637432Y1887880D01*
X3633368Y1888743D01*
X3630015Y1891131D01*
X3627882Y1894687D01*
X3627323Y1898802D01*
X3628491Y1902815D01*
X3631133Y1906016D01*
X3634841Y1907895D01*
X3644696Y1910537D01*
X3653586Y1914702D01*
X3661664Y1920290D01*
X3668623Y1927250D01*
X3674211Y1935327D01*
X3678377Y1944217D01*
X3680917Y1953717D01*
X3681780Y1963470D01*
X3680917Y1973275D01*
X3678377Y1982774D01*
X3674211Y1991664D01*
X3668623Y1999742D01*
X3661664Y2006701D01*
X3653586Y2012289D01*
X3644696Y2016455D01*
X3635197Y2018995D01*
X3625443Y2019858D01*
X3615639Y2018995D01*
X3606190Y2016455D01*
X3596182Y2011730D01*
X3592322Y2010765D01*
X3588461Y2011324D01*
X3582822Y2013305D01*
X3576523Y2014016D01*
X3547110Y2014016D01*
X3543249Y2014778D01*
X3539947Y2016963D01*
X3537762Y2020265D01*
X3536950Y2024176D01*
X3537762Y2028037D01*
X3539947Y2031339D01*
X3664102Y2155494D01*
X3667404Y2157730D01*
X3671315Y2158492D01*
X3807510Y2158492D01*
X3811422Y2157730D01*
X3814724Y2155494D01*
X3816908Y2152243D01*
X3817670Y2148332D01*
X3817670Y2026666D01*
X3818382Y2020366D01*
X3820312Y2014880D01*
X3823411Y2010003D01*
X3827475Y2005888D01*
X3832402Y2002789D01*
X3837838Y2000910D01*
X3844188Y2000199D01*
X4085437Y2000199D01*
X4091736Y2000910D01*
X4097223Y2002789D01*
X4102100Y2005888D01*
X4106214Y2010003D01*
X4109262Y2014880D01*
X4111193Y2020366D01*
X4111904Y2026666D01*
X4111904Y2367534D01*
X4111193Y2373833D01*
X4109262Y2379319D01*
X4108704Y2382520D01*
X4109161Y2385669D01*
X4110583Y2388565D01*
X4116933Y2397556D01*
X4121048Y2406396D01*
X4123588Y2415895D01*
X4124451Y2425700D01*
X4123588Y2435504D01*
X4121048Y2445004D01*
X4116882Y2453894D01*
X4111294Y2461920D01*
X4104335Y2468880D01*
X4096258Y2474518D01*
X4087368Y2478684D01*
X4077868Y2481224D01*
X4068114Y2482088D01*
X4058310Y2481224D01*
X4048810Y2478684D01*
X4039920Y2474518D01*
X4031843Y2468880D01*
X4030268Y2467305D01*
X4026966Y2465070D01*
X4023055Y2464308D01*
X3864965Y2464308D01*
X3860800Y2465222D01*
X3857396Y2467711D01*
X3855262Y2471420D01*
X3850182Y2487625D01*
X3843070Y2504236D01*
X3834333Y2520035D01*
X3823970Y2534818D01*
X3812235Y2548534D01*
X3799128Y2560980D01*
X3787546Y2569921D01*
X3784854Y2573121D01*
X3783685Y2577084D01*
X3784193Y2581249D01*
X3786327Y2584856D01*
X3789679Y2587244D01*
X3793794Y2588107D01*
X5738774Y2590292D01*
X5742533Y2589580D01*
X5745734Y2587498D01*
X5952591Y2392121D01*
X5954979Y2388768D01*
X5955792Y2384755D01*
X5955792Y-136347D01*
X5954928Y-140462D01*
X5952439Y-143865D01*
X5847638Y-238201D01*
X5844489Y-240131D01*
X5840882Y-240792D01*
G37*

%LPC*%
G36*
X5277408Y183642D02*
G01*
X5466791Y183642D01*
X5473090Y184353D01*
X5478576Y186283D01*
X5483453Y189331D01*
X5487568Y193446D01*
X5490616Y198323D01*
X5492546Y203809D01*
X5493258Y210108D01*
X5493258Y399491D01*
X5492546Y405790D01*
X5490616Y411276D01*
X5487568Y416153D01*
X5483453Y420268D01*
X5478576Y423316D01*
X5473090Y425246D01*
X5466791Y425958D01*
X5277408Y425958D01*
X5271109Y425246D01*
X5265623Y423316D01*
X5260746Y420268D01*
X5256631Y416153D01*
X5253583Y411276D01*
X5251653Y405790D01*
X5250942Y399491D01*
X5250942Y210108D01*
X5251653Y203809D01*
X5253583Y198323D01*
X5256631Y193446D01*
X5260746Y189331D01*
X5265623Y186283D01*
X5271109Y184353D01*
G37*
G36*
X5776468Y196291D02*
G01*
X5789523Y203809D01*
X5801410Y212801D01*
X5812129Y223164D01*
X5821476Y234797D01*
X5829350Y247497D01*
X5830874Y250799D01*
X5776569Y250799D01*
G37*
G36*
X5668670Y196596D02*
G01*
X5668670Y250799D01*
X5614365Y250799D01*
X5619648Y241046D01*
X5628233Y228854D01*
X5638292Y217830D01*
X5649620Y208127D01*
X5662066Y199898D01*
G37*
G36*
X5614365Y358749D02*
G01*
X5668670Y358749D01*
X5668670Y413004D01*
X5662066Y409701D01*
X5649620Y401472D01*
X5638292Y391769D01*
X5628233Y380746D01*
X5619648Y368554D01*
G37*
G36*
X5776620Y358749D02*
G01*
X5830874Y358749D01*
X5829350Y362102D01*
X5821476Y374802D01*
X5812129Y386435D01*
X5801410Y396798D01*
X5789523Y405790D01*
X5776620Y413258D01*
G37*
G36*
X4983683Y426516D02*
G01*
X5025745Y426516D01*
X5025745Y476250D01*
X5026660Y480415D01*
X5026660Y520446D01*
X4985512Y520446D01*
X4985512Y507238D01*
X4986223Y500888D01*
X4988102Y495452D01*
X4991201Y490524D01*
X4995265Y486460D01*
X5003850Y481177D01*
X5006289Y477774D01*
X5007102Y473760D01*
X5006289Y469696D01*
X5003850Y466293D01*
X5000294Y464159D01*
X4998364Y463499D01*
X4993487Y460400D01*
X4989372Y456285D01*
X4986324Y451408D01*
X4984394Y445922D01*
X4983683Y439623D01*
G37*
G36*
X5083454Y426516D02*
G01*
X5125516Y426516D01*
X5125516Y439623D01*
X5124805Y445922D01*
X5122875Y451408D01*
X5119827Y456285D01*
X5115712Y460400D01*
X5110835Y463499D01*
X5108905Y464159D01*
X5105349Y466293D01*
X5102910Y469696D01*
X5102098Y473760D01*
X5102910Y477774D01*
X5105349Y481177D01*
X5113934Y486460D01*
X5117998Y490524D01*
X5121097Y495452D01*
X5122976Y500888D01*
X5123688Y507238D01*
X5123688Y520446D01*
X5082540Y520446D01*
X5082540Y480415D01*
X5083454Y476250D01*
G37*
G36*
X4124858Y640892D02*
G01*
X4230420Y640892D01*
X4236770Y641604D01*
X4242206Y643534D01*
X4247134Y646582D01*
X4251198Y650697D01*
X4254296Y655574D01*
X4256176Y661060D01*
X4256887Y667359D01*
X4256887Y701700D01*
X4124858Y701700D01*
G37*
G36*
X3781551Y640892D02*
G01*
X3887165Y640892D01*
X3887165Y701700D01*
X3755085Y701700D01*
X3755085Y667359D01*
X3755796Y661060D01*
X3757726Y655574D01*
X3760774Y650697D01*
X3764889Y646582D01*
X3769766Y643534D01*
X3775252Y641604D01*
G37*
G36*
X5308701Y689914D02*
G01*
X5316524Y691591D01*
X5328005Y695858D01*
X5338775Y701751D01*
X5348579Y709117D01*
X5357215Y717753D01*
X5364581Y727557D01*
X5370068Y737666D01*
X5308701Y737666D01*
G37*
G36*
X5721654Y690981D02*
G01*
X5724499Y691591D01*
X5735980Y695858D01*
X5746750Y701751D01*
X5756554Y709117D01*
X5765241Y717753D01*
X5772556Y727557D01*
X5778093Y737666D01*
X5721654Y737666D01*
G37*
G36*
X5618988Y690981D02*
G01*
X5618988Y737666D01*
X5562549Y737666D01*
X5568086Y727557D01*
X5575401Y717753D01*
X5584088Y709117D01*
X5593892Y701751D01*
X5604662Y695858D01*
X5616143Y691591D01*
G37*
G36*
X5187086Y810361D02*
G01*
X5195976Y810361D01*
X5195976Y816356D01*
X5193741Y813155D01*
X5190490Y811022D01*
G37*
G36*
X5562549Y810361D02*
G01*
X5618988Y810361D01*
X5618988Y857046D01*
X5616143Y856386D01*
X5604662Y852119D01*
X5593892Y846277D01*
X5584088Y838911D01*
X5575401Y830224D01*
X5568086Y820419D01*
G37*
G36*
X5721654Y810361D02*
G01*
X5778093Y810361D01*
X5772556Y820419D01*
X5765241Y830224D01*
X5756554Y838911D01*
X5746750Y846277D01*
X5735980Y852119D01*
X5724499Y856386D01*
X5721654Y857046D01*
G37*
G36*
X4759198Y1000861D02*
G01*
X4806238Y1000861D01*
X4806238Y1082903D01*
X4785664Y1082903D01*
X4779365Y1082192D01*
X4773879Y1080262D01*
X4769002Y1077214D01*
X4764887Y1073099D01*
X4761839Y1068222D01*
X4759909Y1062736D01*
X4759198Y1056436D01*
G37*
G36*
X4884216Y1186383D02*
G01*
X4897323Y1186383D01*
X4903622Y1187094D01*
X4909108Y1189024D01*
X4913985Y1192072D01*
X4918100Y1196187D01*
X4921199Y1201064D01*
X4923078Y1206550D01*
X4923790Y1212850D01*
X4923790Y1228445D01*
X4884216Y1228445D01*
G37*
G36*
X4884216Y1286154D02*
G01*
X4923790Y1286154D01*
X4923790Y1301750D01*
X4923078Y1308049D01*
X4921199Y1313535D01*
X4918100Y1318412D01*
X4913985Y1322527D01*
X4909108Y1325575D01*
X4903622Y1327505D01*
X4897323Y1328216D01*
X4884216Y1328216D01*
G37*
G36*
X4884216Y1351483D02*
G01*
X4897323Y1351483D01*
X4903622Y1352194D01*
X4909108Y1354124D01*
X4913985Y1357172D01*
X4918100Y1361287D01*
X4921199Y1366164D01*
X4923078Y1371650D01*
X4923790Y1377950D01*
X4923790Y1393545D01*
X4884216Y1393545D01*
G37*
G36*
X4672838Y1518412D02*
G01*
X4686046Y1518412D01*
X4686046Y1559560D01*
X4646320Y1559560D01*
X4646320Y1544878D01*
X4647031Y1538528D01*
X4648962Y1533093D01*
X4652060Y1528165D01*
X4656124Y1524101D01*
X4661052Y1521002D01*
X4666488Y1519123D01*
G37*
G36*
X5721654Y1555953D02*
G01*
X5724499Y1556613D01*
X5735980Y1560880D01*
X5746750Y1566722D01*
X5756554Y1574088D01*
X5765241Y1582775D01*
X5772556Y1592580D01*
X5778093Y1602638D01*
X5721654Y1602638D01*
G37*
G36*
X5618988Y1555953D02*
G01*
X5618988Y1602638D01*
X5562549Y1602638D01*
X5568086Y1592580D01*
X5575401Y1582775D01*
X5584088Y1574088D01*
X5593892Y1566722D01*
X5604662Y1560880D01*
X5616143Y1556613D01*
G37*
G36*
X5086350Y1565351D02*
G01*
X5154117Y1565351D01*
X5154117Y1592580D01*
X5154879Y1596440D01*
X5157114Y1599742D01*
X5160416Y1601978D01*
X5163870Y1602638D01*
X5134559Y1602638D01*
X5137404Y1597456D01*
X5138623Y1593443D01*
X5138115Y1589278D01*
X5135981Y1585722D01*
X5132578Y1583283D01*
X5128514Y1582420D01*
X5111038Y1582420D01*
X5104739Y1581708D01*
X5099253Y1579778D01*
X5094376Y1576730D01*
X5090261Y1572615D01*
X5087213Y1567738D01*
G37*
G36*
X5195976Y1596542D02*
G01*
X5195976Y1602638D01*
X5187086Y1602638D01*
X5190540Y1601978D01*
X5193842Y1599742D01*
G37*
G36*
X5070754Y1604010D02*
G01*
X5086350Y1604010D01*
X5092649Y1604721D01*
X5098135Y1606600D01*
X5103012Y1609699D01*
X5107076Y1613763D01*
X5108752Y1616557D01*
X5107127Y1624584D01*
X5106111Y1638249D01*
X5106416Y1643583D01*
X5070754Y1643583D01*
G37*
G36*
X4646320Y1615440D02*
G01*
X4686046Y1615440D01*
X4686046Y1656588D01*
X4672838Y1656588D01*
X4666488Y1655876D01*
X4661052Y1653997D01*
X4656124Y1650898D01*
X4652060Y1646834D01*
X4648962Y1641906D01*
X4647031Y1636471D01*
X4646320Y1630121D01*
G37*
G36*
X5562549Y1675333D02*
G01*
X5618988Y1675333D01*
X5618988Y1722018D01*
X5616143Y1721408D01*
X5604662Y1717141D01*
X5593892Y1711248D01*
X5584088Y1703882D01*
X5575401Y1695246D01*
X5568086Y1685442D01*
G37*
G36*
X5721654Y1675333D02*
G01*
X5778093Y1675333D01*
X5772556Y1685442D01*
X5765241Y1695246D01*
X5756554Y1703882D01*
X5746750Y1711248D01*
X5735980Y1717141D01*
X5724499Y1721408D01*
X5721654Y1722018D01*
G37*
G36*
X5308701Y1675333D02*
G01*
X5370068Y1675333D01*
X5364581Y1685442D01*
X5357215Y1695246D01*
X5348579Y1703882D01*
X5338775Y1711248D01*
X5326634Y1717903D01*
X5325211Y1718868D01*
X5322214Y1721916D01*
X5320741Y1725980D01*
X5320741Y1727098D01*
X5317845Y1724253D01*
X5314137Y1722729D01*
X5308701Y1723085D01*
G37*
G36*
X5134559Y1675333D02*
G01*
X5195976Y1675333D01*
X5195976Y1727301D01*
X5196738Y1731213D01*
X5198973Y1734515D01*
X5202275Y1736699D01*
X5206136Y1737461D01*
X5260441Y1737461D01*
X5266740Y1738172D01*
X5272227Y1740103D01*
X5277104Y1743202D01*
X5281218Y1747266D01*
X5284266Y1752193D01*
X5286298Y1757984D01*
X5288432Y1761540D01*
X5291836Y1763928D01*
X5295900Y1764792D01*
X5299964Y1763928D01*
X5303367Y1761540D01*
X5305501Y1757984D01*
X5307533Y1752193D01*
X5310581Y1747316D01*
X5314696Y1743202D01*
X5317642Y1741322D01*
X5320588Y1738528D01*
X5322214Y1734870D01*
X5322214Y1732330D01*
X5323128Y1734007D01*
X5326583Y1736598D01*
X5330799Y1737512D01*
X5344464Y1737512D01*
X5344464Y1777034D01*
X5297068Y1777034D01*
X5293156Y1777847D01*
X5289905Y1780032D01*
X5287670Y1783334D01*
X5286908Y1787194D01*
X5286908Y1819605D01*
X5287670Y1823466D01*
X5289905Y1826768D01*
X5293156Y1829003D01*
X5297068Y1829765D01*
X5344464Y1829765D01*
X5344464Y1869287D01*
X5331358Y1869287D01*
X5325059Y1868576D01*
X5319572Y1866696D01*
X5314696Y1863598D01*
X5310581Y1859534D01*
X5307533Y1854606D01*
X5305501Y1848815D01*
X5303367Y1845259D01*
X5299964Y1842871D01*
X5295900Y1842007D01*
X5291836Y1842871D01*
X5288432Y1845259D01*
X5286298Y1848815D01*
X5284266Y1854606D01*
X5281218Y1859483D01*
X5277104Y1863598D01*
X5272227Y1866696D01*
X5266740Y1868576D01*
X5260441Y1869287D01*
X5254498Y1869287D01*
X5250840Y1869948D01*
X5247690Y1871929D01*
X5245455Y1874824D01*
X5244388Y1878380D01*
X5245709Y1892554D01*
X5244846Y1902358D01*
X5242306Y1911857D01*
X5238140Y1920748D01*
X5232552Y1928825D01*
X5225592Y1935784D01*
X5217515Y1941372D01*
X5208625Y1945538D01*
X5199126Y1948078D01*
X5189372Y1948942D01*
X5179568Y1948078D01*
X5170068Y1945538D01*
X5161178Y1941372D01*
X5153101Y1935784D01*
X5146141Y1928825D01*
X5140553Y1920748D01*
X5136388Y1911857D01*
X5133848Y1902358D01*
X5133136Y1894332D01*
X5132222Y1890928D01*
X5130190Y1888032D01*
X5114442Y1872234D01*
X5111648Y1870303D01*
X5108397Y1869338D01*
X5104993Y1869541D01*
X5101844Y1870811D01*
X5098135Y1873199D01*
X5092649Y1875078D01*
X5086350Y1875789D01*
X4997450Y1875789D01*
X4991150Y1875078D01*
X4985664Y1873199D01*
X4980787Y1870100D01*
X4976672Y1865985D01*
X4973624Y1861108D01*
X4971694Y1855622D01*
X4970983Y1849323D01*
X4970983Y1770481D01*
X4971694Y1764131D01*
X4973624Y1758696D01*
X4976672Y1753768D01*
X4980787Y1749704D01*
X4982667Y1748485D01*
X4985613Y1745691D01*
X4987239Y1741932D01*
X4987239Y1737868D01*
X4985613Y1734108D01*
X4982667Y1731314D01*
X4980787Y1730095D01*
X4976672Y1726031D01*
X4973624Y1721104D01*
X4971694Y1715668D01*
X4970983Y1709318D01*
X4970983Y1696262D01*
X5013045Y1696262D01*
X5013045Y1733804D01*
X5013807Y1737715D01*
X5016042Y1741017D01*
X5019344Y1743202D01*
X5023205Y1743964D01*
X5060594Y1743964D01*
X5064455Y1743202D01*
X5067757Y1741017D01*
X5069992Y1737715D01*
X5070754Y1733804D01*
X5070754Y1696262D01*
X5112816Y1696262D01*
X5112816Y1709318D01*
X5112105Y1715668D01*
X5110175Y1721104D01*
X5107127Y1726031D01*
X5103012Y1730095D01*
X5101132Y1731314D01*
X5098186Y1734108D01*
X5096560Y1737868D01*
X5096560Y1741932D01*
X5098186Y1745691D01*
X5101132Y1748485D01*
X5103012Y1749704D01*
X5107127Y1753768D01*
X5110784Y1759661D01*
X5113680Y1762658D01*
X5117541Y1764233D01*
X5121351Y1764741D01*
X5146090Y1764741D01*
X5150154Y1763928D01*
X5153558Y1761540D01*
X5155692Y1757984D01*
X5157724Y1752193D01*
X5160772Y1747266D01*
X5164886Y1743202D01*
X5169763Y1740103D01*
X5175250Y1738172D01*
X5177485Y1737918D01*
X5181701Y1736445D01*
X5184902Y1733296D01*
X5186426Y1729079D01*
X5185968Y1724609D01*
X5183632Y1720799D01*
X5179923Y1718310D01*
X5176672Y1717141D01*
X5165902Y1711248D01*
X5156098Y1703882D01*
X5147411Y1695246D01*
X5140096Y1685442D01*
G37*
G36*
X4884216Y1694383D02*
G01*
X4897323Y1694383D01*
X4903622Y1695094D01*
X4909108Y1697024D01*
X4913985Y1700072D01*
X4918100Y1704187D01*
X4921199Y1709064D01*
X4923078Y1714550D01*
X4923790Y1720850D01*
X4923790Y1736445D01*
X4884216Y1736445D01*
G37*
G36*
X5397144Y1737512D02*
G01*
X5410250Y1737512D01*
X5416550Y1738223D01*
X5422036Y1740103D01*
X5426913Y1743202D01*
X5431028Y1747316D01*
X5434076Y1752193D01*
X5436006Y1757629D01*
X5436717Y1763979D01*
X5436717Y1777034D01*
X5397144Y1777034D01*
G37*
G36*
X5778500Y1790192D02*
G01*
X5793892Y1791157D01*
X5809030Y1793900D01*
X5823712Y1798472D01*
X5837732Y1804822D01*
X5850940Y1812798D01*
X5863031Y1822297D01*
X5873902Y1833168D01*
X5883402Y1845259D01*
X5891377Y1858467D01*
X5897727Y1872488D01*
X5902299Y1887169D01*
X5905042Y1902307D01*
X5906008Y1917700D01*
X5905042Y1933092D01*
X5902299Y1948230D01*
X5897727Y1962912D01*
X5891377Y1976932D01*
X5883402Y1990140D01*
X5873902Y2002231D01*
X5863031Y2013102D01*
X5850940Y2022602D01*
X5837732Y2030577D01*
X5823712Y2036927D01*
X5809030Y2041499D01*
X5793892Y2044242D01*
X5778500Y2045207D01*
X5763107Y2044242D01*
X5747969Y2041499D01*
X5733288Y2036927D01*
X5719267Y2030577D01*
X5706059Y2022602D01*
X5693968Y2013102D01*
X5683097Y2002231D01*
X5673598Y1990140D01*
X5665622Y1976932D01*
X5659272Y1962912D01*
X5654700Y1948230D01*
X5651957Y1933092D01*
X5650992Y1917700D01*
X5651957Y1902307D01*
X5654700Y1887169D01*
X5659272Y1872488D01*
X5665622Y1858467D01*
X5673598Y1845259D01*
X5683097Y1833168D01*
X5693968Y1822297D01*
X5706059Y1812798D01*
X5719267Y1804822D01*
X5733288Y1798472D01*
X5747969Y1793900D01*
X5763107Y1791157D01*
G37*
G36*
X4884216Y1794154D02*
G01*
X4923790Y1794154D01*
X4923790Y1809750D01*
X4923078Y1816049D01*
X4921199Y1821535D01*
X4918100Y1826412D01*
X4913985Y1830527D01*
X4909108Y1833575D01*
X4903622Y1835505D01*
X4897323Y1836216D01*
X4884216Y1836216D01*
G37*
G36*
X5397144Y1829765D02*
G01*
X5436717Y1829765D01*
X5436717Y1842820D01*
X5436006Y1849170D01*
X5434076Y1854606D01*
X5431028Y1859534D01*
X5426913Y1863598D01*
X5422036Y1866696D01*
X5416550Y1868576D01*
X5410250Y1869287D01*
X5397144Y1869287D01*
G37*
G36*
X5778500Y2221992D02*
G01*
X5793892Y2222957D01*
X5809030Y2225700D01*
X5823712Y2230272D01*
X5837732Y2236622D01*
X5850940Y2244598D01*
X5863031Y2254097D01*
X5873902Y2264968D01*
X5883402Y2277059D01*
X5891377Y2290267D01*
X5897727Y2304288D01*
X5902299Y2318969D01*
X5905042Y2334107D01*
X5906008Y2349500D01*
X5905042Y2364892D01*
X5902299Y2380030D01*
X5897727Y2394712D01*
X5891377Y2408732D01*
X5883402Y2421940D01*
X5873902Y2434031D01*
X5863031Y2444902D01*
X5850940Y2454402D01*
X5837732Y2462377D01*
X5823712Y2468727D01*
X5809030Y2473299D01*
X5793892Y2476042D01*
X5778500Y2477008D01*
X5763107Y2476042D01*
X5747969Y2473299D01*
X5733288Y2468727D01*
X5719267Y2462377D01*
X5706059Y2454402D01*
X5693968Y2444902D01*
X5683097Y2434031D01*
X5673598Y2421940D01*
X5665622Y2408732D01*
X5659272Y2394712D01*
X5654700Y2380030D01*
X5651957Y2364892D01*
X5650992Y2349500D01*
X5651957Y2334107D01*
X5654700Y2318969D01*
X5659272Y2304288D01*
X5665622Y2290267D01*
X5673598Y2277059D01*
X5683097Y2264968D01*
X5693968Y2254097D01*
X5706059Y2244598D01*
X5719267Y2236622D01*
X5733288Y2230272D01*
X5747969Y2225700D01*
X5763107Y2222957D01*
G37*

%LPD*%
G36*
X-620064Y-240792D02*
G01*
X-623925Y-240029D01*
X-627227Y-237794D01*
X-694994Y-170027D01*
X-697230Y-166725D01*
X-697992Y-162864D01*
X-697992Y607364D01*
X-697230Y611225D01*
X-694994Y614527D01*
X-652627Y656894D01*
X-649325Y659130D01*
X-645464Y659892D01*
X-190906Y659892D01*
X-187096Y660196D01*
X-180035Y662228D01*
X-175158Y664972D01*
X-171907Y667766D01*
X-45466Y794207D01*
X-42976Y797102D01*
X-39420Y803554D01*
X-37896Y808939D01*
X-37592Y813206D01*
X-37592Y2531414D01*
X-36830Y2535275D01*
X-34594Y2538577D01*
X7772Y2580995D01*
X11074Y2583180D01*
X14935Y2583942D01*
X21945Y2583942D01*
X25704Y2583230D01*
X28956Y2581148D01*
X31191Y2577998D01*
X32105Y2574239D01*
X31546Y2570429D01*
X30886Y2568651D01*
X30175Y2562352D01*
X30175Y2531770D01*
X72237Y2531770D01*
X72237Y2573883D01*
X73050Y2577744D01*
X75234Y2581046D01*
X78536Y2583281D01*
X82397Y2584043D01*
X119786Y2584094D01*
X123698Y2583281D01*
X127000Y2581097D01*
X129184Y2577795D01*
X129946Y2573934D01*
X129946Y2531770D01*
X147015Y2531770D01*
X150926Y2530957D01*
X154228Y2528773D01*
X156413Y2525471D01*
X157175Y2521610D01*
X157175Y2454198D01*
X156413Y2450338D01*
X154228Y2447036D01*
X150926Y2444800D01*
X147015Y2444038D01*
X129946Y2444038D01*
X129946Y2386990D01*
X145542Y2386990D01*
X151841Y2387701D01*
X157327Y2389632D01*
X159207Y2390800D01*
X162712Y2392172D01*
X166471Y2392172D01*
X170027Y2390800D01*
X171907Y2389632D01*
X177342Y2387701D01*
X181254Y2387244D01*
X184556Y2386330D01*
X187350Y2384298D01*
X189280Y2381504D01*
X190296Y2377440D01*
X192481Y2370226D01*
X196037Y2363571D01*
X200812Y2357729D01*
X206654Y2352903D01*
X213360Y2349347D01*
X220573Y2347163D01*
X228904Y2346350D01*
X232257Y2345385D01*
X235102Y2343404D01*
X237134Y2340508D01*
X239471Y2335479D01*
X245110Y2327452D01*
X252069Y2320493D01*
X260096Y2314854D01*
X268986Y2310688D01*
X278485Y2308148D01*
X288290Y2307285D01*
X298094Y2308148D01*
X307594Y2310688D01*
X316484Y2314854D01*
X324510Y2320493D01*
X331470Y2327452D01*
X335483Y2333142D01*
X338734Y2336139D01*
X342900Y2337460D01*
X347268Y2336850D01*
X350977Y2334514D01*
X551789Y2133701D01*
X558038Y2128570D01*
X564692Y2125014D01*
X571906Y2122830D01*
X579932Y2122017D01*
X1632915Y2122017D01*
X1636776Y2121255D01*
X1640078Y2119020D01*
X1641703Y2117445D01*
X1649730Y2111806D01*
X1658620Y2107641D01*
X1668119Y2105101D01*
X1677924Y2104237D01*
X1687728Y2105101D01*
X1697228Y2107641D01*
X1706118Y2111806D01*
X1714144Y2117445D01*
X1721104Y2124405D01*
X1726742Y2132431D01*
X1730908Y2141321D01*
X1733448Y2150821D01*
X1734312Y2160625D01*
X1733448Y2170430D01*
X1730908Y2179929D01*
X1726742Y2188819D01*
X1721104Y2196846D01*
X1714144Y2203805D01*
X1706118Y2209444D01*
X1697228Y2213610D01*
X1687728Y2216150D01*
X1677924Y2217013D01*
X1668119Y2216150D01*
X1658620Y2213610D01*
X1649730Y2209444D01*
X1641703Y2203805D01*
X1640078Y2202230D01*
X1636776Y2199995D01*
X1632915Y2199233D01*
X599643Y2199233D01*
X595782Y2199995D01*
X592480Y2202230D01*
X424383Y2370277D01*
X422148Y2373731D01*
X421436Y2377846D01*
X422452Y2381859D01*
X424942Y2385161D01*
X428599Y2387142D01*
X432714Y2387549D01*
X437692Y2386990D01*
X526542Y2386990D01*
X532841Y2387701D01*
X538327Y2389632D01*
X540207Y2390800D01*
X543712Y2392172D01*
X547471Y2392172D01*
X551027Y2390800D01*
X552907Y2389632D01*
X558342Y2387701D01*
X564692Y2386990D01*
X653542Y2386990D01*
X659841Y2387701D01*
X665327Y2389632D01*
X667207Y2390800D01*
X670712Y2392172D01*
X674471Y2392172D01*
X678027Y2390800D01*
X679907Y2389632D01*
X685342Y2387701D01*
X691692Y2386990D01*
X780542Y2386990D01*
X786841Y2387701D01*
X792327Y2389632D01*
X794207Y2390800D01*
X797712Y2392172D01*
X801471Y2392172D01*
X805027Y2390800D01*
X806907Y2389632D01*
X812342Y2387701D01*
X818692Y2386990D01*
X907542Y2386990D01*
X913841Y2387701D01*
X919327Y2389632D01*
X921207Y2390800D01*
X924712Y2392172D01*
X928471Y2392172D01*
X932027Y2390800D01*
X933907Y2389632D01*
X939342Y2387701D01*
X945692Y2386990D01*
X1034542Y2386990D01*
X1040841Y2387701D01*
X1046327Y2389632D01*
X1048207Y2390800D01*
X1051712Y2392172D01*
X1055471Y2392172D01*
X1059027Y2390800D01*
X1060907Y2389632D01*
X1066342Y2387701D01*
X1072692Y2386990D01*
X1161542Y2386990D01*
X1167841Y2387701D01*
X1173327Y2389632D01*
X1175207Y2390800D01*
X1178712Y2392172D01*
X1182471Y2392172D01*
X1186027Y2390800D01*
X1187907Y2389632D01*
X1193342Y2387701D01*
X1199692Y2386990D01*
X1288542Y2386990D01*
X1294841Y2387701D01*
X1300327Y2389632D01*
X1302207Y2390800D01*
X1305712Y2392172D01*
X1309471Y2392172D01*
X1313027Y2390800D01*
X1314907Y2389632D01*
X1320342Y2387701D01*
X1326692Y2386990D01*
X1415542Y2386990D01*
X1421841Y2387701D01*
X1427327Y2389632D01*
X1429207Y2390800D01*
X1432712Y2392172D01*
X1436471Y2392172D01*
X1440027Y2390800D01*
X1441907Y2389632D01*
X1447342Y2387701D01*
X1453692Y2386990D01*
X1542542Y2386990D01*
X1548841Y2387701D01*
X1554327Y2389632D01*
X1556207Y2390800D01*
X1559712Y2392172D01*
X1563471Y2392172D01*
X1567027Y2390800D01*
X1568907Y2389632D01*
X1574342Y2387701D01*
X1580692Y2386990D01*
X1669542Y2386990D01*
X1675841Y2387701D01*
X1681327Y2389632D01*
X1683207Y2390800D01*
X1686712Y2392172D01*
X1690471Y2392172D01*
X1694027Y2390800D01*
X1695907Y2389632D01*
X1701342Y2387701D01*
X1705254Y2387244D01*
X1708556Y2386330D01*
X1711350Y2384298D01*
X1713280Y2381504D01*
X1714296Y2377440D01*
X1716481Y2370226D01*
X1720037Y2363571D01*
X1724812Y2357729D01*
X1730654Y2352903D01*
X1737360Y2349347D01*
X1744573Y2347163D01*
X1752600Y2346350D01*
X1766011Y2346350D01*
X1769922Y2345588D01*
X1773224Y2343404D01*
X1775409Y2340102D01*
X1776171Y2336190D01*
X1776171Y2266950D01*
X1776882Y2260650D01*
X1778812Y2255164D01*
X1781505Y2250897D01*
X1782724Y2248103D01*
X1783029Y2245055D01*
X1782419Y2242007D01*
X1779879Y2235098D01*
X1779219Y2228850D01*
X1779219Y2139950D01*
X1779930Y2133650D01*
X1781810Y2128164D01*
X1782978Y2126284D01*
X1784400Y2122779D01*
X1784400Y2119020D01*
X1782978Y2115515D01*
X1781810Y2113635D01*
X1779930Y2108149D01*
X1779219Y2101850D01*
X1779219Y2012950D01*
X1779930Y2006650D01*
X1781810Y2001164D01*
X1782978Y1999284D01*
X1784400Y1995779D01*
X1784400Y1992020D01*
X1782978Y1988515D01*
X1781810Y1986635D01*
X1779930Y1981149D01*
X1779219Y1974850D01*
X1779219Y1885950D01*
X1779930Y1879650D01*
X1781810Y1874164D01*
X1782978Y1872284D01*
X1784400Y1868779D01*
X1784400Y1865020D01*
X1782978Y1861515D01*
X1781810Y1859635D01*
X1779930Y1854149D01*
X1779219Y1847850D01*
X1779219Y1758950D01*
X1779930Y1752650D01*
X1781810Y1747164D01*
X1782978Y1745284D01*
X1784400Y1741779D01*
X1784400Y1738020D01*
X1782978Y1734515D01*
X1781810Y1732635D01*
X1779930Y1727149D01*
X1779219Y1720850D01*
X1779219Y1631950D01*
X1779930Y1625650D01*
X1781810Y1620164D01*
X1782978Y1618284D01*
X1784400Y1614779D01*
X1784400Y1611020D01*
X1782978Y1607515D01*
X1781810Y1605635D01*
X1779930Y1600149D01*
X1779219Y1593850D01*
X1779219Y1504950D01*
X1779930Y1498650D01*
X1781810Y1493164D01*
X1782978Y1491284D01*
X1784400Y1487779D01*
X1784400Y1484020D01*
X1782978Y1480515D01*
X1781810Y1478635D01*
X1779930Y1473149D01*
X1779219Y1466850D01*
X1779219Y1377950D01*
X1779930Y1371650D01*
X1781810Y1366164D01*
X1782978Y1364284D01*
X1784400Y1360779D01*
X1784400Y1357020D01*
X1782978Y1353515D01*
X1781810Y1351635D01*
X1779930Y1346149D01*
X1779473Y1342237D01*
X1778507Y1338935D01*
X1776526Y1336141D01*
X1773682Y1334211D01*
X1762455Y1331010D01*
X1755749Y1327454D01*
X1749552Y1322324D01*
X1723847Y1296670D01*
X1721002Y1294638D01*
X1713433Y1291132D01*
X1705356Y1285494D01*
X1698396Y1278534D01*
X1692808Y1270508D01*
X1688642Y1261618D01*
X1686102Y1252118D01*
X1685239Y1242314D01*
X1686102Y1232509D01*
X1688642Y1223010D01*
X1692808Y1214120D01*
X1698396Y1206093D01*
X1705356Y1199134D01*
X1713433Y1193495D01*
X1722323Y1189329D01*
X1731822Y1186789D01*
X1741627Y1185926D01*
X1751380Y1186789D01*
X1760880Y1189329D01*
X1764741Y1191158D01*
X1768703Y1192072D01*
X1772666Y1191412D01*
X1776069Y1189228D01*
X1778406Y1185926D01*
X1779219Y1181912D01*
X1779219Y1123950D01*
X1779930Y1117650D01*
X1781810Y1112164D01*
X1782978Y1110284D01*
X1784400Y1106779D01*
X1784400Y1103020D01*
X1782978Y1099515D01*
X1781810Y1097635D01*
X1779930Y1092149D01*
X1779219Y1085850D01*
X1779219Y996950D01*
X1779930Y990650D01*
X1781810Y985164D01*
X1782978Y983284D01*
X1784400Y979779D01*
X1784400Y976020D01*
X1782978Y972515D01*
X1781810Y970635D01*
X1779930Y965149D01*
X1779219Y958850D01*
X1779219Y889762D01*
X1778406Y885850D01*
X1776222Y882599D01*
X1772920Y880364D01*
X1769059Y879602D01*
X1498752Y879602D01*
X1490726Y878789D01*
X1483512Y876604D01*
X1476857Y873048D01*
X1471015Y868273D01*
X1466037Y862228D01*
X1462481Y855573D01*
X1459280Y844296D01*
X1457350Y841502D01*
X1454556Y839469D01*
X1451254Y838555D01*
X1447342Y838098D01*
X1441907Y836168D01*
X1440027Y834999D01*
X1436471Y833628D01*
X1432712Y833628D01*
X1429207Y834999D01*
X1427327Y836168D01*
X1421841Y838098D01*
X1415542Y838809D01*
X1326692Y838809D01*
X1320342Y838098D01*
X1314907Y836168D01*
X1313027Y834999D01*
X1309471Y833628D01*
X1305712Y833628D01*
X1302207Y834999D01*
X1300327Y836168D01*
X1294841Y838098D01*
X1288542Y838809D01*
X1199692Y838809D01*
X1193342Y838098D01*
X1187907Y836168D01*
X1186027Y834999D01*
X1182471Y833628D01*
X1178712Y833628D01*
X1175207Y834999D01*
X1173327Y836168D01*
X1167841Y838098D01*
X1161542Y838809D01*
X1072692Y838809D01*
X1066342Y838098D01*
X1060907Y836168D01*
X1059027Y834999D01*
X1055471Y833628D01*
X1051712Y833628D01*
X1048207Y834999D01*
X1046327Y836168D01*
X1040841Y838098D01*
X1034542Y838809D01*
X945692Y838809D01*
X939342Y838098D01*
X933907Y836168D01*
X932027Y834999D01*
X928471Y833628D01*
X924712Y833628D01*
X921207Y834999D01*
X919327Y836168D01*
X913841Y838098D01*
X910742Y838453D01*
X907186Y839520D01*
X904290Y841756D01*
X902360Y844905D01*
X901700Y848563D01*
X901700Y887984D01*
X902665Y892302D01*
X905306Y895756D01*
X909218Y897788D01*
X913637Y897991D01*
X927506Y891489D01*
X937006Y888949D01*
X946810Y888085D01*
X956614Y888949D01*
X966114Y891489D01*
X975004Y895654D01*
X983030Y901293D01*
X989990Y908253D01*
X995629Y916279D01*
X999794Y925169D01*
X1002334Y934669D01*
X1003198Y944473D01*
X1002334Y954278D01*
X999794Y963777D01*
X995629Y972667D01*
X989990Y980694D01*
X988415Y982319D01*
X986180Y985621D01*
X985418Y989482D01*
X985418Y1029766D01*
X984605Y1037793D01*
X982421Y1045006D01*
X978865Y1051661D01*
X973734Y1057910D01*
X921410Y1110234D01*
X915212Y1115364D01*
X908507Y1118920D01*
X901293Y1121105D01*
X893267Y1121867D01*
X598068Y1121867D01*
X590042Y1121105D01*
X582828Y1118920D01*
X576122Y1115364D01*
X569925Y1110234D01*
X328168Y868476D01*
X323037Y862228D01*
X319481Y855573D01*
X316280Y844296D01*
X314350Y841502D01*
X311556Y839469D01*
X308254Y838555D01*
X304342Y838098D01*
X298907Y836168D01*
X297027Y834999D01*
X293471Y833628D01*
X289712Y833628D01*
X286207Y834999D01*
X284327Y836168D01*
X278841Y838098D01*
X274929Y838555D01*
X271627Y839469D01*
X268833Y841502D01*
X266903Y844296D01*
X265887Y848360D01*
X263702Y855573D01*
X260146Y862228D01*
X257454Y866241D01*
X256641Y870356D01*
X254101Y879856D01*
X249936Y888746D01*
X244297Y896772D01*
X237337Y903732D01*
X229311Y909370D01*
X220421Y913536D01*
X210921Y916076D01*
X201117Y916940D01*
X191312Y916076D01*
X181813Y913536D01*
X172923Y909370D01*
X164896Y903732D01*
X157937Y896772D01*
X152298Y888746D01*
X148132Y879856D01*
X145592Y870356D01*
X144729Y860552D01*
X145694Y849833D01*
X145186Y845718D01*
X143052Y842111D01*
X139649Y839673D01*
X135585Y838809D01*
X129946Y838809D01*
X129946Y781761D01*
X147015Y781761D01*
X150926Y780999D01*
X154228Y778764D01*
X156413Y775462D01*
X157175Y771601D01*
X157175Y704189D01*
X156413Y700328D01*
X154228Y697026D01*
X150926Y694842D01*
X147015Y694029D01*
X129946Y694029D01*
X129946Y636981D01*
X145542Y636981D01*
X151841Y637692D01*
X157327Y639622D01*
X159207Y640791D01*
X162712Y642162D01*
X166471Y642162D01*
X170027Y640791D01*
X171907Y639622D01*
X174853Y638556D01*
X178358Y636473D01*
X180746Y633171D01*
X181660Y629208D01*
X180949Y625195D01*
X178663Y621792D01*
X176276Y619353D01*
X171145Y613156D01*
X165709Y602640D01*
X162915Y600151D01*
X159461Y598881D01*
X155752Y598881D01*
X152298Y600252D01*
X147015Y603605D01*
X141528Y605485D01*
X135229Y606196D01*
X99669Y606196D01*
X99669Y544169D01*
X154432Y544169D01*
X158343Y543356D01*
X161594Y541172D01*
X163830Y537870D01*
X164592Y534009D01*
X164592Y456590D01*
X163830Y452729D01*
X161594Y449427D01*
X158343Y447243D01*
X154432Y446430D01*
X99669Y446430D01*
X99669Y404368D01*
X98856Y400456D01*
X96672Y397205D01*
X93370Y394970D01*
X89509Y394208D01*
X12090Y394208D01*
X8229Y394970D01*
X4927Y397205D01*
X2743Y400456D01*
X1930Y404368D01*
X1930Y446430D01*
X-60096Y446430D01*
X-60096Y410870D01*
X-59385Y404571D01*
X-57505Y399084D01*
X-54406Y394208D01*
X-50292Y390093D01*
X-45415Y386994D01*
X-42011Y385826D01*
X-38506Y383743D01*
X-36068Y380441D01*
X-35204Y376478D01*
X-35915Y372465D01*
X-38150Y369062D01*
X-115214Y291998D01*
X-118364Y289864D01*
X-122174Y289052D01*
X-125933Y289661D01*
X-129235Y291693D01*
X-139750Y307644D01*
X-148945Y318465D01*
X-159461Y328015D01*
X-171094Y336143D01*
X-183692Y342696D01*
X-197053Y347624D01*
X-210921Y350774D01*
X-225044Y352145D01*
X-239267Y351688D01*
X-253288Y349402D01*
X-266903Y345338D01*
X-279908Y339598D01*
X-292049Y332232D01*
X-303174Y323392D01*
X-313029Y313182D01*
X-321513Y301802D01*
X-328523Y289407D01*
X-333857Y276250D01*
X-337464Y262483D01*
X-339242Y248412D01*
X-339242Y234188D01*
X-337464Y220116D01*
X-333857Y206349D01*
X-328523Y193192D01*
X-321513Y180797D01*
X-312826Y169164D01*
X-310997Y165049D01*
X-311099Y160629D01*
X-313131Y156616D01*
X-316636Y153873D01*
X-320954Y152908D01*
X-380492Y152908D01*
X-388518Y152095D01*
X-395732Y149910D01*
X-402437Y146354D01*
X-408635Y141224D01*
X-457098Y92760D01*
X-460298Y90627D01*
X-464058Y89814D01*
X-467817Y90424D01*
X-476453Y93624D01*
X-490321Y96774D01*
X-504443Y98145D01*
X-518668Y97688D01*
X-532688Y95402D01*
X-546303Y91338D01*
X-559308Y85598D01*
X-571449Y78232D01*
X-582574Y69392D01*
X-592429Y59182D01*
X-600913Y47802D01*
X-607923Y35407D01*
X-613257Y22250D01*
X-616864Y8483D01*
X-618642Y-5588D01*
X-618642Y-19812D01*
X-616864Y-33883D01*
X-613257Y-47650D01*
X-607923Y-60807D01*
X-600913Y-73202D01*
X-592429Y-84582D01*
X-582574Y-94792D01*
X-571449Y-103632D01*
X-559308Y-110998D01*
X-546303Y-116789D01*
X-532688Y-120802D01*
X-518668Y-123088D01*
X-504443Y-123545D01*
X-490321Y-122174D01*
X-476453Y-119024D01*
X-463092Y-114096D01*
X-450494Y-107543D01*
X-438861Y-99415D01*
X-428345Y-89865D01*
X-419150Y-79044D01*
X-411378Y-67106D01*
X-405231Y-54305D01*
X-400761Y-40843D01*
X-398018Y-26873D01*
X-397103Y-12700D01*
X-398018Y1473D01*
X-400761Y15443D01*
X-404876Y27889D01*
X-405384Y31597D01*
X-404520Y35204D01*
X-402437Y38303D01*
X-367995Y72694D01*
X-364693Y74930D01*
X-360781Y75692D01*
X-320954Y75692D01*
X-316636Y74726D01*
X-313131Y71983D01*
X-311099Y67970D01*
X-310997Y63550D01*
X-312826Y59436D01*
X-321513Y47802D01*
X-328523Y35407D01*
X-333857Y22250D01*
X-337464Y8483D01*
X-339242Y-5588D01*
X-339242Y-19812D01*
X-337464Y-33883D01*
X-333857Y-47650D01*
X-328523Y-60807D01*
X-321513Y-73202D01*
X-313029Y-84582D01*
X-303174Y-94792D01*
X-292049Y-103632D01*
X-279908Y-110998D01*
X-266903Y-116789D01*
X-253288Y-120802D01*
X-239267Y-123088D01*
X-225044Y-123545D01*
X-210921Y-122174D01*
X-197053Y-119024D01*
X-183692Y-114096D01*
X-171094Y-107543D01*
X-159461Y-99415D01*
X-148945Y-89865D01*
X-139750Y-79044D01*
X-131978Y-67106D01*
X-125831Y-54305D01*
X-121361Y-40843D01*
X-118618Y-26873D01*
X-117703Y-12700D01*
X-118618Y1473D01*
X-121361Y15443D01*
X-125476Y27889D01*
X-125983Y31597D01*
X-125120Y35204D01*
X-123037Y38303D01*
X-88595Y72694D01*
X-85293Y74930D01*
X-81381Y75692D01*
X-41554Y75692D01*
X-37236Y74726D01*
X-33731Y71983D01*
X-31699Y67970D01*
X-31597Y63550D01*
X-33426Y59436D01*
X-42113Y47802D01*
X-49123Y35407D01*
X-54457Y22250D01*
X-58064Y8483D01*
X-59842Y-5588D01*
X-59842Y-19812D01*
X-58064Y-33883D01*
X-54457Y-47650D01*
X-49123Y-60807D01*
X-42113Y-73202D01*
X-33629Y-84582D01*
X-23774Y-94792D01*
X-12649Y-103632D01*
X-508Y-110998D01*
X12496Y-116789D01*
X26111Y-120802D01*
X40132Y-123088D01*
X54356Y-123545D01*
X68478Y-122174D01*
X82346Y-119024D01*
X95707Y-114096D01*
X108305Y-107543D01*
X119938Y-99415D01*
X130454Y-89865D01*
X139649Y-79044D01*
X147421Y-67106D01*
X153568Y-54305D01*
X158038Y-40843D01*
X160782Y-26873D01*
X161696Y-12700D01*
X160782Y1473D01*
X158038Y15443D01*
X153924Y27889D01*
X153416Y31597D01*
X154279Y35204D01*
X156362Y38303D01*
X204724Y86614D01*
X208025Y88849D01*
X211937Y89611D01*
X251967Y89611D01*
X256032Y88747D01*
X259435Y86360D01*
X261569Y82804D01*
X262128Y78689D01*
X260959Y74726D01*
X258317Y71526D01*
X255625Y69392D01*
X245770Y59182D01*
X237286Y47802D01*
X230276Y35407D01*
X224942Y22250D01*
X221335Y8483D01*
X219557Y-5588D01*
X219557Y-19812D01*
X221335Y-33883D01*
X224942Y-47650D01*
X230276Y-60807D01*
X237286Y-73202D01*
X245770Y-84582D01*
X255625Y-94792D01*
X266750Y-103632D01*
X278892Y-110998D01*
X291896Y-116789D01*
X305511Y-120802D01*
X319532Y-123088D01*
X333756Y-123545D01*
X347878Y-122174D01*
X361746Y-119024D01*
X375107Y-114096D01*
X387705Y-107543D01*
X399338Y-99415D01*
X409854Y-89865D01*
X419049Y-79044D01*
X426821Y-67106D01*
X432968Y-54305D01*
X437438Y-40843D01*
X440182Y-26873D01*
X441096Y-12700D01*
X440182Y1473D01*
X437438Y15443D01*
X432968Y28905D01*
X426821Y41706D01*
X419049Y53644D01*
X409854Y64465D01*
X401624Y71932D01*
X399237Y75184D01*
X398272Y79146D01*
X398983Y83108D01*
X401167Y86512D01*
X404469Y88798D01*
X408432Y89611D01*
X531368Y89611D01*
X535432Y88747D01*
X538835Y86360D01*
X540969Y82804D01*
X541528Y78689D01*
X540359Y74726D01*
X537718Y71526D01*
X535025Y69392D01*
X525170Y59182D01*
X516686Y47802D01*
X509676Y35407D01*
X504342Y22250D01*
X500735Y8483D01*
X498957Y-5588D01*
X498957Y-19812D01*
X500735Y-33883D01*
X504342Y-47650D01*
X509676Y-60807D01*
X516686Y-73202D01*
X525170Y-84582D01*
X535025Y-94792D01*
X546150Y-103632D01*
X558292Y-110998D01*
X571296Y-116789D01*
X584911Y-120802D01*
X598932Y-123088D01*
X613156Y-123545D01*
X627278Y-122174D01*
X641146Y-119024D01*
X654507Y-114096D01*
X667105Y-107543D01*
X678738Y-99415D01*
X689254Y-89865D01*
X698449Y-79044D01*
X706221Y-67106D01*
X712368Y-54305D01*
X716838Y-40843D01*
X719582Y-26873D01*
X720496Y-12700D01*
X719582Y1473D01*
X716838Y15443D01*
X712724Y27889D01*
X712216Y31597D01*
X713079Y35204D01*
X715162Y38303D01*
X749604Y72694D01*
X752906Y74930D01*
X756818Y75692D01*
X796645Y75692D01*
X800963Y74726D01*
X804468Y71983D01*
X806500Y67970D01*
X806602Y63550D01*
X804773Y59436D01*
X796086Y47802D01*
X789076Y35407D01*
X783742Y22250D01*
X780135Y8483D01*
X778357Y-5588D01*
X778357Y-19812D01*
X780135Y-33883D01*
X783742Y-47650D01*
X789076Y-60807D01*
X796086Y-73202D01*
X804570Y-84582D01*
X814425Y-94792D01*
X825550Y-103632D01*
X837692Y-110998D01*
X850696Y-116789D01*
X864311Y-120802D01*
X878332Y-123088D01*
X892556Y-123545D01*
X906678Y-122174D01*
X920546Y-119024D01*
X933907Y-114096D01*
X946505Y-107543D01*
X958138Y-99415D01*
X968654Y-89865D01*
X977849Y-79044D01*
X985621Y-67106D01*
X991768Y-54305D01*
X996238Y-40843D01*
X998982Y-26873D01*
X999896Y-12700D01*
X998982Y1473D01*
X996238Y15443D01*
X992124Y27889D01*
X991616Y31597D01*
X992479Y35204D01*
X994562Y38303D01*
X1082243Y125983D01*
X1087374Y132181D01*
X1090930Y138887D01*
X1092250Y143205D01*
X1093978Y146507D01*
X1096721Y148945D01*
X1100124Y150266D01*
X1103833Y150266D01*
X1107236Y148945D01*
X1117092Y143002D01*
X1130096Y137210D01*
X1143711Y133197D01*
X1157732Y130911D01*
X1171956Y130454D01*
X1186078Y131826D01*
X1199946Y134975D01*
X1213307Y139903D01*
X1225905Y146456D01*
X1237894Y154838D01*
X1241958Y156514D01*
X1246327Y156311D01*
X1250238Y154279D01*
X1252880Y150774D01*
X1253845Y146507D01*
X1253845Y131572D01*
X1253083Y127660D01*
X1250848Y124358D01*
X1219301Y92760D01*
X1216101Y90627D01*
X1212342Y89814D01*
X1208582Y90424D01*
X1199946Y93624D01*
X1186078Y96774D01*
X1171956Y98145D01*
X1157732Y97688D01*
X1143711Y95402D01*
X1130096Y91338D01*
X1117092Y85598D01*
X1104950Y78232D01*
X1093825Y69392D01*
X1083970Y59182D01*
X1075486Y47802D01*
X1068476Y35407D01*
X1063142Y22250D01*
X1059535Y8483D01*
X1057757Y-5588D01*
X1057757Y-19812D01*
X1059535Y-33883D01*
X1063142Y-47650D01*
X1068476Y-60807D01*
X1075486Y-73202D01*
X1083970Y-84582D01*
X1093825Y-94792D01*
X1104950Y-103632D01*
X1117092Y-110998D01*
X1130096Y-116789D01*
X1143711Y-120802D01*
X1157732Y-123088D01*
X1171956Y-123545D01*
X1186078Y-122174D01*
X1199946Y-119024D01*
X1213307Y-114096D01*
X1225905Y-107543D01*
X1237538Y-99415D01*
X1248054Y-89865D01*
X1257249Y-79044D01*
X1265021Y-67106D01*
X1271168Y-54305D01*
X1275638Y-40843D01*
X1278382Y-26873D01*
X1279296Y-12700D01*
X1278382Y1473D01*
X1275638Y15443D01*
X1271524Y27889D01*
X1271016Y31597D01*
X1271879Y35204D01*
X1273962Y38303D01*
X1300937Y65227D01*
X1304188Y67411D01*
X1308100Y68173D01*
X1312011Y67411D01*
X1315262Y65227D01*
X1342339Y38150D01*
X1344523Y34899D01*
X1345285Y31038D01*
X1344574Y27178D01*
X1342542Y22250D01*
X1338935Y8483D01*
X1337157Y-5588D01*
X1337157Y-19812D01*
X1338935Y-33883D01*
X1342542Y-47650D01*
X1347876Y-60807D01*
X1354886Y-73202D01*
X1363370Y-84582D01*
X1373225Y-94792D01*
X1384350Y-103632D01*
X1396492Y-110998D01*
X1409496Y-116789D01*
X1423111Y-120802D01*
X1437132Y-123088D01*
X1451356Y-123545D01*
X1465478Y-122174D01*
X1479346Y-119024D01*
X1492707Y-114096D01*
X1505305Y-107543D01*
X1516938Y-99415D01*
X1527454Y-89865D01*
X1536649Y-79044D01*
X1544421Y-67106D01*
X1550568Y-54305D01*
X1555038Y-40843D01*
X1557782Y-26873D01*
X1558696Y-12700D01*
X1557782Y1473D01*
X1555038Y15443D01*
X1550568Y28905D01*
X1544421Y41706D01*
X1536649Y53644D01*
X1527454Y64465D01*
X1516938Y74015D01*
X1505305Y82143D01*
X1492707Y88696D01*
X1479346Y93624D01*
X1465478Y96774D01*
X1451356Y98145D01*
X1437132Y97688D01*
X1423111Y95402D01*
X1404162Y89865D01*
X1400200Y90627D01*
X1396847Y92862D01*
X1374851Y114858D01*
X1372616Y118160D01*
X1371854Y122072D01*
X1371854Y139903D01*
X1372768Y144068D01*
X1375257Y147523D01*
X1379016Y149606D01*
X1383233Y149961D01*
X1387297Y148590D01*
X1396492Y143002D01*
X1409496Y137210D01*
X1423111Y133197D01*
X1437132Y130911D01*
X1451356Y130454D01*
X1465478Y131826D01*
X1484680Y136194D01*
X1488440Y135382D01*
X1491589Y133197D01*
X1635251Y-10464D01*
X1638655Y-13614D01*
X1642211Y-16306D01*
X1645970Y-18694D01*
X1649882Y-20726D01*
X1653997Y-22453D01*
X1658010Y-23723D01*
X1665020Y-24942D01*
X1668322Y-26162D01*
X1671015Y-28448D01*
X1672793Y-31495D01*
X1673402Y-34950D01*
X1673402Y-74015D01*
X1674114Y-80365D01*
X1675993Y-85801D01*
X1679092Y-90728D01*
X1683156Y-94792D01*
X1688084Y-97891D01*
X1693519Y-99771D01*
X1699869Y-100533D01*
X1843887Y-100533D01*
X1847748Y-101295D01*
X1851050Y-103479D01*
X1877212Y-129590D01*
X1883410Y-134721D01*
X1890115Y-138277D01*
X1897329Y-140462D01*
X1905355Y-141274D01*
X2350414Y-141274D01*
X2358542Y-140462D01*
X2363266Y-139090D01*
X2367178Y-138785D01*
X2368804Y-139293D01*
X2369108Y-138379D01*
X2371547Y-135382D01*
X2378557Y-129590D01*
X2448356Y-59842D01*
X2453487Y-53593D01*
X2457043Y-46939D01*
X2457704Y-44704D01*
X2459685Y-41097D01*
X2462885Y-38557D01*
X2466848Y-37490D01*
X2470912Y-38100D01*
X2474417Y-40284D01*
X2476754Y-43637D01*
X2477566Y-47650D01*
X2477566Y-140208D01*
X2477211Y-144830D01*
X2475128Y-148488D01*
X2471674Y-151028D01*
X2467559Y-151892D01*
X2388006Y-151892D01*
X2383993Y-152196D01*
X2380488Y-153060D01*
X2376576Y-153263D01*
X2375103Y-153517D01*
X2372715Y-156565D01*
X2369007Y-159766D01*
X2290927Y-237794D01*
X2287625Y-240029D01*
X2283764Y-240792D01*
G37*

%LPC*%
G36*
X-504443Y130454D02*
G01*
X-490321Y131826D01*
X-476453Y134975D01*
X-463092Y139903D01*
X-450494Y146456D01*
X-438861Y154584D01*
X-428345Y164134D01*
X-419150Y174955D01*
X-411378Y186893D01*
X-405231Y199694D01*
X-400761Y213156D01*
X-398018Y227126D01*
X-397103Y241300D01*
X-398018Y255473D01*
X-400761Y269443D01*
X-405231Y282905D01*
X-411378Y295706D01*
X-419150Y307644D01*
X-428345Y318465D01*
X-438861Y328015D01*
X-450494Y336143D01*
X-463092Y342696D01*
X-476453Y347624D01*
X-490321Y350774D01*
X-504443Y352145D01*
X-518668Y351688D01*
X-532688Y349402D01*
X-546303Y345338D01*
X-559308Y339598D01*
X-571449Y332232D01*
X-582574Y323392D01*
X-592429Y313182D01*
X-600913Y301802D01*
X-607923Y289407D01*
X-613257Y276250D01*
X-616864Y262483D01*
X-618642Y248412D01*
X-618642Y234188D01*
X-616864Y220116D01*
X-613257Y206349D01*
X-607923Y193192D01*
X-600913Y180797D01*
X-592429Y169418D01*
X-582574Y159207D01*
X-571449Y150368D01*
X-559308Y143002D01*
X-546303Y137210D01*
X-532688Y133197D01*
X-518668Y130911D01*
G37*
G36*
X-459130Y384403D02*
G01*
X-423570Y384403D01*
X-417271Y385114D01*
X-411784Y386994D01*
X-406908Y390093D01*
X-402793Y394208D01*
X-399694Y399084D01*
X-397814Y404571D01*
X-397103Y410870D01*
X-397103Y446430D01*
X-459130Y446430D01*
G37*
G36*
X-313029Y384403D02*
G01*
X-277469Y384403D01*
X-277469Y446430D01*
X-339496Y446430D01*
X-339496Y410870D01*
X-338785Y404571D01*
X-336905Y399084D01*
X-333806Y394208D01*
X-329692Y390093D01*
X-324815Y386994D01*
X-319328Y385114D01*
G37*
G36*
X-592429Y384403D02*
G01*
X-556869Y384403D01*
X-556869Y446430D01*
X-618896Y446430D01*
X-618896Y410870D01*
X-618185Y404571D01*
X-616305Y399084D01*
X-613206Y394208D01*
X-609092Y390093D01*
X-604215Y386994D01*
X-598728Y385114D01*
G37*
G36*
X-179730Y384403D02*
G01*
X-144170Y384403D01*
X-137871Y385114D01*
X-132384Y386994D01*
X-127508Y390093D01*
X-123393Y394208D01*
X-120294Y399084D01*
X-118414Y404571D01*
X-117703Y410870D01*
X-117703Y446430D01*
X-179730Y446430D01*
G37*
G36*
X-179730Y544169D02*
G01*
X-117703Y544169D01*
X-117703Y579729D01*
X-118414Y586028D01*
X-120294Y591515D01*
X-123393Y596392D01*
X-127508Y600506D01*
X-132384Y603605D01*
X-137871Y605485D01*
X-144170Y606196D01*
X-179730Y606196D01*
G37*
G36*
X-459130Y544169D02*
G01*
X-397103Y544169D01*
X-397103Y579729D01*
X-397814Y586028D01*
X-399694Y591515D01*
X-402793Y596392D01*
X-406908Y600506D01*
X-411784Y603605D01*
X-417271Y605485D01*
X-423570Y606196D01*
X-459130Y606196D01*
G37*
G36*
X-339496Y544169D02*
G01*
X-277469Y544169D01*
X-277469Y606196D01*
X-313029Y606196D01*
X-319328Y605485D01*
X-324815Y603605D01*
X-329692Y600506D01*
X-333806Y596392D01*
X-336905Y591515D01*
X-338785Y586028D01*
X-339496Y579729D01*
G37*
G36*
X-60096Y544169D02*
G01*
X1930Y544169D01*
X1930Y606196D01*
X-33629Y606196D01*
X-39928Y605485D01*
X-45415Y603605D01*
X-50292Y600506D01*
X-54406Y596392D01*
X-57505Y591515D01*
X-59385Y586028D01*
X-60096Y579729D01*
G37*
G36*
X-618896Y544169D02*
G01*
X-556869Y544169D01*
X-556869Y606196D01*
X-592429Y606196D01*
X-598728Y605485D01*
X-604215Y603605D01*
X-609092Y600506D01*
X-613206Y596392D01*
X-616305Y591515D01*
X-618185Y586028D01*
X-618896Y579729D01*
G37*
G36*
X56692Y636981D02*
G01*
X72237Y636981D01*
X72237Y694029D01*
X30175Y694029D01*
X30175Y663448D01*
X30886Y657148D01*
X32816Y651662D01*
X35915Y646785D01*
X39979Y642670D01*
X44907Y639622D01*
X50342Y637692D01*
G37*
G36*
X30175Y781761D02*
G01*
X72237Y781761D01*
X72237Y838809D01*
X56692Y838809D01*
X50342Y838098D01*
X44907Y836168D01*
X39979Y833119D01*
X35915Y829005D01*
X32816Y824128D01*
X30886Y818641D01*
X30175Y812342D01*
G37*
G36*
X688695Y1251966D02*
G01*
X704240Y1251966D01*
X704240Y1294028D01*
X662178Y1294028D01*
X662178Y1278432D01*
X662889Y1272133D01*
X664819Y1266647D01*
X667918Y1261770D01*
X671982Y1257655D01*
X676910Y1254556D01*
X682345Y1252677D01*
G37*
G36*
X1041958Y1251966D02*
G01*
X1057503Y1251966D01*
X1063853Y1252677D01*
X1069289Y1254556D01*
X1074216Y1257655D01*
X1078280Y1261770D01*
X1081379Y1266647D01*
X1083310Y1272133D01*
X1084021Y1278432D01*
X1084021Y1294028D01*
X1041958Y1294028D01*
G37*
G36*
X901953Y1251966D02*
G01*
X917549Y1251966D01*
X923848Y1252677D01*
X929335Y1254556D01*
X934212Y1257655D01*
X935939Y1259332D01*
X939241Y1261567D01*
X943102Y1262329D01*
X947013Y1261567D01*
X950315Y1259332D01*
X951992Y1257655D01*
X956868Y1254556D01*
X962355Y1252677D01*
X968654Y1251966D01*
X984250Y1251966D01*
X984250Y1294028D01*
X901953Y1294028D01*
G37*
G36*
X761949Y1251966D02*
G01*
X777544Y1251966D01*
X783844Y1252677D01*
X789330Y1254556D01*
X794207Y1257655D01*
X795934Y1259382D01*
X799236Y1261567D01*
X803097Y1262329D01*
X807008Y1261567D01*
X810310Y1259382D01*
X811987Y1257655D01*
X816914Y1254556D01*
X822350Y1252677D01*
X828700Y1251966D01*
X844245Y1251966D01*
X844245Y1294028D01*
X761949Y1294028D01*
G37*
G36*
X662178Y1351737D02*
G01*
X704240Y1351737D01*
X704240Y1433982D01*
X662178Y1433982D01*
X662178Y1418437D01*
X662889Y1412087D01*
X664819Y1406652D01*
X667918Y1401724D01*
X669594Y1400048D01*
X671779Y1396746D01*
X672592Y1392834D01*
X671779Y1388973D01*
X669594Y1385671D01*
X667918Y1383995D01*
X664819Y1379067D01*
X662889Y1373632D01*
X662178Y1367282D01*
G37*
G36*
X1041958Y1351737D02*
G01*
X1084021Y1351737D01*
X1084021Y1367282D01*
X1083310Y1373632D01*
X1081379Y1379067D01*
X1078280Y1383995D01*
X1076604Y1385671D01*
X1074420Y1388973D01*
X1073658Y1392834D01*
X1074420Y1396746D01*
X1076604Y1400048D01*
X1078331Y1401724D01*
X1081379Y1406652D01*
X1083310Y1412087D01*
X1084021Y1418437D01*
X1084021Y1433982D01*
X1041958Y1433982D01*
G37*
G36*
X901953Y1351737D02*
G01*
X984250Y1351737D01*
X984250Y1433982D01*
X901953Y1433982D01*
G37*
G36*
X761949Y1351737D02*
G01*
X844245Y1351737D01*
X844245Y1433982D01*
X761949Y1433982D01*
G37*
G36*
X662178Y1491691D02*
G01*
X704240Y1491691D01*
X704240Y1573987D01*
X662178Y1573987D01*
X662178Y1558442D01*
X662889Y1552092D01*
X664819Y1546656D01*
X667918Y1541729D01*
X669594Y1540052D01*
X671830Y1536750D01*
X672592Y1532839D01*
X671830Y1528978D01*
X669594Y1525676D01*
X667918Y1523949D01*
X664819Y1519072D01*
X662889Y1513586D01*
X662178Y1507286D01*
G37*
G36*
X1041958Y1491691D02*
G01*
X1084021Y1491691D01*
X1084021Y1507286D01*
X1083310Y1513586D01*
X1081379Y1519072D01*
X1078331Y1523949D01*
X1076604Y1525676D01*
X1074420Y1528978D01*
X1073607Y1532839D01*
X1074420Y1536750D01*
X1076604Y1540052D01*
X1078280Y1541729D01*
X1081379Y1546656D01*
X1083310Y1552092D01*
X1084021Y1558442D01*
X1084021Y1573987D01*
X1041958Y1573987D01*
G37*
G36*
X901953Y1491691D02*
G01*
X984250Y1491691D01*
X984250Y1573987D01*
X901953Y1573987D01*
G37*
G36*
X761949Y1491691D02*
G01*
X844245Y1491691D01*
X844245Y1573987D01*
X761949Y1573987D01*
G37*
G36*
X1041958Y1631696D02*
G01*
X1084021Y1631696D01*
X1084021Y1647291D01*
X1083310Y1653590D01*
X1081379Y1659077D01*
X1078280Y1663954D01*
X1074216Y1668068D01*
X1069289Y1671167D01*
X1063853Y1673047D01*
X1057503Y1673758D01*
X1041958Y1673758D01*
G37*
G36*
X662178Y1631696D02*
G01*
X704240Y1631696D01*
X704240Y1673758D01*
X688695Y1673758D01*
X682345Y1673047D01*
X676910Y1671167D01*
X671982Y1668068D01*
X667918Y1663954D01*
X664819Y1659077D01*
X662889Y1653590D01*
X662178Y1647291D01*
G37*
G36*
X901953Y1631696D02*
G01*
X984250Y1631696D01*
X984250Y1673758D01*
X968654Y1673758D01*
X962355Y1673047D01*
X956868Y1671167D01*
X951992Y1668068D01*
X950315Y1666392D01*
X947013Y1664157D01*
X943102Y1663395D01*
X939241Y1664157D01*
X935939Y1666392D01*
X934212Y1668068D01*
X929335Y1671167D01*
X923848Y1673047D01*
X917549Y1673758D01*
X901953Y1673758D01*
G37*
G36*
X761949Y1631696D02*
G01*
X844245Y1631696D01*
X844245Y1673758D01*
X828700Y1673758D01*
X822350Y1673047D01*
X816914Y1671167D01*
X811987Y1668068D01*
X810310Y1666341D01*
X807008Y1664157D01*
X803097Y1663395D01*
X799236Y1664157D01*
X795934Y1666341D01*
X794207Y1668068D01*
X789330Y1671167D01*
X783844Y1673047D01*
X777544Y1673758D01*
X761949Y1673758D01*
G37*
G36*
X56692Y2386990D02*
G01*
X72237Y2386990D01*
X72237Y2444038D01*
X30175Y2444038D01*
X30175Y2413457D01*
X30886Y2407158D01*
X32816Y2401671D01*
X35915Y2396794D01*
X39979Y2392680D01*
X44907Y2389632D01*
X50342Y2387701D01*
G37*

%LPD*%
D10*
X2601899Y384784D02*
G01*
X2601899Y365963D01*
X3288944Y547217D02*
G01*
X2764332Y547217D01*
X2601899Y384784D01*
X2601899Y384784D02*
G01*
X2601899Y387527D01*
X2197100Y393700D02*
G01*
X2489022Y393700D01*
X2496337Y386384D01*
X2544876Y386384D01*
X2546019Y387527D01*
X2601899Y387527D01*
X1560728Y495300D02*
G01*
X1572234Y506806D01*
X1910562Y506806D01*
X2023668Y393700D01*
X2104186Y393700D01*
X733120Y1322882D02*
G01*
X559028Y1322882D01*
X101092Y864946D01*
X101092Y840816D01*
X3288944Y547217D02*
G01*
X3550996Y547217D01*
X3753078Y749300D01*
X4069232Y749300D02*
G01*
X4237431Y581101D01*
X5054600Y581101D01*
X4203700Y1039317D02*
G01*
X2967888Y1039317D01*
X4203700Y971397D02*
G01*
X4203700Y1039317D01*
X2197100Y393700D02*
G01*
X2104186Y393700D01*
X1447800Y495300D02*
G01*
X1560728Y495300D01*
X4925822Y1669897D02*
G01*
X4818430Y1669897D01*
X4780813Y1632280D01*
X4780813Y1587500D01*
X4979060Y1669897D02*
G01*
X4925822Y1669897D01*
X4925822Y1765300D02*
G01*
X4925822Y1669897D01*
X4712563Y1587500D02*
G01*
X4780813Y1587500D01*
X5041900Y1669897D02*
G01*
X4979060Y1669897D01*
X4712563Y1587500D02*
G01*
X4712563Y1516379D01*
X3758234Y1524000D02*
G01*
X3590340Y1524000D01*
X4005986Y749300D02*
G01*
X4069232Y749300D01*
X2501900Y2016099D02*
G01*
X2501900Y1581505D01*
X2501900Y2084196D02*
G01*
X2501900Y2016099D01*
X3221100Y1759204D02*
G01*
X3186684Y1759204D01*
X3040456Y1905431D01*
X3040456Y1999894D01*
X3024250Y2016099D01*
X2501900Y2016099D01*
X3590340Y1524000D02*
G01*
X3526536Y1460195D01*
X2960268Y1460195D01*
X2845663Y1574800D01*
X4857902Y1765300D02*
G01*
X4925822Y1765300D01*
X4712563Y1516379D02*
G01*
X4776088Y1516379D01*
X4789982Y1502486D01*
X4789982Y1422400D01*
X5054600Y581101D02*
G01*
X5092674Y581101D01*
X5252338Y740765D01*
X5252338Y773988D01*
X5054600Y546963D02*
G01*
X5054600Y581101D01*
X5078374Y1669897D02*
G01*
X5041900Y1669897D01*
X5078374Y1669897D02*
G01*
X5114823Y1669897D01*
X4823942Y1422400D02*
G01*
X4857902Y1388440D01*
X4857902Y1257300D01*
X4823942Y1422400D02*
G01*
X4789982Y1422400D01*
X4857902Y1422400D02*
G01*
X4823942Y1422400D01*
X5370829Y1639011D02*
G01*
X5252338Y1639011D01*
X5670321Y1639011D02*
G01*
X5370829Y1639011D01*
X5370829Y1735505D02*
G01*
X5370829Y1639011D01*
X5370829Y1803425D02*
G01*
X5370829Y1735505D01*
X5054600Y546963D02*
G01*
X5054600Y400202D01*
X5252338Y773988D02*
G01*
X5175504Y850823D01*
X5175504Y886510D01*
X2501900Y1581505D02*
G01*
X2770733Y1581505D01*
X2777439Y1574800D01*
X2425700Y1581505D02*
G01*
X2501900Y1581505D01*
X2501900Y2197100D02*
G01*
X2501900Y2084196D01*
X4005986Y749300D02*
G01*
X3753078Y749300D01*
X2601899Y292100D02*
G01*
X2601899Y365963D01*
X2845663Y1574800D02*
G01*
X2777439Y1574800D01*
X-172135Y495300D02*
G01*
X-228600Y495300D01*
X101092Y789355D02*
G01*
X50800Y739063D01*
X50800Y495300D01*
X101092Y789355D02*
G01*
X101092Y840816D01*
X101092Y737895D02*
G01*
X101092Y789355D01*
X733120Y1602892D02*
G01*
X733120Y1675815D01*
X101092Y2487904D02*
G01*
X101092Y2307844D01*
X733120Y1675815D01*
X873125Y1322882D02*
G01*
X733120Y1322882D01*
X803122Y1602892D02*
G01*
X873125Y1602892D01*
X733120Y1602892D02*
G01*
X803122Y1602892D01*
X803122Y1462887D02*
G01*
X873125Y1462887D01*
X733120Y1462887D02*
G01*
X803122Y1462887D01*
X803122Y1462887D02*
G01*
X803122Y1602892D01*
X943127Y1322882D02*
G01*
X1013104Y1322882D01*
X873125Y1322882D02*
G01*
X943127Y1322882D01*
X943127Y1462887D02*
G01*
X1013129Y1462887D01*
X873125Y1462887D02*
G01*
X943127Y1462887D01*
X943127Y1322882D02*
G01*
X943127Y1462887D01*
X873125Y1602892D02*
G01*
X1013104Y1602892D01*
X4840097Y932002D02*
G01*
X4840097Y1084910D01*
X4840097Y1084910D02*
G01*
X4857902Y1102715D01*
X4857902Y1257300D01*
X5175504Y1639011D02*
G01*
X5145709Y1639011D01*
X5114823Y1669897D01*
X5252338Y1639011D02*
G01*
X5175504Y1639011D01*
X5175504Y1526514D02*
G01*
X5175504Y1639011D01*
X5670321Y773988D02*
G01*
X5252338Y773988D01*
X4445000Y1646072D02*
G01*
X4445000Y1627378D01*
X4649977Y1422400D01*
X4445000Y1731289D02*
G01*
X4445000Y1646072D01*
X4445000Y1646072D02*
G01*
X3247136Y1646072D01*
X3175863Y1574800D01*
X4717897Y1422400D02*
G01*
X4649977Y1422400D01*
X4649977Y1765300D02*
G01*
X4615967Y1731289D01*
X4445000Y1731289D01*
X4620412Y2197100D02*
G01*
X4620412Y1794865D01*
X4649977Y1765300D01*
X4717897Y1765300D02*
G01*
X4649977Y1765300D01*
X228092Y737895D02*
G01*
X228092Y840816D01*
X228092Y840816D02*
G01*
X220853Y840816D01*
X201117Y860552D01*
X2945536Y279400D02*
G01*
X2945536Y208279D01*
X2945536Y208279D02*
G01*
X2944113Y208279D01*
X2913481Y177647D01*
X3283204Y279400D02*
G01*
X3371037Y191566D01*
X4913045Y191566D01*
X4981676Y260197D01*
X3283204Y301370D02*
G01*
X3283204Y279400D01*
X5106670Y1809902D02*
G01*
X5189347Y1892579D01*
X2425700Y1331493D02*
G01*
X4243679Y1331493D01*
X4331588Y1419402D01*
X4561535Y1419402D01*
X4625263Y1355674D01*
X4625263Y1289888D01*
X4625263Y1289888D02*
G01*
X4649977Y1265173D01*
X4649977Y1257300D01*
X5106670Y1809902D02*
G01*
X5114823Y1809902D01*
X5041900Y1809902D02*
G01*
X5078374Y1809902D01*
X5078374Y1809902D02*
G01*
X5106670Y1809902D01*
X3283204Y279400D02*
G01*
X3013760Y279400D01*
X2196236Y2463800D02*
G01*
X2196236Y1560956D01*
X2425700Y1331493D01*
X4649977Y1257300D02*
G01*
X4610100Y1217421D01*
X4610100Y932002D01*
X2945536Y279400D02*
G01*
X3013760Y279400D01*
X5054600Y260197D02*
G01*
X4981676Y260197D01*
X5221020Y1803374D02*
G01*
X5121351Y1803374D01*
X5114823Y1809902D01*
X4717897Y1257300D02*
G01*
X4649977Y1257300D01*
X3221100Y1854200D02*
G01*
X3304031Y1854200D01*
X3397097Y1943100D02*
G01*
X3329177Y1943100D01*
X3304031Y1854200D02*
G01*
X3329177Y1879345D01*
X3329177Y1943100D01*
X3419754Y1943100D02*
G01*
X3465017Y1943100D01*
X3397097Y1943100D02*
G01*
X3412439Y1943100D01*
X3419754Y1943100D02*
G01*
X3412439Y1943100D01*
X3964787Y2197100D02*
G01*
X3651097Y2197100D01*
X3465017Y2011019D01*
X3465017Y1943100D01*
X2951099Y1759204D02*
G01*
X2800502Y1759204D01*
X2685389Y1874316D01*
X3605022Y1943100D02*
G01*
X3625418Y1963496D01*
X3537102Y1943100D02*
G01*
X3605022Y1943100D01*
X3111500Y83667D02*
G01*
X3494277Y83667D01*
X3497300Y86690D01*
X1776780Y25400D02*
G01*
X1904847Y-102666D01*
X2350922Y-102666D01*
X2421407Y-32181D01*
X2421407Y22580D01*
X2482494Y83667D01*
X3111500Y83667D01*
X3111500Y83667D02*
G01*
X3111500Y-50800D01*
X3106013Y749300D02*
G01*
X3358921Y749300D01*
X3398011Y754024D02*
G01*
X3363645Y754024D01*
X3358921Y749300D01*
X1776780Y25400D02*
G01*
X1754251Y25400D01*
X1799310Y25400D02*
G01*
X1776780Y25400D01*
X2979547Y749300D02*
G01*
X3106013Y749300D01*
X2979547Y749300D02*
G01*
X2853080Y749300D01*
X4203700Y1111402D02*
G01*
X2955620Y1111402D01*
X2853080Y1008862D01*
X2853080Y749300D01*
X4240174Y1111402D02*
G01*
X4203700Y1111402D01*
X4240174Y1111402D02*
G01*
X4276623Y1111402D01*
X4445000Y1291310D02*
G01*
X4445000Y1163396D01*
X4445000Y1163396D02*
G01*
X4328617Y1163396D01*
X4276623Y1111402D01*
D11*
X1735353Y25400D02*
G01*
X1671396Y25400D01*
D10*
X1735353Y25400D02*
G01*
X1754251Y25400D01*
X4380102Y932002D02*
G01*
X4380102Y1084910D01*
X4380102Y1084910D02*
G01*
X4303115Y1084910D01*
X4276623Y1111402D01*
X5175478Y1081506D02*
G01*
X5082565Y1081506D01*
X5054600Y697636D02*
G01*
X5054600Y1053541D01*
X5082565Y1081506D01*
X2951099Y1949195D02*
G01*
X2667939Y1949195D01*
X2626461Y1907717D01*
X2626461Y1844624D01*
X2800578Y1670507D01*
X2896870Y1670507D01*
X2944698Y1622679D01*
X2944698Y1574800D01*
X3326536Y1574800D02*
G01*
X3258286Y1574800D01*
X2996336Y1574800D02*
G01*
X2944698Y1574800D01*
X3258286Y1574800D02*
G01*
X3258286Y1506550D01*
X3255263Y1503527D01*
X3015970Y1503527D01*
X2944698Y1574800D01*
X3138195Y2164079D02*
G01*
X3138195Y1949195D01*
X2882900Y2425700D02*
G01*
X3138195Y2170404D01*
X3138195Y2164079D01*
X3339338Y2164079D02*
G01*
X3138195Y2164079D01*
X3391763Y1839036D02*
G01*
X3402025Y1849297D01*
X3958793Y1849297D01*
X4090365Y1524000D02*
G01*
X4258259Y1524000D01*
X4279442Y1450111D02*
G01*
X4258259Y1471295D01*
X4258259Y1524000D01*
X3391763Y1778000D02*
G01*
X3391763Y1839036D01*
X3189731Y1949195D02*
G01*
X3221100Y1949195D01*
X3189731Y1949195D02*
G01*
X3138195Y1949195D01*
X3474186Y1778000D02*
G01*
X3474186Y1709750D01*
X3463264Y1698828D01*
X3156788Y1698828D01*
X3034004Y1821611D01*
X3034004Y1854200D01*
X3542436Y1778000D02*
G01*
X3474186Y1778000D01*
X2951099Y1854200D02*
G01*
X3034004Y1854200D01*
X2070100Y2197100D02*
G01*
X2070100Y2310028D01*
X1977339Y2384983D02*
G01*
X1752092Y2384983D01*
X2070100Y2310028D02*
G01*
X2052294Y2310028D01*
X1977339Y2384983D01*
X1977339Y2384983D02*
G01*
X1977339Y2463800D01*
X2045563Y2463800D02*
G01*
X1977339Y2463800D01*
X1752092Y2487904D02*
G01*
X1752092Y2384983D01*
X5175478Y1381505D02*
G01*
X5082565Y1381505D01*
X4863236Y1587500D02*
G01*
X4931460Y1587500D01*
X5082565Y1381505D02*
G01*
X4931460Y1532610D01*
X4931460Y1587500D01*
X1765300Y393700D02*
G01*
X1858213Y393700D01*
X2401900Y244398D02*
G01*
X2007514Y244398D01*
X1858213Y393700D01*
X2401900Y244398D02*
G01*
X2401900Y196697D01*
X2401900Y292100D02*
G01*
X2401900Y244398D01*
X355092Y737895D02*
G01*
X355092Y840816D01*
X2794863Y279400D02*
G01*
X2794863Y350520D01*
X2720314Y420370D02*
G01*
X2790164Y350520D01*
X2794863Y350520D01*
X1948662Y551535D02*
G01*
X1968830Y531368D01*
X2434183Y531368D01*
X2520594Y444957D01*
X355092Y840816D02*
G01*
X597560Y1083284D01*
X893775Y1083284D01*
X946810Y1030249D01*
X946810Y944473D01*
X2726639Y279400D02*
G01*
X2726639Y217601D01*
X2705557Y196519D01*
X2402077Y196519D01*
X2401900Y196697D01*
X2794863Y279400D02*
G01*
X2726639Y279400D01*
X3530600Y2425700D02*
G01*
X4068089Y2425700D01*
X1498092Y737895D02*
G01*
X1498092Y840816D01*
X1498092Y840816D02*
G01*
X1498269Y840994D01*
X2416200Y840994D01*
X2425700Y831494D01*
X1880107Y1168400D02*
G01*
X2338806Y1168400D01*
X2425700Y1081506D01*
X4836820Y483768D02*
G01*
X2988767Y483768D01*
X2870200Y365201D01*
X2870200Y221157D01*
X2802356Y153314D01*
X2463114Y153314D01*
X2367203Y57404D01*
X2367203Y25400D01*
X5346496Y1053388D02*
G01*
X5352948Y1059840D01*
X5352948Y1323720D01*
X5230139Y1446529D01*
X5175504Y1446529D01*
X5346496Y1053388D02*
G01*
X5259603Y966495D01*
X5175504Y966495D01*
X2239289Y25400D02*
G01*
X2367203Y25400D01*
X482092Y737895D02*
G01*
X482092Y673988D01*
X441832Y633729D01*
X245211Y633729D01*
X203200Y591718D01*
X203200Y426973D01*
X131826Y355600D01*
X2997Y355600D01*
X-88900Y263702D01*
X-88900Y204444D01*
X-179044Y114300D01*
X-381000Y114300D01*
X-508000Y-12700D01*
X609092Y737895D02*
G01*
X609092Y634974D01*
X609092Y634974D02*
G01*
X585774Y611657D01*
X504062Y611657D01*
X482650Y590245D01*
X482650Y427126D01*
X411175Y355650D01*
X279882Y355650D01*
X170053Y245821D01*
X170053Y184632D01*
X99720Y114300D01*
X-101600Y114300D01*
X-228600Y-12700D01*
X736092Y737895D02*
G01*
X736092Y197180D01*
X667130Y128219D01*
X191719Y128219D01*
X50800Y-12700D01*
X863092Y737895D02*
G01*
X863092Y1024686D01*
X990092Y737895D02*
G01*
X990092Y634974D01*
X609600Y-12700D02*
G01*
X736600Y114300D01*
X924331Y114300D01*
X1006576Y196545D01*
X1006576Y618489D01*
X990092Y634974D01*
X1117092Y737895D02*
G01*
X1117092Y634974D01*
X1117092Y634974D02*
G01*
X1090853Y634974D01*
X1055319Y599439D01*
X1055319Y153619D01*
X889000Y-12700D01*
X1244092Y737895D02*
G01*
X1244092Y634974D01*
X1244092Y634974D02*
G01*
X1292453Y586612D01*
X1292453Y111353D01*
X1168400Y-12700D01*
X1371092Y737895D02*
G01*
X1371092Y634974D01*
X1371092Y634974D02*
G01*
X1333245Y597128D01*
X1333245Y101854D01*
X1447800Y-12700D01*
X2089911Y589965D02*
G01*
X2069769Y610107D01*
X1924405Y610107D01*
X1904263Y589965D01*
X1670100Y589965D01*
X1625092Y634974D01*
X5268544Y1231493D02*
G01*
X5288559Y1231493D01*
X5258308Y1231493D02*
G01*
X5268544Y1231493D01*
X5268391Y1131493D02*
G01*
X5268544Y1131646D01*
X5268544Y1231493D01*
X1625092Y737895D02*
G01*
X1625092Y634974D01*
X5175478Y1231493D02*
G01*
X5258308Y1231493D01*
X5221935Y1131493D02*
G01*
X5175478Y1131493D01*
X5221935Y1131493D02*
G01*
X5268391Y1131493D01*
X5097703Y1181506D02*
G01*
X4923205Y1007008D01*
X4923205Y786511D01*
X4915611Y778916D01*
X4303217Y778916D01*
X4285640Y796493D01*
X4285640Y824001D01*
X4247261Y862380D01*
X3624148Y862380D01*
X3396741Y634974D01*
X2158136Y634974D01*
X2142236Y650875D01*
X1907514Y650875D01*
X1891614Y634974D01*
X1752092Y634974D01*
X1752092Y737895D02*
G01*
X1752092Y634974D01*
X5100218Y1181506D02*
G01*
X5097703Y1181506D01*
X5175478Y1181506D02*
G01*
X5100218Y1181506D01*
X5097703Y1181506D02*
G01*
X5059679Y1219530D01*
X5059679Y1258620D01*
X5082565Y1281506D01*
X5175478Y1281506D02*
G01*
X5082565Y1281506D01*
X2966491Y378663D02*
G01*
X3460115Y378663D01*
X1880107Y914400D02*
G01*
X1983028Y914400D01*
X2005482Y924509D02*
G01*
X1993138Y924509D01*
X1983028Y914400D01*
X3252292Y150799D02*
G01*
X3925900Y150799D01*
X4127500Y-50800D01*
X1777187Y1295400D02*
G01*
X1741601Y1259814D01*
X1741601Y1242313D01*
X1880107Y1295400D02*
G01*
X1777187Y1295400D01*
X1983028Y1422400D02*
G01*
X2001570Y1422400D01*
X1880107Y1422400D02*
G01*
X1983028Y1422400D01*
X1880107Y1549400D02*
G01*
X1983028Y1549400D01*
X2116175Y1525955D02*
G01*
X2006472Y1525955D01*
X1983028Y1549400D01*
X1880107Y1676400D02*
G01*
X1983028Y1676400D01*
X2061514Y1687423D02*
G01*
X1994052Y1687423D01*
X1983028Y1676400D01*
X355092Y2384983D02*
G01*
X579450Y2160625D01*
X1677923Y2160625D01*
X355092Y2487904D02*
G01*
X355092Y2384983D01*
X228092Y2384983D02*
G01*
X266979Y2384983D01*
X288289Y2363673D01*
X228092Y2487904D02*
G01*
X228092Y2384983D01*
D12*
X-172135Y495300D02*
G01*
X-115671Y495300D01*
X50800Y495300D02*
G01*
X-115671Y495300D01*
X-228600Y495300D02*
G01*
X-508000Y495300D01*
D11*
X1447800Y241300D02*
G01*
X1455496Y241300D01*
X1671396Y25400D01*
D13*
G01*
X4857902Y1765300D03*
G01*
X4717897Y1765300D03*
G01*
X4857902Y1257300D03*
G01*
X4717897Y1257300D03*
D14*
G01*
X5054600Y400202D03*
G01*
X5054600Y260197D03*
D13*
G01*
X3397097Y1943100D03*
G01*
X3537102Y1943100D03*
D14*
G01*
X5041900Y1809902D03*
G01*
X5041900Y1669897D03*
G01*
X4203700Y1111402D03*
G01*
X4203700Y971397D03*
D13*
G01*
X4857902Y1422400D03*
G01*
X4717897Y1422400D03*
D16*
G01*
X4620400Y2197100D03*
G01*
X3964799Y2197100D03*
D17*
G01*
X5220995Y1803400D03*
G01*
X5370804Y1803400D03*
D18*
G01*
X5054600Y697624D03*
D19*
G01*
X5054600Y546963D03*
D20*
G01*
X3326524Y1574800D03*
G01*
X3175875Y1574800D03*
D21*
G01*
X3391775Y1778000D03*
G01*
X3542424Y1778000D03*
D20*
G01*
X2196224Y2463800D03*
G01*
X2045575Y2463800D03*
G01*
X4863224Y1587500D03*
G01*
X4712575Y1587500D03*
G01*
X2945524Y279400D03*
G01*
X2794875Y279400D03*
G01*
X2996324Y1574800D03*
G01*
X2845675Y1574800D03*
D22*
G01*
X1765300Y393700D03*
G01*
X2197100Y393700D03*
D23*
G01*
X2882900Y2425700D03*
G01*
X3530600Y2425700D03*
D22*
G01*
X2070100Y2197100D03*
G01*
X2501900Y2197100D03*
D24*
G01*
X2401897Y292100D03*
G01*
X2601902Y292100D03*
D25*
G01*
X4005986Y749300D03*
G01*
X3106013Y749300D03*
D26*
G01*
X4445000Y1731289D03*
G01*
X4445000Y1291310D03*
G01*
X2239289Y25400D03*
G01*
X1799310Y25400D03*
D27*
G01*
X101092Y737895D03*
G01*
X228092Y737895D03*
G01*
X355092Y737895D03*
G01*
X482092Y737895D03*
G01*
X609092Y737895D03*
G01*
X736092Y737895D03*
G01*
X863092Y737895D03*
G01*
X990092Y737895D03*
G01*
X1117092Y737895D03*
G01*
X1244092Y737895D03*
G01*
X1371092Y737895D03*
G01*
X1498092Y737895D03*
G01*
X1625092Y737895D03*
G01*
X1752092Y737895D03*
D28*
G01*
X1880107Y914400D03*
G01*
X1880107Y1041400D03*
G01*
X1880107Y1168400D03*
G01*
X1880107Y1295400D03*
G01*
X1880107Y1422400D03*
G01*
X1880107Y1549400D03*
G01*
X1880107Y1676400D03*
G01*
X1880107Y1803400D03*
G01*
X1880107Y1930400D03*
G01*
X1880107Y2057400D03*
G01*
X1880107Y2184400D03*
G01*
X1877110Y2311400D03*
D27*
G01*
X1752092Y2487904D03*
G01*
X1625092Y2487904D03*
G01*
X1498092Y2487904D03*
G01*
X1371092Y2487904D03*
G01*
X1244092Y2487904D03*
G01*
X1117092Y2487904D03*
G01*
X990092Y2487904D03*
G01*
X863092Y2487904D03*
G01*
X736092Y2487904D03*
G01*
X609092Y2487904D03*
G01*
X482092Y2487904D03*
G01*
X355092Y2487904D03*
G01*
X228092Y2487904D03*
G01*
X101092Y2487904D03*
D29*
G01*
X1013104Y1602892D03*
G01*
X1013129Y1462887D03*
G01*
X1013104Y1322882D03*
G01*
X733120Y1322882D03*
G01*
X733120Y1462887D03*
G01*
X733120Y1602892D03*
G01*
X873125Y1602892D03*
G01*
X873125Y1322882D03*
G01*
X873125Y1462887D03*
D30*
G01*
X4840097Y932002D03*
G01*
X4610100Y932002D03*
G01*
X4380102Y932002D03*
D31*
G01*
X4610100Y337997D03*
D32*
G01*
X3221100Y1949195D03*
G01*
X3221100Y1854200D03*
G01*
X3221100Y1759204D03*
G01*
X2951099Y1759204D03*
G01*
X2951099Y1854200D03*
G01*
X2951099Y1949195D03*
D33*
G01*
X4090365Y1524000D03*
G01*
X3758234Y1524000D03*
D34*
G01*
X5175478Y1031494D03*
G01*
X5175478Y1081506D03*
G01*
X5175478Y1131493D03*
G01*
X5175478Y1181506D03*
G01*
X5175478Y1231493D03*
G01*
X5175478Y1281506D03*
G01*
X5175478Y1331468D03*
G01*
X5175478Y1381505D03*
D35*
G01*
X5175491Y886504D03*
D36*
G01*
X5175481Y1526500D03*
D37*
G01*
X5175481Y1446516D03*
G01*
X5175497Y966504D03*
D38*
G01*
X5372100Y304800D03*
D39*
G01*
X5722620Y304800D03*
D40*
G01*
X2425700Y831494D03*
G01*
X2425700Y1081506D03*
G01*
X2425700Y1331493D03*
D26*
G01*
X2425700Y1581505D03*
D41*
G01*
X-508000Y241300D03*
D42*
G01*
X-508000Y495300D03*
D41*
G01*
X-508000Y-12700D03*
G01*
X-228600Y241300D03*
D42*
G01*
X-228600Y495300D03*
D41*
G01*
X-228600Y-12700D03*
G01*
X50800Y241300D03*
D42*
G01*
X50800Y495300D03*
D41*
G01*
X50800Y-12700D03*
G01*
X330200Y241300D03*
D42*
G01*
X330200Y495300D03*
D41*
G01*
X330200Y-12700D03*
G01*
X609600Y241300D03*
D42*
G01*
X609600Y495300D03*
D41*
G01*
X609600Y-12700D03*
G01*
X889000Y241300D03*
D42*
G01*
X889000Y495300D03*
D41*
G01*
X889000Y-12700D03*
G01*
X1168400Y241300D03*
D42*
G01*
X1168400Y495300D03*
D41*
G01*
X1168400Y-12700D03*
G01*
X1447800Y241300D03*
D42*
G01*
X1447800Y495300D03*
D41*
G01*
X1447800Y-12700D03*
D43*
G01*
X2603500Y-50800D03*
D40*
G01*
X2857500Y-50800D03*
G01*
X3111500Y-50800D03*
G01*
X3365500Y-50800D03*
G01*
X3619500Y-50800D03*
G01*
X3873500Y-50800D03*
G01*
X4127500Y-50800D03*
G01*
X4381500Y-50800D03*
G01*
X4635500Y-50800D03*
G01*
X4889500Y-50800D03*
D44*
G01*
X5670321Y1639011D03*
D45*
G01*
X5252338Y1639011D03*
G01*
X5252338Y773988D03*
D44*
G01*
X5670321Y773988D03*
D46*
G01*
X3288944Y547217D03*
G01*
X2967888Y1039317D03*
G01*
X201117Y860552D03*
G01*
X2913481Y177647D03*
G01*
X4625263Y1289888D03*
G01*
X5189347Y1892579D03*
G01*
X3283204Y301370D03*
G01*
X3625418Y1963496D03*
G01*
X2685389Y1874316D03*
G01*
X3398011Y754024D03*
G01*
X3497300Y86690D03*
G01*
X3339338Y2164079D03*
G01*
X4279442Y1450111D03*
G01*
X3958793Y1849297D03*
G01*
X2720314Y420370D03*
G01*
X2520594Y444957D03*
G01*
X1948662Y551535D03*
G01*
X946810Y944473D03*
G01*
X4068089Y2425700D03*
G01*
X5346496Y1053388D03*
G01*
X4836820Y483768D03*
G01*
X863092Y1024686D03*
G01*
X2089911Y589965D03*
G01*
X5288559Y1231493D03*
G01*
X2005482Y924509D03*
G01*
X2966491Y378663D03*
G01*
X3460115Y378663D03*
G01*
X1741601Y1242313D03*
G01*
X3252292Y150799D03*
G01*
X2001570Y1422400D03*
G01*
X2116175Y1525955D03*
G01*
X2061514Y1687423D03*
G01*
X1677923Y2160625D03*
G01*
X288289Y2363673D03*
M02*
